<svg width="75" height="11" viewBox="0 0 75 11" fill="none" xmlns="http://www.w3.org/2000/svg">
<path d="M8.512 4.89C9.072 5.086 9.51067 5.394 9.828 5.814C10.1453 6.22467 10.304 6.724 10.304 7.312C10.304 8.17067 9.95867 8.83333 9.268 9.3C8.57733 9.76667 7.57867 10 6.272 10H0.98V0.199999H5.992C7.24267 0.199999 8.19467 0.433333 8.848 0.899999C9.50133 1.35733 9.828 1.978 9.828 2.762C9.828 3.22867 9.71133 3.64867 9.478 4.022C9.254 4.386 8.932 4.67533 8.512 4.89ZM3.724 2.202V4.092H5.628C6.56133 4.092 7.028 3.77467 7.028 3.14C7.028 2.51467 6.56133 2.202 5.628 2.202H3.724ZM6.048 7.998C7.01867 7.998 7.504 7.66667 7.504 7.004C7.504 6.34133 7.01867 6.01 6.048 6.01H3.724V7.998H6.048ZM16.2618 10.196C14.8058 10.196 13.6718 9.79933 12.8598 9.006C12.0571 8.21267 11.6558 7.088 11.6558 5.632V0.199999H14.4278V5.548C14.4278 7.116 15.0484 7.9 16.2898 7.9C17.5218 7.9 18.1378 7.116 18.1378 5.548V0.199999H20.8678V5.632C20.8678 7.088 20.4618 8.21267 19.6498 9.006C18.8471 9.79933 17.7178 10.196 16.2618 10.196ZM27.8589 6.486V10H25.0869V6.444L21.3489 0.199999H24.2749L26.5989 4.092L28.9229 0.199999H31.6109L27.8589 6.486ZM45.7142 0.199999V10H43.4322L39.1062 4.778V10H36.3902V0.199999H38.6722L42.9982 5.422V0.199999H45.7142ZM52.6115 10.196C51.5755 10.196 50.6421 9.97667 49.8115 9.538C48.9901 9.09933 48.3415 8.49267 47.8655 7.718C47.3988 6.94333 47.1655 6.07067 47.1655 5.1C47.1655 4.12933 47.3988 3.25667 47.8655 2.482C48.3415 1.70733 48.9901 1.10067 49.8115 0.661999C50.6421 0.223333 51.5755 0.00399935 52.6115 0.00399935C53.6475 0.00399935 54.5761 0.223333 55.3975 0.661999C56.2281 1.10067 56.8768 1.70733 57.3435 2.482C57.8195 3.25667 58.0575 4.12933 58.0575 5.1C58.0575 6.07067 57.8195 6.94333 57.3435 7.718C56.8768 8.49267 56.2281 9.09933 55.3975 9.538C54.5761 9.97667 53.6475 10.196 52.6115 10.196ZM52.6115 7.9C53.1061 7.9 53.5541 7.78333 53.9555 7.55C54.3568 7.31667 54.6741 6.99 54.9075 6.57C55.1408 6.14067 55.2575 5.65067 55.2575 5.1C55.2575 4.54933 55.1408 4.064 54.9075 3.644C54.6741 3.21467 54.3568 2.88333 53.9555 2.65C53.5541 2.41667 53.1061 2.3 52.6115 2.3C52.1168 2.3 51.6688 2.41667 51.2675 2.65C50.8661 2.88333 50.5488 3.21467 50.3155 3.644C50.0821 4.064 49.9655 4.54933 49.9655 5.1C49.9655 5.65067 50.0821 6.14067 50.3155 6.57C50.5488 6.99 50.8661 7.31667 51.2675 7.55C51.6688 7.78333 52.1168 7.9 52.6115 7.9ZM74.5395 0.199999L71.3615 10H68.3935L66.5175 4.036L64.5575 10H61.5895L58.4115 0.199999H61.2675L63.2415 6.458L65.3135 0.199999H67.8615L69.8355 6.514L71.8935 0.199999H74.5395Z" fill="black"/>
</svg>
