<svg width="30" height="33" viewBox="0 0 30 33" fill="none" xmlns="http://www.w3.org/2000/svg">
<path d="M29.7021 31.566L27.3169 9.17344C27.2772 8.81291 26.9592 8.53251 26.6014 8.53251H22.1889V7.17052C22.1889 3.32493 19.0882 0.200378 15.272 0.200378C11.4558 0.200378 8.35516 3.32493 8.35516 7.17052V8.53251H3.82341C3.46564 8.53251 3.14762 8.81291 3.10787 9.17344L0.722743 31.566C0.682991 31.7663 0.762495 31.9666 0.881752 32.1268C1.00101 32.2871 1.19977 32.3672 1.39853 32.3672H29.0263C29.225 32.3672 29.4238 32.2871 29.5431 32.1268C29.6623 31.9666 29.7418 31.7663 29.7021 31.566ZM21.4734 12.5784C21.8311 12.5784 22.1094 12.8588 22.1094 13.2193C22.1094 13.5799 21.8311 13.8603 21.4734 13.8603C21.1156 13.8603 20.8373 13.5799 20.8373 13.2193C20.8373 12.8588 21.1156 12.5784 21.4734 12.5784ZM9.78623 7.17052C9.78623 4.12609 12.2509 1.64248 15.272 1.64248C18.2932 1.64248 20.7578 4.12609 20.7578 7.17052V8.53251H9.78623V7.17052ZM9.0707 12.5784C9.42846 12.5784 9.70673 12.8588 9.70673 13.2193C9.70673 13.5799 9.42846 13.8603 9.0707 13.8603C8.71293 13.8603 8.43466 13.5799 8.43466 13.2193C8.43466 12.8588 8.71293 12.5784 9.0707 12.5784ZM2.23332 30.885L4.45945 9.93455H8.35516V11.2565C7.56011 11.5369 7.00358 12.298 7.00358 13.1793C7.00358 14.3009 7.91788 15.2222 9.03094 15.2222C10.144 15.2222 11.0583 14.3009 11.0583 13.1793C11.0583 12.298 10.5018 11.5369 9.70673 11.2565V9.93455H20.6783V11.2565C19.8833 11.5369 19.3267 12.298 19.3267 13.1793C19.3267 14.3009 20.241 15.2222 21.3541 15.2222C22.4672 15.2222 23.3815 14.3009 23.3815 13.1793C23.3815 12.298 22.8249 11.5369 22.0299 11.2565V9.93455H26.0846L28.3107 30.885H2.23332Z" fill="#E12934"/>
</svg>
