<svg width="91" height="82" viewBox="0 0 91 82" fill="none" xmlns="http://www.w3.org/2000/svg">
<path d="M62.3028 36.2647C63.2152 35.3631 63.2196 33.8992 62.3125 32.9924C61.4038 32.0871 59.9279 32.0826 59.0148 32.9836L40.2174 51.494C40.1929 51.5182 40.1692 51.5425 40.1455 51.5682L40.1441 51.5667C37.2722 54.6715 34.1226 55.4681 31.6751 54.803C30.7916 54.5627 29.997 54.1321 29.3461 53.556C28.7092 52.9916 28.2064 52.2766 27.8902 51.4528C27.0674 49.3092 27.5673 46.4043 30.2688 43.3899L64.466 9.45557C64.5126 9.40928 64.5563 9.36225 64.5978 9.31374C69.0759 4.76423 74.4049 3.82948 78.669 5.24189C80.3101 5.78421 81.7949 6.67119 83.0101 7.82713C84.2187 8.97645 85.1607 10.3888 85.7265 11.9894C87.2246 16.2376 86.0952 21.9115 80.3663 27.8131L80.3641 27.8146C75.1121 33.0431 70.1712 38.4039 65.2895 43.7015C55.6312 54.1806 46.2084 64.404 34.33 73.4758C29.7749 76.9525 24.0889 77.9798 18.8984 77.0553C16.6301 76.6519 14.4618 75.8766 12.5304 74.7729C10.6316 73.6875 8.95947 72.2788 7.64795 70.5886C5.25746 67.5058 4.08072 63.4435 4.94716 58.6508C6.40087 50.6077 10.9923 46.0597 16.5242 40.5791C17.09 40.0191 17.6654 39.4496 18.2445 38.8683L35.8585 21.2214L41.817 15.2521C42.7249 14.3453 42.7204 12.8808 41.8073 11.9798C40.895 11.0781 39.4183 11.0826 38.5104 11.9886L32.5527 17.9594L14.9379 35.6056C14.3618 36.1839 13.7938 36.7453 13.2362 37.2979C7.13771 43.34 2.07605 48.3539 0.362414 57.8351C-0.75952 64.0388 0.802301 69.3481 3.95779 73.4163C5.64032 75.5864 7.78125 77.3912 10.2103 78.7793C12.6074 80.1491 15.2853 81.1088 18.0764 81.6056C24.4792 82.7454 31.5144 81.4623 37.1796 77.1362C49.3395 67.8497 58.9126 57.4632 68.7241 46.8188C73.5081 41.6277 78.3506 36.3742 83.6744 31.0737C83.6922 31.0568 83.7107 31.0391 83.7277 31.0208C90.8762 23.6575 92.1604 16.2229 90.1298 10.4675C89.3129 8.15414 87.9651 6.12886 86.2441 4.49086C84.5305 2.86168 82.4458 1.61462 80.1501 0.854042C74.3257 -1.07497 67.1483 0.0978705 61.2631 6.07963C61.2283 6.10976 61.1942 6.14136 61.1609 6.17443L26.9549 40.1169L26.9571 40.1183C26.9282 40.147 26.9001 40.1771 26.8727 40.2073C22.7582 44.7347 22.1205 49.443 23.5246 53.1018C24.1045 54.612 25.0428 55.9377 26.241 56.9995C27.4258 58.0489 28.8618 58.8286 30.4517 59.2614C34.4322 60.3439 39.3576 59.2592 43.5713 54.7097L62.3028 36.2647Z" fill="black"/>
</svg>
