<svg width="66" height="65" viewBox="0 0 66 65" fill="none" xmlns="http://www.w3.org/2000/svg">
<path d="M39.3029 28.5612C45.9236 19.7356 52.6611 12.045 58.5 8.50003C58.5 4.99993 55.1667 0.666668 53 0C47.855 4.06174 40.7156 12.0245 32.5189 23.4275C24.9892 17.936 16.3559 12.3046 6.73329 6.99987C-0.066709 6.99987 -0.433376 9.66654 0.233291 10.9999C6.95056 15.7325 17.1219 23.3668 26.866 31.5971C21.4972 39.6414 15.7997 48.9794 10 59.4999C11 62.9998 13.6667 64.6666 15 63.9999C17.2004 60.8768 19.8014 56.9525 22.6677 52.6279C25.8954 47.758 29.4596 42.3804 33.1673 37.0673C42.2042 45.1496 50.0532 53.3164 53.2333 59.4999C61.2333 59.4999 64.5666 55.1665 65.2333 52.9999C61.3695 48.1454 52.4531 38.886 39.3029 28.5612Z" fill="black"/>
</svg>
