<svg width="458" height="58" viewBox="0 0 458 58" fill="none" xmlns="http://www.w3.org/2000/svg">
<path d="M35.5703 32.8984H14.0078V46.4531H39.4766V57H0.296875V0.125H39.5547V10.7109H14.0078V22.7031H35.5703V32.8984ZM70.1797 37.5859H46.7031V27.3906H70.1797V37.5859ZM98.3438 47.625C100.193 47.625 101.625 47.1302 102.641 46.1406C103.656 45.125 104.151 43.7188 104.125 41.9219H116.469C116.469 46.5573 114.802 50.3594 111.469 53.3281C108.161 56.2969 103.891 57.7812 98.6562 57.7812C92.5104 57.7812 87.6667 55.8542 84.125 52C80.5833 48.1458 78.8125 42.8073 78.8125 35.9844V35.4375C78.8125 31.1667 79.5938 27.4036 81.1562 24.1484C82.7448 20.8672 85.0234 18.3542 87.9922 16.6094C90.9609 14.8385 94.4766 13.9531 98.5391 13.9531C104.034 13.9531 108.396 15.4766 111.625 18.5234C114.854 21.5703 116.469 25.6979 116.469 30.9062H104.125C104.125 28.7188 103.591 27.0391 102.523 25.8672C101.456 24.6953 100.023 24.1094 98.2266 24.1094C94.8151 24.1094 92.8229 26.2839 92.25 30.6328C92.0677 32.013 91.9766 33.9141 91.9766 36.3359C91.9766 40.5807 92.4844 43.5234 93.5 45.1641C94.5156 46.8047 96.1302 47.625 98.3438 47.625ZM120.375 35.4766C120.375 31.2578 121.195 27.5078 122.836 24.2266C124.477 20.9193 126.833 18.3802 129.906 16.6094C132.979 14.8385 136.586 13.9531 140.727 13.9531C147.055 13.9531 152.042 15.9193 155.688 19.8516C159.333 23.7578 161.156 29.0833 161.156 35.8281V36.2969C161.156 42.8854 159.32 48.1198 155.648 52C152.003 55.8542 147.055 57.7812 140.805 57.7812C134.789 57.7812 129.958 55.9844 126.312 52.3906C122.667 48.7708 120.701 43.875 120.414 37.7031L120.375 35.4766ZM133.539 36.2969C133.539 40.2031 134.151 43.0677 135.375 44.8906C136.599 46.7135 138.409 47.625 140.805 47.625C145.492 47.625 147.888 44.0182 147.992 36.8047V35.4766C147.992 27.8984 145.57 24.1094 140.727 24.1094C136.326 24.1094 133.943 27.3776 133.578 33.9141L133.539 36.2969ZM179.398 14.7344L179.828 19.6953C182.823 15.8672 186.846 13.9531 191.898 13.9531C197.237 13.9531 200.844 16.0755 202.719 20.3203C205.583 16.0755 209.724 13.9531 215.141 13.9531C223.708 13.9531 228.109 19.1354 228.344 29.5V57H215.141V30.3203C215.141 28.1589 214.776 26.5833 214.047 25.5938C213.318 24.6042 211.99 24.1094 210.062 24.1094C207.458 24.1094 205.518 25.2682 204.242 27.5859L204.281 28.1328V57H191.078V30.3984C191.078 28.1849 190.727 26.5833 190.023 25.5938C189.32 24.6042 187.979 24.1094 186 24.1094C183.474 24.1094 181.547 25.2682 180.219 27.5859V57H167.055V14.7344H179.398ZM248.305 14.7344L248.734 19.6953C251.729 15.8672 255.753 13.9531 260.805 13.9531C266.143 13.9531 269.75 16.0755 271.625 20.3203C274.49 16.0755 278.63 13.9531 284.047 13.9531C292.615 13.9531 297.016 19.1354 297.25 29.5V57H284.047V30.3203C284.047 28.1589 283.682 26.5833 282.953 25.5938C282.224 24.6042 280.896 24.1094 278.969 24.1094C276.365 24.1094 274.424 25.2682 273.148 27.5859L273.188 28.1328V57H259.984V30.3984C259.984 28.1849 259.633 26.5833 258.93 25.5938C258.227 24.6042 256.885 24.1094 254.906 24.1094C252.38 24.1094 250.453 25.2682 249.125 27.5859V57H235.961V14.7344H248.305ZM325.219 57.7812C318.734 57.7812 313.487 55.8542 309.477 52C305.466 48.1198 303.461 43.0807 303.461 36.8828V35.7891C303.461 31.4661 304.255 27.651 305.844 24.3438C307.458 21.0365 309.802 18.4844 312.875 16.6875C315.948 14.8646 319.594 13.9531 323.812 13.9531C329.75 13.9531 334.438 15.8021 337.875 19.5C341.312 23.1719 343.031 28.3021 343.031 34.8906V40.0078H316.859C317.328 42.3776 318.357 44.2396 319.945 45.5938C321.534 46.9479 323.591 47.625 326.117 47.625C330.284 47.625 333.539 46.1667 335.883 43.25L341.898 50.3594C340.258 52.625 337.927 54.4349 334.906 55.7891C331.911 57.1172 328.682 57.7812 325.219 57.7812ZM323.734 24.1094C319.88 24.1094 317.589 26.6615 316.859 31.7656H330.141V30.75C330.193 28.6406 329.659 27.013 328.539 25.8672C327.419 24.6953 325.818 24.1094 323.734 24.1094ZM373.93 26.6484L369.594 26.3359C365.453 26.3359 362.797 27.638 361.625 30.2422V57H348.461V14.7344H360.805L361.234 20.1641C363.448 16.0234 366.534 13.9531 370.492 13.9531C371.898 13.9531 373.122 14.1094 374.164 14.4219L373.93 26.6484ZM395.766 47.625C397.615 47.625 399.047 47.1302 400.062 46.1406C401.078 45.125 401.573 43.7188 401.547 41.9219H413.891C413.891 46.5573 412.224 50.3594 408.891 53.3281C405.583 56.2969 401.312 57.7812 396.078 57.7812C389.932 57.7812 385.089 55.8542 381.547 52C378.005 48.1458 376.234 42.8073 376.234 35.9844V35.4375C376.234 31.1667 377.016 27.4036 378.578 24.1484C380.167 20.8672 382.445 18.3542 385.414 16.6094C388.383 14.8385 391.898 13.9531 395.961 13.9531C401.456 13.9531 405.818 15.4766 409.047 18.5234C412.276 21.5703 413.891 25.6979 413.891 30.9062H401.547C401.547 28.7188 401.013 27.0391 399.945 25.8672C398.878 24.6953 397.445 24.1094 395.648 24.1094C392.237 24.1094 390.245 26.2839 389.672 30.6328C389.49 32.013 389.398 33.9141 389.398 36.3359C389.398 40.5807 389.906 43.5234 390.922 45.1641C391.938 46.8047 393.552 47.625 395.766 47.625ZM439.906 57.7812C433.422 57.7812 428.174 55.8542 424.164 52C420.154 48.1198 418.148 43.0807 418.148 36.8828V35.7891C418.148 31.4661 418.943 27.651 420.531 24.3438C422.146 21.0365 424.49 18.4844 427.562 16.6875C430.635 14.8646 434.281 13.9531 438.5 13.9531C444.438 13.9531 449.125 15.8021 452.562 19.5C456 23.1719 457.719 28.3021 457.719 34.8906V40.0078H431.547C432.016 42.3776 433.044 44.2396 434.633 45.5938C436.221 46.9479 438.279 47.625 440.805 47.625C444.971 47.625 448.227 46.1667 450.57 43.25L456.586 50.3594C454.945 52.625 452.615 54.4349 449.594 55.7891C446.599 57.1172 443.37 57.7812 439.906 57.7812ZM438.422 24.1094C434.568 24.1094 432.276 26.6615 431.547 31.7656H444.828V30.75C444.88 28.6406 444.346 27.013 443.227 25.8672C442.107 24.6953 440.505 24.1094 438.422 24.1094Z" fill="black" fill-opacity="0.01"/>
</svg>
