<svg width="122" height="123" viewBox="0 0 122 123" fill="none" xmlns="http://www.w3.org/2000/svg">
<path fill-rule="evenodd" clip-rule="evenodd" d="M34.6552 58.4971C34.2391 58.0452 33.9065 57.5233 33.6728 56.9556C33.2818 56.0146 33.1716 55.0037 33.342 54.0427C33.5124 53.0818 33.9435 52.1709 34.6352 51.4202L34.8858 51.1599C35.8411 50.2456 37.1086 49.7276 38.4318 49.7109C39.755 49.6942 41.0351 50.1799 42.0133 51.0698L42.0434 51.0898C43.4769 52.4612 45.8929 54.7034 47.4868 56.1147L48.8501 57.3359L65.5412 39.8389C65.7717 39.5986 66.0324 39.3784 66.3131 39.1882C66.5938 38.998 66.8845 38.8279 67.1952 38.6978C67.506 38.5676 67.8268 38.4575 68.1576 38.3874C68.4884 38.3174 68.8293 38.2773 69.1601 38.2673H69.1801C69.8577 38.2616 70.5305 38.3803 71.165 38.6177C71.4758 38.7378 71.7765 38.8879 72.0572 39.0681C72.3279 39.2383 72.5885 39.4385 72.8391 39.6787L72.9594 39.7888C73.19 40.019 73.4005 40.2693 73.591 40.5396C73.7814 40.8098 73.9418 41.1101 74.0721 41.4104C74.2125 41.7207 74.3127 42.041 74.3829 42.3713C74.4531 42.6917 74.4932 43.032 74.5032 43.3823V43.5525C74.5032 43.8528 74.4731 44.1431 74.423 44.4434C74.3629 44.7637 74.2726 45.084 74.1624 45.3843C74.0421 45.6946 73.8917 45.9949 73.7113 46.2751C73.5308 46.5554 73.3303 46.8257 73.0897 47.0659L52.9101 68.2065C52.4457 68.6954 51.8908 69.0897 51.2761 69.3677C50.9653 69.5078 50.6445 69.6179 50.3238 69.698C50.003 69.7781 49.6621 69.8181 49.3213 69.8381H49.2311C48.9203 69.8481 48.6095 69.8281 48.3088 69.7781L48.2286 69.7681C47.9178 69.718 47.6171 69.6379 47.3364 69.5378C47.0256 69.4277 46.7149 69.2876 46.4242 69.1074L46.374 69.0774C46.1034 68.9072 45.8427 68.727 45.6122 68.5168L45.562 68.4768C44.3892 67.3958 43.116 66.2847 41.8329 65.1736C39.6074 63.2417 36.5098 60.459 34.6552 58.4971V58.4971ZM53.7522 0C68.5987 0 82.0317 6.00586 91.7556 15.7153C101.48 25.4248 107.494 38.8479 107.494 53.6624C107.494 64.5029 104.276 74.5928 98.7328 83.041L121.99 108.356L105.951 123L83.5254 98.356C74.7118 104.231 64.3492 107.359 53.7522 107.345C38.9057 107.345 25.4726 101.339 15.7487 91.6294C6.01479 81.8999 0 68.4868 0 53.6724C0 38.8479 6.01479 25.4348 15.7387 15.7153C25.4726 6.00586 38.9057 0 53.7522 0ZM87.5152 19.9495C78.874 11.321 66.9346 5.98584 53.7522 5.98584C40.5597 5.98584 28.6304 11.321 19.9892 19.9495C11.3379 28.5779 5.99474 40.4995 5.99474 53.6724C5.99474 66.8352 11.3379 78.7568 19.9791 87.3853C28.6204 96.0137 40.5597 101.349 53.7422 101.349C66.9246 101.349 78.8639 96.0137 87.5052 87.3853C96.1464 78.7568 101.49 66.8352 101.49 53.6724C101.5 40.4995 96.1565 28.5779 87.5152 19.9495Z" fill="#E6E6E6"/>
</svg>
