<svg width="147" height="111" viewBox="0 0 147 111" fill="none" xmlns="http://www.w3.org/2000/svg">
<path fill-rule="evenodd" clip-rule="evenodd" d="M44.1666 0H51.083C52.6393 0.00630821 54.13 0.628062 55.2305 1.72982C56.331 2.83158 56.952 4.32407 56.9583 5.88218V12.2915C60.0731 13.2235 63.0507 14.565 65.8132 16.2808L70.5996 11.4888C71.148 10.9354 71.8004 10.4961 72.5192 10.1963C73.238 9.89651 74.009 9.74216 74.7877 9.74216C75.5664 9.74216 76.3373 9.89651 77.0562 10.1963C77.775 10.4961 78.4274 10.9354 78.9758 11.4888L83.7622 16.4126C84.8597 17.5171 85.4758 19.0117 85.4758 20.5697C85.4758 22.1276 84.8597 23.6223 83.7622 24.7267L78.6527 29.8542C80.115 32.5308 81.2365 35.3803 81.9912 38.336H89.3623C90.9207 38.3392 92.4145 38.9595 93.5175 40.0616C94.6206 41.1637 95.2433 42.658 95.2496 44.2182V51.1427C95.2433 52.7028 94.6206 54.1971 93.5175 55.2992C92.4145 56.4013 90.9207 57.0217 89.3623 57.0248H81.9194C81.1433 59.9503 80.0058 62.7674 78.533 65.4108L83.7622 70.6821C84.315 71.2311 84.7538 71.8843 85.0532 72.6039C85.3527 73.3236 85.5068 74.0955 85.5068 74.8751C85.5068 75.6547 85.3527 76.4265 85.0532 77.1462C84.7538 77.8658 84.315 78.519 83.7622 79.0681L78.8561 83.8601C78.3077 84.4135 77.6553 84.8528 76.9365 85.1526C76.2177 85.4524 75.4467 85.6067 74.668 85.6067C73.8893 85.6067 73.1183 85.4524 72.3995 85.1526C71.6807 84.8528 71.0283 84.4135 70.4799 83.8601L65.5619 78.9363C62.8559 80.6066 59.9434 81.9155 56.8985 82.8298V89.4907C56.8953 91.0509 56.2757 92.5464 55.1749 93.6508C54.0741 94.7551 52.5815 95.3785 51.0231 95.3848H44.1666C42.6041 95.3785 41.1079 94.7518 40.0064 93.6423C38.9049 92.5328 38.2881 91.031 38.2913 89.4667V83.4767C34.9482 82.7326 31.7259 81.5229 28.7185 79.8827L24.6979 83.8601C23.5947 84.9589 22.1018 85.5757 20.5457 85.5757C18.9895 85.5757 17.4967 84.9589 16.3935 83.8601L11.4994 78.9483C10.9465 78.3992 10.5078 77.746 10.2083 77.0264C9.90889 76.3067 9.75473 75.5349 9.75473 74.7553C9.75473 73.9757 9.90889 73.2038 10.2083 72.4841C10.5078 71.7645 10.9465 71.1113 11.4994 70.5623L15.161 66.8964C13.2526 63.8349 11.8051 60.5087 10.8652 57.0248H5.87532C4.31903 57.0185 2.82828 56.3968 1.7278 55.295C0.627329 54.1933 0.00630085 52.7008 0 51.1427L0 44.2182C0.00630085 42.6601 0.627329 41.1676 1.7278 40.0659C2.82828 38.9641 4.31903 38.3423 5.87532 38.336H10.7694C11.6875 34.7958 13.1273 31.4122 15.0413 28.2968L11.4515 24.7028C10.354 23.5983 9.73784 22.1037 9.73784 20.5457C9.73784 18.9877 10.354 17.4931 11.4515 16.3887L16.3935 11.5128C17.4967 10.414 18.9895 9.79714 20.5457 9.79714C22.1018 9.79714 23.5947 10.414 24.6979 11.5128L28.5509 15.3704C31.6032 13.6688 34.8834 12.4141 38.2913 11.6446V5.88218C38.2976 4.32407 38.9186 2.83158 40.0191 1.72982C41.1196 0.628062 42.6103 0.00630821 44.1666 0V0ZM112.72 56.929L116.633 56.1982C117.515 56.0374 118.425 56.2333 119.163 56.7431C119.901 57.2529 120.407 58.0349 120.57 58.9177L121.24 62.5117C123.097 62.7146 124.92 63.1617 126.66 63.8415L128.85 60.6428C129.361 59.906 130.141 59.4008 131.022 59.237C131.902 59.0732 132.812 59.2642 133.553 59.7683L136.832 62.0325C137.567 62.5436 138.072 63.325 138.236 64.2067C138.399 65.0883 138.209 65.999 137.705 66.7406L135.312 70.1789C136.428 71.5344 137.365 73.0282 138.1 74.6235L142.276 73.8448C143.159 73.687 144.069 73.8839 144.808 74.3929C145.547 74.902 146.056 75.6821 146.225 76.5642L146.943 80.4817C147.024 80.9183 147.019 81.3667 146.927 81.8012C146.835 82.2357 146.658 82.6477 146.407 83.0138C146.156 83.3799 145.835 83.6928 145.463 83.9346C145.091 84.1765 144.675 84.3425 144.239 84.4231L140.014 85.2138C139.884 86.9511 139.539 88.6655 138.985 90.3173L142.468 92.7133C143.207 93.2246 143.714 94.0083 143.878 94.8928C144.041 95.7774 143.848 96.6909 143.341 97.4334L141.091 100.716C140.581 101.453 139.8 101.958 138.918 102.12C138.037 102.282 137.127 102.087 136.389 101.578L133.086 99.3143C131.727 100.543 130.215 101.59 128.587 102.429L129.281 106.203C129.37 106.642 129.371 107.094 129.285 107.534C129.199 107.973 129.027 108.391 128.779 108.764C128.531 109.137 128.212 109.457 127.841 109.706C127.469 109.956 127.051 110.129 126.613 110.216L122.7 110.947C121.816 111.105 120.907 110.908 120.168 110.399C119.429 109.89 118.919 109.11 118.751 108.227L118.129 104.813C116.155 104.742 114.201 104.391 112.325 103.771L110.47 106.466C109.96 107.203 109.179 107.708 108.299 107.872C107.418 108.036 106.508 107.845 105.768 107.341L102.489 105.077C101.753 104.566 101.248 103.784 101.085 102.902C100.921 102.021 101.112 101.11 101.616 100.369L103.303 97.9725C101.899 96.4272 100.729 94.6834 99.8326 92.7971L97.0086 93.3123C96.5725 93.3937 96.1246 93.3882 95.6907 93.2962C95.2567 93.2041 94.8451 93.0273 94.4794 92.7758C94.1138 92.5244 93.8012 92.2032 93.5597 91.8306C93.3182 91.4581 93.1523 91.0416 93.0718 90.6048L92.3418 86.6873C92.25 86.244 92.2478 85.7867 92.3353 85.3425C92.4229 84.8982 92.5985 84.4761 92.8516 84.1009C93.1048 83.7257 93.4305 83.4051 93.8095 83.158C94.1884 82.9108 94.613 82.7422 95.0581 82.6621L97.8342 82.1349C97.9865 80.0372 98.4503 77.9739 99.2103 76.0132L96.8171 74.3719C96.0804 73.8586 95.5755 73.0751 95.4119 72.1915C95.2484 71.3078 95.4395 70.3953 95.9436 69.6518L98.2052 66.3693C98.7137 65.6299 99.4943 65.1226 100.376 64.9586C101.258 64.7947 102.168 64.9875 102.908 65.4947L105.481 67.2678C107.032 65.9833 108.761 64.9301 110.614 64.141L110.004 60.8704C109.846 59.9877 110.043 59.0784 110.552 58.3403C111.061 57.6022 111.84 57.095 112.72 56.929V56.929ZM117.806 73.4854C119.793 73.1184 121.845 73.3491 123.702 74.1485C125.559 74.9479 127.138 76.2801 128.24 77.977C129.341 79.6739 129.916 81.6594 129.891 83.6829C129.867 85.7065 129.244 87.6774 128.101 89.347C126.959 91.0166 125.348 92.3099 123.473 93.0639C121.597 93.8179 119.54 93.9987 117.562 93.5834C115.583 93.1681 113.772 92.1755 112.357 90.7307C110.941 89.2859 109.985 87.4537 109.609 85.4654C109.358 84.1396 109.371 82.7773 109.648 81.4567C109.924 80.136 110.459 78.8831 111.22 77.7699C111.982 76.6567 112.956 75.7051 114.086 74.9698C115.216 74.2346 116.48 73.7301 117.806 73.4854V73.4854ZM47.6248 29.95C51.1443 29.9382 54.5881 30.973 57.5195 32.9233C60.4508 34.8735 62.7376 37.6514 64.09 40.9046C65.4423 44.1578 65.7993 47.7397 65.1155 51.1963C64.4318 54.6528 62.7382 57.8283 60.2495 60.3199C57.7608 62.8115 54.5891 64.5071 51.1365 65.1916C47.684 65.8762 44.1062 65.5188 40.8568 64.1649C37.6074 62.811 34.8328 60.5214 32.8848 57.5867C30.9369 54.6519 29.9032 51.2041 29.9151 47.6804C29.9277 42.9819 31.7976 38.4795 35.1161 35.1571C38.4346 31.8348 42.9318 29.9627 47.6248 29.95V29.95Z" fill="#E6E6E6"/>
</svg>
