<svg width="424" height="110" viewBox="0 0 424 110" fill="none" xmlns="http://www.w3.org/2000/svg">
<path d="M94 80.3052V28.5466H104.885V80.3052H94Z" fill="#232323"/>
<path d="M110.883 80.2956V42.754H121.323V44.5311C136.429 37.0672 144.87 46.7525 145.759 56.0823V80.2956H134.652V57.4152C133.541 48.5296 120.213 50.9731 121.323 57.4152V80.2956H110.883Z" fill="#232323"/>
<path d="M183.077 42.103L190.408 34.7724C182.766 28.9079 174.192 27.5899 170.86 27.6639C165.38 27.5158 154.155 30.1963 153.089 42.103C152.022 54.0097 164.492 58.3192 170.86 58.9856C176.191 59.5436 182.944 60.5406 182.411 65.872C180.856 75.424 163.973 70.9812 157.753 65.872L150.423 73.2026C151.904 75.9423 163.751 81.6439 172.859 81.4217C190.847 80.9829 192.695 70.0711 193.074 66.7605C193.962 58.9856 187.727 49.4274 175.08 48.5451C170.355 48.2154 161.308 46.5458 163.307 42.103C167.217 34.9945 178.116 39.1411 183.077 42.103Z" fill="#C41329"/>
<path fill-rule="evenodd" clip-rule="evenodd" d="M200.901 45.2687L204.677 53.2658C210.009 51.0444 222.226 47.9344 222.893 55.4871C222.842 55.4871 222.66 55.4544 222.367 55.4018C218.842 54.7683 199.244 51.246 198.013 67.0384C196.947 80.7222 213.119 82.5882 222.226 79.034L222.226 80.3668H232.445V53.4879C231.704 46.6756 224.359 35.4946 200.901 45.2687ZM222.893 64.1768V69.977C219.039 71.8685 211.502 73.5697 208.22 69.0443C207.508 68.0627 207.302 66.7162 207.989 65.7166C210.173 62.5363 217.305 61.3839 222.893 64.1768Z" fill="#232323"/>
<path d="M239.057 80.3056V32.7677L249.719 27.8806V80.3056H239.057Z" fill="#232323"/>
<path fill-rule="evenodd" clip-rule="evenodd" d="M273.767 41.4312C252.22 41.4312 248.443 78.7506 273.767 81.4163C284.43 81.4163 287.54 74.53 287.54 74.53L280.876 69.1986C277.469 71.6422 269.769 74.219 266.214 64.978H291.316C292.205 56.5367 288.428 41.4312 273.767 41.4312ZM267.103 55.8702H280.876C280.728 54.2412 279.125 50.3167 273.767 50.3167C269.546 50.3167 267.103 53.7969 267.103 55.8702Z" fill="#232323"/>
<path d="M323.915 54.3152L327.914 46.096C315.918 38.3211 295.703 40.5425 295.703 53.2045C295.703 64.4721 309.959 65.0839 316.211 66.9813C318.363 67.6344 318.934 70.3123 316.94 71.3528C312.39 73.727 302.117 70.6142 298.147 68.0878L293.704 76.5291C315.03 86.3032 329.024 79.4538 329.024 68.7543C329.024 56.5365 306.144 58.7579 306.144 53.2045C306.144 49.428 319.028 51.6494 323.915 54.3152Z" fill="#232323"/>
<path d="M181.498 17.403L187.496 12.2938L183.053 5.62962C149.51 0.298294 142.624 30.2871 147.289 40.5056C147.289 17.403 169.725 15.4778 181.498 17.403Z" fill="url(#paint0_linear_781_8)"/>
<defs>
<linearGradient id="paint0_linear_781_8" x1="147.535" y1="36.766" x2="187.298" y2="12.997" gradientUnits="userSpaceOnUse">
<stop stop-color="#C4152A"/>
<stop offset="1" stop-color="#F16C39"/>
</linearGradient>
</defs>
</svg>
