<svg width="877" height="759" viewBox="0 0 877 759" fill="none" xmlns="http://www.w3.org/2000/svg">
<path d="M13.68 389V265.5H93.48V292.86H46.36V312.24H86.64V339.6H46.36V361.64H95.38V389H13.68ZM113.936 352.14V329.34H161.816V352.14H113.936ZM67.26 566.28C59.4067 566.28 51.87 565.013 44.65 562.48C37.5567 559.82 31.2867 555.893 25.84 550.7C20.52 545.38 16.2767 538.793 13.11 530.94C9.94333 522.96 8.36 513.713 8.36 503.2C8.36 492.813 10.0067 483.63 13.3 475.65C16.5933 467.543 20.9633 460.767 26.41 455.32C31.9833 449.747 38.3167 445.503 45.41 442.59C52.63 439.677 60.1667 438.22 68.02 438.22C76.2533 438.22 83.6 439.867 90.06 443.16C96.52 446.327 101.967 450.127 106.4 454.56L89.3 475.46C86.26 472.8 83.0933 470.647 79.8 469C76.6333 467.227 72.96 466.34 68.78 466.34C65.1067 466.34 61.6233 467.163 58.33 468.81C55.1633 470.457 52.3133 472.8 49.78 475.84C47.3733 478.88 45.41 482.617 43.89 487.05C42.4967 491.483 41.8 496.487 41.8 502.06C41.8 513.713 44.2067 522.643 49.02 528.85C53.96 535.057 60.42 538.16 68.4 538.16C73.2133 538.16 77.4567 537.147 81.13 535.12C84.93 532.967 88.16 530.433 90.82 527.52L107.92 548.04C102.6 554.12 96.4567 558.68 89.49 561.72C82.65 564.76 75.24 566.28 67.26 566.28ZM169.461 566.28C160.847 566.28 152.994 564.823 145.901 561.91C138.934 558.997 132.917 554.817 127.851 549.37C122.911 543.797 119.047 537.02 116.261 529.04C113.474 520.933 112.081 511.813 112.081 501.68C112.081 491.547 113.474 482.553 116.261 474.7C119.047 466.72 122.911 460.07 127.851 454.75C132.917 449.303 138.934 445.187 145.901 442.4C152.994 439.613 160.847 438.22 169.461 438.22C177.947 438.22 185.737 439.613 192.831 442.4C199.924 445.187 205.941 449.303 210.881 454.75C215.947 460.197 219.874 466.847 222.661 474.7C225.447 482.553 226.841 491.547 226.841 501.68C226.841 511.813 225.447 520.933 222.661 529.04C219.874 537.02 215.947 543.797 210.881 549.37C205.941 554.817 199.924 558.997 192.831 561.91C185.737 564.823 177.947 566.28 169.461 566.28ZM169.461 538.16C176.934 538.16 182.761 534.93 186.941 528.47C191.247 521.883 193.401 512.953 193.401 501.68C193.401 490.407 191.247 481.73 186.941 475.65C182.761 469.443 176.934 466.34 169.461 466.34C161.987 466.34 156.097 469.443 151.791 475.65C147.611 481.73 145.521 490.407 145.521 501.68C145.521 512.953 147.611 521.883 151.791 528.47C156.097 534.93 161.987 538.16 169.461 538.16ZM248.953 564V440.5H283.913L302.533 491.04C303.673 494.46 304.75 498.007 305.763 501.68C306.777 505.353 307.853 509.027 308.993 512.7H309.753C310.893 509.027 311.97 505.353 312.983 501.68C313.997 498.007 315.073 494.46 316.213 491.04L334.073 440.5H369.033V564H339.393V527.52C339.393 524.353 339.52 520.87 339.773 517.07C340.153 513.27 340.533 509.407 340.913 505.48C341.293 501.427 341.737 497.5 342.243 493.7C342.75 489.9 343.193 486.48 343.573 483.44H342.813L332.553 513.08L317.353 553.93H299.873L284.673 513.08L274.793 483.44H274.033C274.413 486.48 274.857 489.9 275.363 493.7C275.87 497.5 276.313 501.427 276.693 505.48C277.073 509.407 277.39 513.27 277.643 517.07C278.023 520.87 278.213 524.353 278.213 527.52V564H248.953ZM396.463 564V440.5H431.423L450.043 491.04C451.183 494.46 452.26 498.007 453.273 501.68C454.287 505.353 455.363 509.027 456.503 512.7H457.263C458.403 509.027 459.48 505.353 460.493 501.68C461.507 498.007 462.583 494.46 463.723 491.04L481.583 440.5H516.543V564H486.903V527.52C486.903 524.353 487.03 520.87 487.283 517.07C487.663 513.27 488.043 509.407 488.423 505.48C488.803 501.427 489.247 497.5 489.753 493.7C490.26 489.9 490.703 486.48 491.083 483.44H490.323L480.063 513.08L464.863 553.93H447.383L432.183 513.08L422.303 483.44H421.543C421.923 486.48 422.367 489.9 422.873 493.7C423.38 497.5 423.823 501.427 424.203 505.48C424.583 509.407 424.9 513.27 425.153 517.07C425.533 520.87 425.723 524.353 425.723 527.52V564H396.463ZM13.68 739V615.5H93.48V642.86H46.36V662.24H86.64V689.6H46.36V711.64H95.38V739H13.68ZM119.256 739V615.5H165.996C172.583 615.5 178.853 616.133 184.806 617.4C190.886 618.667 196.143 620.82 200.576 623.86C205.136 626.9 208.746 631.017 211.406 636.21C214.066 641.277 215.396 647.673 215.396 655.4C215.396 664.267 213.56 671.613 209.886 677.44C206.34 683.267 201.526 687.827 195.446 691.12L222.236 739H185.756L164.476 697.58H151.936V739H119.256ZM151.936 671.74H163.716C176.89 671.74 183.476 666.293 183.476 655.4C183.476 650.08 181.766 646.407 178.346 644.38C175.053 642.353 170.176 641.34 163.716 641.34H151.936V671.74ZM292.514 741.28C284.661 741.28 277.124 740.013 269.904 737.48C262.811 734.82 256.541 730.893 251.094 725.7C245.774 720.38 241.531 713.793 238.364 705.94C235.197 697.96 233.614 688.713 233.614 678.2C233.614 667.813 235.261 658.63 238.554 650.65C241.847 642.543 246.217 635.767 251.664 630.32C257.237 624.747 263.571 620.503 270.664 617.59C277.884 614.677 285.421 613.22 293.274 613.22C301.507 613.22 308.854 614.867 315.314 618.16C321.774 621.327 327.221 625.127 331.654 629.56L314.554 650.46C311.514 647.8 308.347 645.647 305.054 644C301.887 642.227 298.214 641.34 294.034 641.34C290.361 641.34 286.877 642.163 283.584 643.81C280.417 645.457 277.567 647.8 275.034 650.84C272.627 653.88 270.664 657.617 269.144 662.05C267.751 666.483 267.054 671.487 267.054 677.06C267.054 688.713 269.461 697.643 274.274 703.85C279.214 710.057 285.674 713.16 293.654 713.16C298.467 713.16 302.711 712.147 306.384 710.12C310.184 707.967 313.414 705.433 316.074 702.52L333.174 723.04C327.854 729.12 321.711 733.68 314.744 736.72C307.904 739.76 300.494 741.28 292.514 741.28ZM350.262 739V615.5H430.062V642.86H382.942V662.24H423.222V689.6H382.942V711.64H431.962V739H350.262Z" fill="black"/>
<path d="M782.04 231.631L773.49 229.541L773.49 252.341L782.04 250.251C787.993 248.731 794.453 247.211 801.42 245.691C808.387 244.171 814.973 242.651 821.18 241.131L821.18 240.371C814.847 238.978 808.197 237.521 801.23 236.001C794.39 234.608 787.993 233.151 782.04 231.631ZM722 184.131L845.5 221.751L845.5 261.271L722 298.891L722 264.311L748.22 258.231L748.22 223.651L722 217.571L722 184.131ZM722 310.668L845.5 310.668L845.5 347.148C845.5 356.522 844.36 365.072 842.08 372.798C839.8 380.652 836.19 387.365 831.25 392.938C826.31 398.512 819.977 402.818 812.25 405.858C804.523 409.025 795.213 410.608 784.32 410.608C773.427 410.608 764.053 409.088 756.2 406.048C748.347 403.008 741.887 398.702 736.82 393.128C731.753 387.682 728.017 381.158 725.61 373.558C723.203 366.085 722 357.915 722 349.048L722 310.668ZM748.22 343.348L748.22 345.248C748.22 349.682 748.727 353.862 749.74 357.788C750.88 361.715 752.78 365.072 755.44 367.858C758.1 370.772 761.773 373.052 766.46 374.698C771.147 376.345 777.1 377.168 784.32 377.168C791.54 377.168 797.43 376.345 801.99 374.698C806.55 373.052 810.097 370.772 812.63 367.858C815.163 365.072 816.873 361.715 817.76 357.788C818.773 353.862 819.28 349.682 819.28 345.248L819.28 343.348L748.22 343.348ZM722 451.617L845.5 415.137L845.5 449.717L791.54 462.637C784.953 464.41 778.43 465.93 771.97 467.197C765.637 468.464 759.113 469.984 752.4 471.757L752.4 472.517C759.113 474.29 765.637 475.81 771.97 477.077C778.43 478.47 784.953 479.99 791.54 481.637L845.5 494.177L845.5 527.617L722 491.137L722 451.617ZM722 539.448L845.5 539.448L845.5 619.248L818.14 619.248L818.14 572.128L798.76 572.128L798.76 612.408L771.4 612.408L771.4 572.128L749.36 572.128L749.36 621.148L722 621.148L722 539.448ZM722 645.024L845.5 645.024L845.5 678.464L790.4 705.824L762.66 717.604L762.66 718.364C765.953 717.984 769.563 717.54 773.49 717.034C777.417 716.527 781.407 716.084 785.46 715.704C789.64 715.324 793.757 714.944 797.81 714.564C801.99 714.31 805.98 714.184 809.78 714.184L845.5 714.184L845.5 745.344L722 745.344L722 711.904L777.29 684.544L804.84 672.764L804.84 672.004C797.747 672.764 790.02 673.65 781.66 674.664C773.3 675.677 765.32 676.184 757.72 676.184L722 676.184L722 645.024ZM547 251.845L643.14 251.845L643.14 219.165L670.5 219.165L670.5 317.205L643.14 317.205L643.14 284.525L547 284.525L547 251.845ZM607.04 359.844L598.49 357.754L598.49 380.554L607.04 378.464C612.993 376.944 619.453 375.424 626.42 373.904C633.387 372.384 639.973 370.864 646.18 369.344L646.18 368.584C639.847 367.191 633.197 365.734 626.23 364.214C619.39 362.821 612.993 361.364 607.04 359.844ZM547 312.344L670.5 349.964L670.5 389.484L547 427.104L547 392.524L573.22 386.444L573.22 351.864L547 345.784L547 312.344ZM544.72 494.026C544.72 485.412 545.987 477.306 548.52 469.706C551.18 462.106 555.107 455.456 560.3 449.756C565.62 444.182 572.207 439.749 580.06 436.456C588.04 433.289 597.287 431.706 607.8 431.706C618.187 431.706 627.37 433.352 635.35 436.646C643.457 439.939 650.233 444.372 655.68 449.946C661.253 455.646 665.497 462.232 668.41 469.706C671.323 477.179 672.78 485.032 672.78 493.266C672.78 502.386 671.133 510.239 667.84 516.826C664.673 523.539 660.873 529.112 656.44 533.546L635.54 516.446C638.2 513.406 640.353 510.176 642 506.756C643.773 503.462 644.66 499.346 644.66 494.406C644.66 490.226 643.837 486.362 642.19 482.816C640.543 479.269 638.2 476.166 635.16 473.506C632.12 470.846 628.383 468.756 623.95 467.236C619.517 465.842 614.513 465.146 608.94 465.146C597.287 465.146 588.357 467.742 582.15 472.936C575.943 478.129 572.84 486.299 572.84 497.446C572.84 499.219 573.03 500.929 573.41 502.576C573.79 504.349 574.36 505.806 575.12 506.946L592.22 506.946L592.22 488.706L618.82 488.706L618.82 535.826L559.92 535.826C555.74 531.392 552.13 525.502 549.09 518.156C546.177 510.809 544.72 502.766 544.72 494.026ZM547 559.858L670.5 559.858L670.5 639.658L643.14 639.658L643.14 592.538L623.76 592.538L623.76 632.818L596.4 632.818L596.4 592.538L574.36 592.538L574.36 641.558L547 641.558L547 559.858ZM544.72 704.574C544.72 696.721 546.113 688.614 548.9 680.254C551.813 672.021 556.31 664.547 562.39 657.834L584.81 676.454C581.263 680.887 578.35 685.637 576.07 690.704C573.917 695.897 572.84 700.774 572.84 705.334C572.84 710.274 573.6 713.821 575.12 715.974C576.64 718.254 578.793 719.394 581.58 719.394C583.1 719.394 584.367 719.014 585.38 718.254C586.393 717.494 587.343 716.354 588.23 714.834C589.117 713.441 589.94 711.731 590.7 709.704C591.587 707.677 592.537 705.334 593.55 702.674L600.01 687.284C601.277 683.991 602.923 680.824 604.95 677.784C607.103 674.744 609.573 672.084 612.36 669.804C615.273 667.524 618.567 665.687 622.24 664.294C625.913 663.027 629.967 662.394 634.4 662.394C639.72 662.394 644.66 663.534 649.22 665.814C653.907 668.094 657.96 671.261 661.38 675.314C664.927 679.367 667.713 684.181 669.74 689.754C671.767 695.454 672.78 701.661 672.78 708.374C672.78 715.467 671.45 722.624 668.79 729.844C666.13 737.191 661.95 743.714 656.25 749.414L635.73 733.074C638.643 728.894 640.86 724.841 642.38 720.914C643.9 717.114 644.66 712.934 644.66 708.374C644.66 704.321 643.963 701.154 642.57 698.874C641.177 696.594 639.087 695.454 636.3 695.454C633.387 695.454 631.107 697.037 629.46 700.204C627.94 703.497 626.103 707.994 623.95 713.694L618.06 728.704C615.02 736.431 610.777 742.384 605.33 746.564C599.883 750.744 592.853 752.834 584.24 752.834C579.047 752.834 574.043 751.757 569.23 749.604C564.417 747.451 560.173 744.284 556.5 740.104C552.953 736.051 550.103 731.047 547.95 725.094C545.797 719.141 544.72 712.301 544.72 704.574Z" fill="#3A3939"/>
<path d="M210.03 395L204.558 363.8H213.006L214.734 377.432C214.894 379.064 215.07 380.696 215.262 382.328C215.454 383.96 215.63 385.592 215.79 387.224H215.982C216.27 385.592 216.558 383.96 216.846 382.328C217.134 380.696 217.422 379.064 217.71 377.432L220.686 363.8H227.598L230.574 377.432C230.862 379 231.15 380.616 231.438 382.28C231.726 383.912 232.014 385.56 232.302 387.224H232.494C232.654 385.56 232.83 383.912 233.022 382.28C233.214 380.648 233.39 379.032 233.55 377.432L235.278 363.8H243.15L237.966 395H227.502L225.102 382.616C224.846 381.4 224.622 380.168 224.43 378.92C224.27 377.672 224.11 376.472 223.95 375.32H223.758C223.598 376.472 223.422 377.672 223.23 378.92C223.07 380.168 222.862 381.4 222.606 382.616L220.302 395H210.03ZM257.081 395.576C255.545 395.576 254.057 395.304 252.617 394.76C251.177 394.184 249.897 393.368 248.777 392.312C247.689 391.224 246.809 389.896 246.137 388.328C245.497 386.76 245.177 384.984 245.177 383C245.177 381.016 245.497 379.24 246.137 377.672C246.809 376.104 247.689 374.792 248.777 373.736C249.897 372.648 251.177 371.832 252.617 371.288C254.057 370.712 255.545 370.424 257.081 370.424C258.617 370.424 260.089 370.712 261.497 371.288C262.937 371.832 264.201 372.648 265.289 373.736C266.409 374.792 267.305 376.104 267.977 377.672C268.649 379.24 268.985 381.016 268.985 383C268.985 384.984 268.649 386.76 267.977 388.328C267.305 389.896 266.409 391.224 265.289 392.312C264.201 393.368 262.937 394.184 261.497 394.76C260.089 395.304 258.617 395.576 257.081 395.576ZM257.081 388.952C258.329 388.952 259.209 388.424 259.721 387.368C260.265 386.28 260.537 384.824 260.537 383C260.537 381.176 260.265 379.736 259.721 378.68C259.209 377.592 258.329 377.048 257.081 377.048C255.833 377.048 254.937 377.592 254.393 378.68C253.881 379.736 253.625 381.176 253.625 383C253.625 384.824 253.881 386.28 254.393 387.368C254.937 388.424 255.833 388.952 257.081 388.952ZM283.94 395.576C282.404 395.576 280.916 395.304 279.476 394.76C278.036 394.184 276.756 393.368 275.636 392.312C274.548 391.224 273.668 389.896 272.996 388.328C272.356 386.76 272.036 384.984 272.036 383C272.036 381.016 272.356 379.24 272.996 377.672C273.668 376.104 274.548 374.792 275.636 373.736C276.756 372.648 278.036 371.832 279.476 371.288C280.916 370.712 282.404 370.424 283.94 370.424C285.476 370.424 286.948 370.712 288.356 371.288C289.796 371.832 291.06 372.648 292.148 373.736C293.268 374.792 294.164 376.104 294.836 377.672C295.508 379.24 295.844 381.016 295.844 383C295.844 384.984 295.508 386.76 294.836 388.328C294.164 389.896 293.268 391.224 292.148 392.312C291.06 393.368 289.796 394.184 288.356 394.76C286.948 395.304 285.476 395.576 283.94 395.576ZM283.94 388.952C285.188 388.952 286.068 388.424 286.58 387.368C287.124 386.28 287.396 384.824 287.396 383C287.396 381.176 287.124 379.736 286.58 378.68C286.068 377.592 285.188 377.048 283.94 377.048C282.692 377.048 281.796 377.592 281.252 378.68C280.74 379.736 280.484 381.176 280.484 383C280.484 384.824 280.74 386.28 281.252 387.368C281.796 388.424 282.692 388.952 283.94 388.952ZM314.351 395.576C312.367 395.576 310.463 395.256 308.639 394.616C306.847 393.944 305.263 392.952 303.887 391.64C302.543 390.296 301.471 388.632 300.671 386.648C299.871 384.632 299.471 382.296 299.471 379.64C299.471 377.016 299.887 374.696 300.719 372.68C301.551 370.632 302.655 368.92 304.031 367.544C305.439 366.136 307.039 365.064 308.831 364.328C310.655 363.592 312.559 363.224 314.543 363.224C316.623 363.224 318.479 363.64 320.111 364.472C321.743 365.272 323.119 366.232 324.239 367.352L319.919 372.632C319.151 371.96 318.351 371.416 317.519 371C316.719 370.552 315.791 370.328 314.735 370.328C313.807 370.328 312.927 370.536 312.095 370.952C311.295 371.368 310.575 371.96 309.935 372.728C309.327 373.496 308.831 374.44 308.447 375.56C308.095 376.68 307.919 377.944 307.919 379.352C307.919 382.296 308.527 384.552 309.743 386.12C310.991 387.688 312.623 388.472 314.639 388.472C315.855 388.472 316.927 388.216 317.855 387.704C318.815 387.16 319.631 386.52 320.303 385.784L324.623 390.968C323.279 392.504 321.727 393.656 319.967 394.424C318.239 395.192 316.367 395.576 314.351 395.576ZM338.924 395.576C337.388 395.576 335.9 395.304 334.46 394.76C333.02 394.184 331.74 393.368 330.62 392.312C329.532 391.224 328.652 389.896 327.98 388.328C327.34 386.76 327.02 384.984 327.02 383C327.02 381.016 327.34 379.24 327.98 377.672C328.652 376.104 329.532 374.792 330.62 373.736C331.74 372.648 333.02 371.832 334.46 371.288C335.9 370.712 337.388 370.424 338.924 370.424C340.46 370.424 341.932 370.712 343.34 371.288C344.78 371.832 346.044 372.648 347.132 373.736C348.252 374.792 349.148 376.104 349.82 377.672C350.492 379.24 350.828 381.016 350.828 383C350.828 384.984 350.492 386.76 349.82 388.328C349.148 389.896 348.252 391.224 347.132 392.312C346.044 393.368 344.78 394.184 343.34 394.76C341.932 395.304 340.46 395.576 338.924 395.576ZM338.924 388.952C340.172 388.952 341.052 388.424 341.564 387.368C342.108 386.28 342.38 384.824 342.38 383C342.38 381.176 342.108 379.736 341.564 378.68C341.052 377.592 340.172 377.048 338.924 377.048C337.676 377.048 336.78 377.592 336.236 378.68C335.724 379.736 335.468 381.176 335.468 383C335.468 384.824 335.724 386.28 336.236 387.368C336.78 388.424 337.676 388.952 338.924 388.952ZM355.128 395V371H361.848L362.424 373.928H362.616C363.576 373 364.6 372.184 365.688 371.48C366.808 370.776 368.184 370.424 369.816 370.424C371.448 370.424 372.792 370.76 373.848 371.432C374.936 372.072 375.8 373.016 376.44 374.264C377.432 373.24 378.504 372.344 379.656 371.576C380.808 370.808 382.2 370.424 383.832 370.424C386.456 370.424 388.376 371.32 389.592 373.112C390.808 374.872 391.416 377.24 391.416 380.216V395H383.16V381.272C383.16 379.736 382.968 378.712 382.584 378.2C382.2 377.688 381.592 377.432 380.76 377.432C379.736 377.432 378.616 378.04 377.4 379.256V395H369.144V381.272C369.144 379.736 368.952 378.712 368.568 378.2C368.184 377.688 367.576 377.432 366.744 377.432C365.72 377.432 364.6 378.04 363.384 379.256V395H355.128ZM396.8 395V371H403.52L404.096 373.928H404.288C405.248 373 406.272 372.184 407.36 371.48C408.48 370.776 409.856 370.424 411.488 370.424C413.12 370.424 414.464 370.76 415.52 371.432C416.608 372.072 417.472 373.016 418.112 374.264C419.104 373.24 420.176 372.344 421.328 371.576C422.48 370.808 423.872 370.424 425.504 370.424C428.128 370.424 430.048 371.32 431.264 373.112C432.48 374.872 433.088 377.24 433.088 380.216V395H424.832V381.272C424.832 379.736 424.64 378.712 424.256 378.2C423.872 377.688 423.264 377.432 422.432 377.432C421.408 377.432 420.288 378.04 419.072 379.256V395H410.816V381.272C410.816 379.736 410.624 378.712 410.24 378.2C409.856 377.688 409.248 377.432 408.416 377.432C407.392 377.432 406.272 378.04 405.056 379.256V395H396.8ZM449.608 395.576C447.848 395.576 446.216 395.304 444.712 394.76C443.208 394.184 441.896 393.368 440.776 392.312C439.688 391.224 438.824 389.896 438.184 388.328C437.544 386.76 437.224 384.984 437.224 383C437.224 381.048 437.544 379.304 438.184 377.768C438.856 376.2 439.72 374.872 440.776 373.784C441.864 372.696 443.096 371.864 444.472 371.288C445.848 370.712 447.272 370.424 448.744 370.424C450.504 370.424 452.04 370.728 453.352 371.336C454.664 371.944 455.752 372.776 456.616 373.832C457.48 374.888 458.12 376.12 458.536 377.528C458.984 378.936 459.208 380.44 459.208 382.04C459.208 382.776 459.16 383.464 459.064 384.104C459 384.744 458.936 385.208 458.872 385.496H445.192C445.576 386.936 446.264 387.944 447.256 388.52C448.248 389.064 449.416 389.336 450.76 389.336C451.592 389.336 452.392 389.224 453.16 389C453.96 388.744 454.792 388.376 455.656 387.896L458.344 392.792C457.032 393.72 455.576 394.424 453.976 394.904C452.408 395.352 450.952 395.576 449.608 395.576ZM445.096 380.12H452.2C452.2 379.192 451.96 378.392 451.48 377.72C451.032 377.016 450.184 376.664 448.936 376.664C448.008 376.664 447.192 376.936 446.488 377.48C445.816 378.024 445.352 378.904 445.096 380.12ZM463.737 395V371H470.457L471.033 375.128H471.225C472.121 373.496 473.177 372.312 474.393 371.576C475.641 370.808 476.857 370.424 478.041 370.424C478.777 370.424 479.369 370.472 479.817 370.568C480.265 370.632 480.665 370.744 481.017 370.904L479.673 378.008C479.225 377.912 478.793 377.832 478.377 377.768C477.993 377.672 477.529 377.624 476.985 377.624C476.121 377.624 475.209 377.928 474.249 378.536C473.321 379.112 472.569 380.152 471.993 381.656V395H463.737ZM494.179 395.576C492.483 395.576 490.899 395.304 489.427 394.76C487.955 394.184 486.675 393.368 485.587 392.312C484.499 391.224 483.635 389.896 482.995 388.328C482.387 386.76 482.083 384.984 482.083 383C482.083 381.016 482.435 379.24 483.139 377.672C483.843 376.104 484.787 374.792 485.971 373.736C487.155 372.648 488.515 371.832 490.051 371.288C491.619 370.712 493.251 370.424 494.947 370.424C496.387 370.424 497.683 370.648 498.835 371.096C499.987 371.544 501.027 372.152 501.955 372.92L498.115 378.2C497.571 377.752 497.091 377.448 496.675 377.288C496.291 377.128 495.875 377.048 495.427 377.048C493.891 377.048 492.691 377.592 491.827 378.68C490.963 379.736 490.531 381.176 490.531 383C490.531 384.824 490.963 386.28 491.827 387.368C492.723 388.424 493.827 388.952 495.139 388.952C495.811 388.952 496.467 388.808 497.107 388.52C497.779 388.232 498.403 387.864 498.979 387.416L502.147 392.792C500.931 393.848 499.603 394.584 498.163 395C496.755 395.384 495.427 395.576 494.179 395.576ZM515.654 395.576C513.894 395.576 512.262 395.304 510.758 394.76C509.254 394.184 507.942 393.368 506.822 392.312C505.734 391.224 504.87 389.896 504.23 388.328C503.59 386.76 503.27 384.984 503.27 383C503.27 381.048 503.59 379.304 504.23 377.768C504.902 376.2 505.766 374.872 506.822 373.784C507.91 372.696 509.142 371.864 510.518 371.288C511.894 370.712 513.318 370.424 514.79 370.424C516.55 370.424 518.086 370.728 519.398 371.336C520.71 371.944 521.798 372.776 522.662 373.832C523.526 374.888 524.166 376.12 524.582 377.528C525.03 378.936 525.254 380.44 525.254 382.04C525.254 382.776 525.206 383.464 525.11 384.104C525.046 384.744 524.982 385.208 524.918 385.496H511.238C511.622 386.936 512.31 387.944 513.302 388.52C514.294 389.064 515.462 389.336 516.806 389.336C517.638 389.336 518.438 389.224 519.206 389C520.006 388.744 520.838 388.376 521.702 387.896L524.39 392.792C523.078 393.72 521.622 394.424 520.022 394.904C518.454 395.352 516.998 395.576 515.654 395.576ZM511.142 380.12H518.246C518.246 379.192 518.006 378.392 517.526 377.72C517.078 377.016 516.23 376.664 514.982 376.664C514.054 376.664 513.238 376.936 512.534 377.48C511.862 378.024 511.398 378.904 511.142 380.12Z" fill="black"/>
<path d="M351.668 295V263.8H359.924V295H351.668ZM368.343 295V271H375.063L375.639 273.88H375.831C376.791 272.952 377.879 272.152 379.095 271.48C380.343 270.776 381.783 270.424 383.415 270.424C386.039 270.424 387.943 271.32 389.127 273.112C390.311 274.872 390.903 277.24 390.903 280.216V295H382.647V281.272C382.647 279.736 382.455 278.712 382.071 278.2C381.687 277.688 381.079 277.432 380.247 277.432C379.479 277.432 378.839 277.592 378.327 277.912C377.815 278.232 377.239 278.68 376.599 279.256V295H368.343ZM405.833 295.576C404.297 295.576 402.665 295.272 400.937 294.664C399.241 294.056 397.769 293.24 396.521 292.216L400.169 287.128C402.345 288.728 404.297 289.528 406.025 289.528C406.889 289.528 407.497 289.416 407.849 289.192C408.233 288.936 408.425 288.568 408.425 288.088C408.425 287.768 408.297 287.496 408.041 287.272C407.785 287.016 407.433 286.792 406.985 286.6C406.569 286.376 406.089 286.168 405.545 285.976C405.001 285.784 404.425 285.56 403.817 285.304C403.113 285.016 402.393 284.68 401.657 284.296C400.953 283.88 400.313 283.384 399.737 282.808C399.161 282.232 398.681 281.576 398.297 280.84C397.945 280.072 397.769 279.192 397.769 278.2C397.769 277.016 397.993 275.944 398.441 274.984C398.921 274.024 399.577 273.208 400.409 272.536C401.241 271.864 402.233 271.352 403.385 271C404.569 270.616 405.865 270.424 407.273 270.424C409.257 270.424 410.953 270.76 412.361 271.432C413.801 272.072 415.049 272.792 416.105 273.592L412.457 278.488C411.593 277.848 410.745 277.352 409.913 277C409.081 276.648 408.297 276.472 407.561 276.472C406.153 276.472 405.449 276.92 405.449 277.816C405.449 278.136 405.561 278.408 405.785 278.632C406.041 278.856 406.377 279.064 406.793 279.256C407.209 279.448 407.689 279.64 408.233 279.832C408.777 279.992 409.353 280.184 409.961 280.408C410.665 280.664 411.385 280.984 412.121 281.368C412.857 281.752 413.513 282.232 414.089 282.808C414.697 283.352 415.177 284.024 415.529 284.824C415.913 285.592 416.105 286.52 416.105 287.608C416.105 288.728 415.881 289.784 415.433 290.776C414.985 291.736 414.329 292.584 413.465 293.32C412.601 294.024 411.529 294.584 410.249 295C408.969 295.384 407.497 295.576 405.833 295.576ZM428.544 295.576C427.424 295.576 426.416 295.384 425.52 295C424.624 294.584 423.856 294.04 423.216 293.368C422.608 292.696 422.144 291.912 421.824 291.016C421.504 290.12 421.344 289.176 421.344 288.184C421.344 285.688 422.368 283.736 424.416 282.328C426.464 280.888 429.792 279.928 434.4 279.448C434.208 277.784 433.088 276.952 431.04 276.952C430.176 276.952 429.264 277.128 428.304 277.48C427.344 277.8 426.24 278.296 424.992 278.968L422.112 273.592C423.808 272.568 425.52 271.784 427.248 271.24C428.976 270.696 430.784 270.424 432.672 270.424C435.776 270.424 438.208 271.32 439.968 273.112C441.76 274.872 442.656 277.72 442.656 281.656V295H435.936L435.36 292.696H435.168C434.208 293.56 433.184 294.264 432.096 294.808C431.04 295.32 429.856 295.576 428.544 295.576ZM431.424 289.24C432.096 289.24 432.64 289.096 433.056 288.808C433.504 288.488 433.952 288.088 434.4 287.608V284.344C432.416 284.632 431.056 285.064 430.32 285.64C429.584 286.216 429.216 286.84 429.216 287.512C429.216 288.664 429.952 289.24 431.424 289.24ZM457.59 295.576C456.182 295.576 454.998 295.368 454.038 294.952C453.11 294.504 452.358 293.88 451.782 293.08C451.206 292.28 450.79 291.336 450.534 290.248C450.31 289.128 450.198 287.896 450.198 286.552V261.592H458.454V286.84C458.454 287.672 458.598 288.232 458.886 288.52C459.206 288.808 459.51 288.952 459.798 288.952C459.958 288.952 460.086 288.952 460.182 288.952C460.31 288.952 460.47 288.92 460.662 288.856L461.622 294.904C461.174 295.096 460.614 295.256 459.942 295.384C459.302 295.512 458.518 295.576 457.59 295.576ZM477.791 295.576C476.031 295.576 474.399 295.304 472.895 294.76C471.391 294.184 470.079 293.368 468.959 292.312C467.871 291.224 467.007 289.896 466.367 288.328C465.727 286.76 465.407 284.984 465.407 283C465.407 281.048 465.727 279.304 466.367 277.768C467.039 276.2 467.903 274.872 468.959 273.784C470.047 272.696 471.279 271.864 472.655 271.288C474.031 270.712 475.455 270.424 476.927 270.424C478.687 270.424 480.223 270.728 481.535 271.336C482.847 271.944 483.935 272.776 484.799 273.832C485.663 274.888 486.303 276.12 486.719 277.528C487.167 278.936 487.391 280.44 487.391 282.04C487.391 282.776 487.343 283.464 487.247 284.104C487.183 284.744 487.119 285.208 487.055 285.496H473.375C473.759 286.936 474.447 287.944 475.439 288.52C476.431 289.064 477.599 289.336 478.943 289.336C479.775 289.336 480.575 289.224 481.343 289C482.143 288.744 482.975 288.376 483.839 287.896L486.527 292.792C485.215 293.72 483.759 294.424 482.159 294.904C480.591 295.352 479.135 295.576 477.791 295.576ZM473.279 280.12H480.383C480.383 279.192 480.143 278.392 479.663 277.72C479.215 277.016 478.367 276.664 477.119 276.664C476.191 276.664 475.375 276.936 474.671 277.48C473.999 278.024 473.535 278.904 473.279 280.12ZM501.473 295.576C499.937 295.576 498.305 295.272 496.577 294.664C494.881 294.056 493.409 293.24 492.161 292.216L495.809 287.128C497.985 288.728 499.937 289.528 501.665 289.528C502.529 289.528 503.137 289.416 503.489 289.192C503.873 288.936 504.065 288.568 504.065 288.088C504.065 287.768 503.937 287.496 503.681 287.272C503.425 287.016 503.073 286.792 502.625 286.6C502.209 286.376 501.729 286.168 501.185 285.976C500.641 285.784 500.065 285.56 499.457 285.304C498.753 285.016 498.033 284.68 497.297 284.296C496.593 283.88 495.953 283.384 495.377 282.808C494.801 282.232 494.321 281.576 493.937 280.84C493.585 280.072 493.409 279.192 493.409 278.2C493.409 277.016 493.633 275.944 494.081 274.984C494.561 274.024 495.217 273.208 496.049 272.536C496.881 271.864 497.873 271.352 499.025 271C500.209 270.616 501.505 270.424 502.913 270.424C504.897 270.424 506.593 270.76 508.001 271.432C509.441 272.072 510.689 272.792 511.745 273.592L508.097 278.488C507.233 277.848 506.385 277.352 505.553 277C504.721 276.648 503.937 276.472 503.201 276.472C501.793 276.472 501.089 276.92 501.089 277.816C501.089 278.136 501.201 278.408 501.425 278.632C501.681 278.856 502.017 279.064 502.433 279.256C502.849 279.448 503.329 279.64 503.873 279.832C504.417 279.992 504.993 280.184 505.601 280.408C506.305 280.664 507.025 280.984 507.761 281.368C508.497 281.752 509.153 282.232 509.729 282.808C510.337 283.352 510.817 284.024 511.169 284.824C511.553 285.592 511.745 286.52 511.745 287.608C511.745 288.728 511.521 289.784 511.073 290.776C510.625 291.736 509.969 292.584 509.105 293.32C508.241 294.024 507.169 294.584 505.889 295C504.609 295.384 503.137 295.576 501.473 295.576Z" fill="black"/>
<path d="M335.086 350.72C332.606 350.72 330.046 350.28 327.406 349.4C324.806 348.48 322.446 347.06 320.326 345.14L326.206 338.06C327.606 339.18 329.106 340.1 330.706 340.82C332.346 341.5 333.886 341.84 335.326 341.84C336.886 341.84 338.006 341.6 338.686 341.12C339.406 340.64 339.766 339.96 339.766 339.08C339.766 338.6 339.646 338.2 339.406 337.88C339.166 337.56 338.806 337.26 338.326 336.98C337.886 336.7 337.346 336.44 336.706 336.2C336.066 335.92 335.326 335.62 334.486 335.3L329.626 333.26C328.586 332.86 327.586 332.34 326.626 331.7C325.666 331.02 324.826 330.24 324.106 329.36C323.386 328.44 322.806 327.4 322.366 326.24C321.966 325.08 321.766 323.8 321.766 322.4C321.766 320.72 322.126 319.16 322.846 317.72C323.566 316.24 324.566 314.96 325.846 313.88C327.126 312.76 328.646 311.88 330.406 311.24C332.206 310.6 334.166 310.28 336.286 310.28C338.526 310.28 340.786 310.7 343.066 311.54C345.386 312.38 347.446 313.7 349.246 315.5L344.086 321.98C342.766 321.06 341.486 320.36 340.246 319.88C339.046 319.4 337.726 319.16 336.286 319.16C335.006 319.16 334.006 319.38 333.286 319.82C332.566 320.26 332.206 320.92 332.206 321.8C332.206 322.72 332.706 323.44 333.706 323.96C334.746 324.44 336.166 325.02 337.966 325.7L342.706 327.56C345.146 328.52 347.026 329.86 348.346 331.58C349.666 333.3 350.326 335.52 350.326 338.24C350.326 339.88 349.986 341.46 349.306 342.98C348.626 344.5 347.626 345.84 346.306 347C345.026 348.12 343.446 349.02 341.566 349.7C339.686 350.38 337.526 350.72 335.086 350.72ZM355.753 350V308.24H366.073V317.96L365.593 323.12C366.633 322.2 367.873 321.34 369.313 320.54C370.793 319.7 372.553 319.28 374.593 319.28C377.873 319.28 380.253 320.4 381.733 322.64C383.213 324.84 383.953 327.8 383.953 331.52V350H373.633V332.84C373.633 330.92 373.393 329.64 372.913 329C372.433 328.36 371.673 328.04 370.633 328.04C369.673 328.04 368.873 328.24 368.233 328.64C367.593 329.04 366.873 329.6 366.073 330.32V350H355.753ZM403.995 350.72C402.075 350.72 400.215 350.38 398.415 349.7C396.615 348.98 395.015 347.96 393.615 346.64C392.255 345.28 391.155 343.62 390.315 341.66C389.515 339.7 389.115 337.48 389.115 335C389.115 332.52 389.515 330.3 390.315 328.34C391.155 326.38 392.255 324.74 393.615 323.42C395.015 322.06 396.615 321.04 398.415 320.36C400.215 319.64 402.075 319.28 403.995 319.28C405.915 319.28 407.755 319.64 409.515 320.36C411.315 321.04 412.895 322.06 414.255 323.42C415.655 324.74 416.775 326.38 417.615 328.34C418.455 330.3 418.875 332.52 418.875 335C418.875 337.48 418.455 339.7 417.615 341.66C416.775 343.62 415.655 345.28 414.255 346.64C412.895 347.96 411.315 348.98 409.515 349.7C407.755 350.38 405.915 350.72 403.995 350.72ZM403.995 342.44C405.555 342.44 406.655 341.78 407.295 340.46C407.975 339.1 408.315 337.28 408.315 335C408.315 332.72 407.975 330.92 407.295 329.6C406.655 328.24 405.555 327.56 403.995 327.56C402.435 327.56 401.315 328.24 400.635 329.6C399.995 330.92 399.675 332.72 399.675 335C399.675 337.28 399.995 339.1 400.635 340.46C401.315 341.78 402.435 342.44 403.995 342.44ZM424.25 360.56V320H432.65L433.37 322.76H433.61C434.73 321.72 435.99 320.88 437.39 320.24C438.79 319.6 440.25 319.28 441.77 319.28C443.53 319.28 445.13 319.64 446.57 320.36C448.01 321.08 449.23 322.1 450.23 323.42C451.27 324.74 452.05 326.34 452.57 328.22C453.13 330.1 453.41 332.2 453.41 334.52C453.41 337.12 453.05 339.42 452.33 341.42C451.65 343.42 450.73 345.12 449.57 346.52C448.41 347.88 447.07 348.92 445.55 349.64C444.07 350.36 442.53 350.72 440.93 350.72C438.45 350.72 436.21 349.72 434.21 347.72L434.57 352.28V360.56H424.25ZM438.41 342.32C439.61 342.32 440.65 341.76 441.53 340.64C442.41 339.52 442.85 337.52 442.85 334.64C442.85 332.16 442.49 330.38 441.77 329.3C441.09 328.22 440.05 327.68 438.65 327.68C437.85 327.68 437.13 327.84 436.49 328.16C435.89 328.48 435.25 329.04 434.57 329.84V340.88C435.17 341.44 435.79 341.82 436.43 342.02C437.07 342.22 437.73 342.32 438.41 342.32ZM459.054 350V320H469.374V350H459.054ZM464.214 316.28C462.534 316.28 461.154 315.8 460.074 314.84C458.994 313.88 458.454 312.64 458.454 311.12C458.454 309.6 458.994 308.36 460.074 307.4C461.154 306.44 462.534 305.96 464.214 305.96C465.894 305.96 467.274 306.44 468.354 307.4C469.434 308.36 469.974 309.6 469.974 311.12C469.974 312.64 469.434 313.88 468.354 314.84C467.274 315.8 465.894 316.28 464.214 316.28ZM478.139 350V328.04H474.179V320.36L478.139 320.06V319.64C478.139 318.04 478.339 316.52 478.739 315.08C479.139 313.6 479.799 312.3 480.719 311.18C481.679 310.06 482.899 309.18 484.379 308.54C485.899 307.86 487.779 307.52 490.019 307.52C491.419 307.52 492.659 307.64 493.739 307.88C494.819 308.12 495.699 308.36 496.379 308.6L494.579 316.16C494.099 315.96 493.599 315.82 493.079 315.74C492.559 315.62 492.059 315.56 491.579 315.56C490.619 315.56 489.859 315.84 489.299 316.4C488.739 316.92 488.459 317.88 488.459 319.28V320H493.499V328.04H488.459V350H478.139ZM502.4 361.28C501.36 361.28 500.5 361.22 499.82 361.1C499.18 361.02 498.52 360.88 497.84 360.68L499.64 352.88C499.92 352.96 500.22 353.04 500.54 353.12C500.9 353.2 501.24 353.24 501.56 353.24C502.96 353.24 504 352.96 504.68 352.4C505.4 351.88 505.92 351.16 506.24 350.24L506.6 348.92L495.2 320H505.52L509.12 331.52C509.56 332.92 509.94 334.32 510.26 335.72C510.58 337.08 510.92 338.52 511.28 340.04H511.52C511.84 338.6 512.14 337.18 512.42 335.78C512.74 334.38 513.08 332.96 513.44 331.52L516.44 320H526.28L516.2 349.52C515.4 351.56 514.58 353.32 513.74 354.8C512.94 356.28 512 357.5 510.92 358.46C509.84 359.42 508.6 360.12 507.2 360.56C505.84 361.04 504.24 361.28 502.4 361.28Z" fill="black"/>
<path d="M474.232 606.802C474.232 604.925 474.872 603.389 476.152 602.194C477.432 601 479.011 600.402 480.888 600.402C482.765 600.402 484.344 601 485.624 602.194C486.904 603.389 487.544 604.925 487.544 606.802C487.544 608.68 486.904 610.216 485.624 611.41C484.344 612.605 482.765 613.202 480.888 613.202C479.011 613.202 477.432 612.605 476.152 611.41C474.872 610.216 474.232 608.68 474.232 606.802ZM474.232 639.718C474.232 637.073 474.659 634.534 475.512 632.102C476.408 629.713 477.731 627.601 479.48 625.766C481.272 623.974 483.491 622.545 486.136 621.478C488.824 620.412 491.939 619.878 495.48 619.878C498.979 619.878 502.072 620.433 504.76 621.542C507.491 622.652 509.773 624.124 511.608 625.959C513.485 627.836 514.915 629.969 515.896 632.358C516.877 634.79 517.368 637.329 517.368 639.975C517.368 642.748 516.813 645.223 515.704 647.399C514.637 649.575 513.357 651.409 511.864 652.902L504.824 647.143C505.72 646.119 506.445 645.052 507 643.943C507.597 642.876 507.896 641.639 507.896 640.231C507.896 638.993 507.619 637.82 507.064 636.71C506.509 635.644 505.72 634.684 504.696 633.831C503.672 633.02 502.413 632.358 500.92 631.846C499.427 631.377 497.741 631.142 495.864 631.142C491.939 631.142 488.931 631.953 486.84 633.574C484.749 635.238 483.704 637.414 483.704 640.102C483.704 641.724 484.045 643.153 484.728 644.39C485.453 645.67 486.307 646.758 487.288 647.654L480.376 653.414C478.328 651.622 476.792 649.553 475.768 647.206C474.744 644.902 474.232 642.406 474.232 639.718ZM474.232 674.144C474.232 671.243 474.723 668.597 475.704 666.208C476.685 663.861 478.093 661.835 479.928 660.128C481.805 658.464 484.088 657.163 486.776 656.224C489.507 655.285 492.579 654.816 495.992 654.816C499.405 654.816 502.435 655.285 505.08 656.224C507.768 657.163 510.008 658.464 511.8 660.128C513.635 661.835 515.021 663.861 515.96 666.208C516.899 668.597 517.368 671.243 517.368 674.144C517.368 677.003 516.899 679.627 515.96 682.016C515.021 684.405 513.635 686.432 511.8 688.096C509.965 689.803 507.725 691.125 505.08 692.064C502.435 693.003 499.405 693.472 495.992 693.472C492.579 693.472 489.507 693.003 486.776 692.064C484.088 691.125 481.805 689.803 479.928 688.096C478.093 686.432 476.685 684.405 475.704 682.016C474.723 679.627 474.232 677.003 474.232 674.144ZM483.704 674.144C483.704 676.661 484.792 678.624 486.968 680.032C489.187 681.483 492.195 682.208 495.992 682.208C499.789 682.208 502.712 681.483 504.76 680.032C506.851 678.624 507.896 676.661 507.896 674.144C507.896 671.627 506.851 669.643 504.76 668.192C502.712 666.784 499.789 666.08 495.992 666.08C492.195 666.08 489.187 666.784 486.968 668.192C484.792 669.643 483.704 671.627 483.704 674.144ZM475 700.92L516.6 700.92L516.6 712.697L499.576 718.968C498.424 719.352 497.229 719.715 495.992 720.057C494.755 720.398 493.517 720.76 492.28 721.144L492.28 721.4C493.517 721.784 494.755 722.147 495.992 722.488C497.229 722.83 498.424 723.193 499.576 723.577L516.6 729.593L516.6 741.369L475 741.369L475 731.385L487.288 731.385C488.355 731.385 489.528 731.427 490.808 731.512C492.088 731.641 493.389 731.769 494.712 731.897C496.077 732.025 497.4 732.174 498.68 732.345C499.96 732.515 501.112 732.665 502.136 732.793L502.136 732.537L492.152 729.081L478.392 723.96L478.392 718.072L492.152 712.952L502.136 709.624L502.136 709.368C501.112 709.496 499.96 709.646 498.68 709.816C497.4 709.987 496.077 710.136 494.712 710.264C493.389 710.392 492.088 710.499 490.808 710.584C489.528 710.712 488.355 710.776 487.288 710.776L475 710.776L475 700.92Z" fill="black"/>
<path d="M220.608 297.576C218.432 297.576 216.448 297.208 214.656 296.472C212.896 295.736 211.376 294.68 210.096 293.304C208.848 291.896 207.872 290.184 207.168 288.168C206.464 286.12 206.112 283.816 206.112 281.256C206.112 278.696 206.464 276.424 207.168 274.44C207.872 272.424 208.848 270.744 210.096 269.4C211.376 268.024 212.896 266.984 214.656 266.28C216.448 265.576 218.432 265.224 220.608 265.224C222.752 265.224 224.72 265.576 226.512 266.28C228.304 266.984 229.824 268.024 231.072 269.4C232.352 270.776 233.344 272.456 234.048 274.44C234.752 276.424 235.104 278.696 235.104 281.256C235.104 283.816 234.752 286.12 234.048 288.168C233.344 290.184 232.352 291.896 231.072 293.304C229.824 294.68 228.304 295.736 226.512 296.472C224.72 297.208 222.752 297.576 220.608 297.576ZM220.608 290.472C222.496 290.472 223.968 289.656 225.024 288.024C226.112 286.36 226.656 284.104 226.656 281.256C226.656 278.408 226.112 276.216 225.024 274.68C223.968 273.112 222.496 272.328 220.608 272.328C218.72 272.328 217.232 273.112 216.144 274.68C215.088 276.216 214.56 278.408 214.56 281.256C214.56 284.104 215.088 286.36 216.144 288.024C217.232 289.656 218.72 290.472 220.608 290.472ZM242.898 305.448V273H249.618L250.194 275.208H250.386C251.282 274.376 252.29 273.704 253.41 273.192C254.53 272.68 255.698 272.424 256.914 272.424C258.322 272.424 259.602 272.712 260.754 273.288C261.906 273.864 262.882 274.68 263.682 275.736C264.514 276.792 265.138 278.072 265.554 279.576C266.002 281.08 266.226 282.76 266.226 284.616C266.226 286.696 265.938 288.536 265.362 290.136C264.818 291.736 264.082 293.096 263.154 294.216C262.226 295.304 261.154 296.136 259.938 296.712C258.754 297.288 257.522 297.576 256.242 297.576C254.258 297.576 252.466 296.776 250.866 295.176L251.154 298.824V305.448H242.898ZM254.226 290.856C255.186 290.856 256.018 290.408 256.722 289.512C257.426 288.616 257.778 287.016 257.778 284.712C257.778 282.728 257.49 281.304 256.914 280.44C256.37 279.576 255.538 279.144 254.418 279.144C253.778 279.144 253.202 279.272 252.69 279.528C252.21 279.784 251.698 280.232 251.154 280.872V289.704C251.634 290.152 252.13 290.456 252.642 290.616C253.154 290.776 253.682 290.856 254.226 290.856ZM284.758 297.576C282.998 297.576 281.366 297.304 279.862 296.76C278.358 296.184 277.046 295.368 275.926 294.312C274.838 293.224 273.974 291.896 273.334 290.328C272.694 288.76 272.374 286.984 272.374 285C272.374 283.048 272.694 281.304 273.334 279.768C274.006 278.2 274.87 276.872 275.926 275.784C277.014 274.696 278.246 273.864 279.622 273.288C280.998 272.712 282.422 272.424 283.894 272.424C285.654 272.424 287.19 272.728 288.502 273.336C289.814 273.944 290.902 274.776 291.766 275.832C292.63 276.888 293.27 278.12 293.686 279.528C294.134 280.936 294.358 282.44 294.358 284.04C294.358 284.776 294.31 285.464 294.214 286.104C294.15 286.744 294.086 287.208 294.022 287.496H280.342C280.726 288.936 281.414 289.944 282.406 290.52C283.398 291.064 284.566 291.336 285.91 291.336C286.742 291.336 287.542 291.224 288.31 291C289.11 290.744 289.942 290.376 290.806 289.896L293.494 294.792C292.182 295.72 290.726 296.424 289.126 296.904C287.558 297.352 286.102 297.576 284.758 297.576ZM280.246 282.12H287.35C287.35 281.192 287.11 280.392 286.63 279.72C286.182 279.016 285.334 278.664 284.086 278.664C283.158 278.664 282.342 278.936 281.638 279.48C280.966 280.024 280.502 280.904 280.246 282.12ZM301.768 297V273H308.488L309.064 275.88H309.256C310.216 274.952 311.304 274.152 312.52 273.48C313.768 272.776 315.208 272.424 316.84 272.424C319.464 272.424 321.368 273.32 322.552 275.112C323.736 276.872 324.328 279.24 324.328 282.216V297H316.072V283.272C316.072 281.736 315.88 280.712 315.496 280.2C315.112 279.688 314.504 279.432 313.672 279.432C312.904 279.432 312.264 279.592 311.752 279.912C311.24 280.232 310.664 280.68 310.024 281.256V297H301.768ZM220.992 345.576C219.008 345.576 217.104 345.256 215.28 344.616C213.488 343.944 211.904 342.952 210.528 341.64C209.184 340.296 208.112 338.632 207.312 336.648C206.512 334.632 206.112 332.296 206.112 329.64C206.112 327.016 206.528 324.696 207.36 322.68C208.192 320.632 209.296 318.92 210.672 317.544C212.08 316.136 213.68 315.064 215.472 314.328C217.296 313.592 219.2 313.224 221.184 313.224C223.264 313.224 225.12 313.64 226.752 314.472C228.384 315.272 229.76 316.232 230.88 317.352L226.56 322.632C225.792 321.96 224.992 321.416 224.16 321C223.36 320.552 222.432 320.328 221.376 320.328C220.448 320.328 219.568 320.536 218.736 320.952C217.936 321.368 217.216 321.96 216.576 322.728C215.968 323.496 215.472 324.44 215.088 325.56C214.736 326.68 214.56 327.944 214.56 329.352C214.56 332.296 215.168 334.552 216.384 336.12C217.632 337.688 219.264 338.472 221.28 338.472C222.496 338.472 223.568 338.216 224.496 337.704C225.456 337.16 226.272 336.52 226.944 335.784L231.264 340.968C229.92 342.504 228.368 343.656 226.608 344.424C224.88 345.192 223.008 345.576 220.992 345.576ZM244.029 345.576C242.909 345.576 241.901 345.384 241.005 345C240.109 344.584 239.341 344.04 238.701 343.368C238.093 342.696 237.629 341.912 237.309 341.016C236.989 340.12 236.829 339.176 236.829 338.184C236.829 335.688 237.853 333.736 239.901 332.328C241.949 330.888 245.277 329.928 249.885 329.448C249.693 327.784 248.573 326.952 246.525 326.952C245.661 326.952 244.749 327.128 243.789 327.48C242.829 327.8 241.725 328.296 240.477 328.968L237.597 323.592C239.293 322.568 241.005 321.784 242.733 321.24C244.461 320.696 246.269 320.424 248.157 320.424C251.261 320.424 253.693 321.32 255.453 323.112C257.245 324.872 258.141 327.72 258.141 331.656V345H251.421L250.845 342.696H250.653C249.693 343.56 248.669 344.264 247.581 344.808C246.525 345.32 245.341 345.576 244.029 345.576ZM246.909 339.24C247.581 339.24 248.125 339.096 248.541 338.808C248.989 338.488 249.437 338.088 249.885 337.608V334.344C247.901 334.632 246.541 335.064 245.805 335.64C245.069 336.216 244.701 336.84 244.701 337.512C244.701 338.664 245.437 339.24 246.909 339.24ZM266.403 345V321H273.123L273.699 325.128H273.891C274.787 323.496 275.843 322.312 277.059 321.576C278.307 320.808 279.523 320.424 280.707 320.424C281.443 320.424 282.035 320.472 282.483 320.568C282.931 320.632 283.331 320.744 283.683 320.904L282.339 328.008C281.891 327.912 281.459 327.832 281.043 327.768C280.659 327.672 280.195 327.624 279.651 327.624C278.787 327.624 277.875 327.928 276.915 328.536C275.987 329.112 275.235 330.152 274.659 331.656V345H266.403ZM299.234 345.576C297.666 345.576 296.322 345.352 295.202 344.904C294.114 344.424 293.202 343.752 292.466 342.888C291.762 342.024 291.234 341 290.882 339.816C290.562 338.6 290.402 337.256 290.402 335.784V327.432H287.234V321.288L290.882 321L291.842 314.76H298.658V321H304.13V327.432H298.658V335.64C298.658 336.984 298.946 337.912 299.522 338.424C300.098 338.904 300.77 339.144 301.538 339.144C301.922 339.144 302.29 339.112 302.642 339.048C303.026 338.952 303.362 338.856 303.65 338.76L304.898 344.712C304.258 344.904 303.49 345.096 302.594 345.288C301.698 345.48 300.578 345.576 299.234 345.576Z" fill="black"/>
<path d="M303 168.824C303 -85.6136 677.821 -0.135404 643.819 186" stroke="#373737" stroke-width="20" stroke-linejoin="round"/>
<path d="M230 189.824C230 -64.6136 604.821 20.8646 570.819 207" stroke="black" stroke-width="20" stroke-linejoin="round"/>
</svg>
