<svg width="39" height="39" viewBox="0 0 39 39" fill="none" xmlns="http://www.w3.org/2000/svg">
<path d="M23.7585 2.61006C27.241 -0.870698 32.9068 -0.869978 36.3888 2.61197C39.8704 6.09321 39.8704 11.759 36.3891 15.2417L28.12 23.5099C26.4339 25.1967 24.1911 26.1258 21.8056 26.1258C19.42 26.1258 17.1772 25.1967 15.4904 23.5099L18.0337 20.9669C19.041 21.9744 20.3806 22.5293 21.8053 22.5293C23.23 22.5293 24.5694 21.9744 25.5767 20.9669L33.8456 12.6987C35.9249 10.6186 35.9251 7.23451 33.8456 5.15522C31.7662 3.07593 28.3837 3.07473 26.303 5.15187L26.3035 5.15235L20.7927 10.6642L18.2495 8.12143L23.7592 2.61077L23.7585 2.61006Z" fill="#D1D1D1"/>
<path d="M5.15469 33.8452C7.23424 35.9247 10.6182 35.9252 12.6982 33.8464L18.2089 28.334L20.7524 30.877L15.2415 36.3894C13.501 38.1296 11.2135 39 8.92705 39C6.63961 39.0002 4.35264 38.1296 2.61117 36.3884C-0.870349 32.906 -0.870349 27.24 2.61093 23.7578L10.8793 15.49C14.3613 12.0076 20.0271 12.0078 23.5096 15.49L20.9661 18.033C18.8865 15.9532 15.5024 15.9532 13.4223 18.033L5.15445 26.3008C3.07513 28.3805 3.07513 31.7652 5.15469 33.8452Z" fill="#D1D1D1"/>
</svg>
