<svg width="47" height="11" viewBox="0 0 47 11" fill="none" xmlns="http://www.w3.org/2000/svg">
<path d="M0.98 0.199999H3.752V7.802H8.428V10H0.98V0.199999ZM14.3165 10.196C13.2805 10.196 12.3472 9.97667 11.5165 9.538C10.6952 9.09933 10.0465 8.49267 9.57053 7.718C9.10386 6.94333 8.87053 6.07067 8.87053 5.1C8.87053 4.12933 9.10386 3.25667 9.57053 2.482C10.0465 1.70733 10.6952 1.10067 11.5165 0.661999C12.3472 0.223333 13.2805 0.00399935 14.3165 0.00399935C15.3525 0.00399935 16.2812 0.223333 17.1025 0.661999C17.9332 1.10067 18.5819 1.70733 19.0485 2.482C19.5245 3.25667 19.7625 4.12933 19.7625 5.1C19.7625 6.07067 19.5245 6.94333 19.0485 7.718C18.5819 8.49267 17.9332 9.09933 17.1025 9.538C16.2812 9.97667 15.3525 10.196 14.3165 10.196ZM14.3165 7.9C14.8112 7.9 15.2592 7.78333 15.6605 7.55C16.0619 7.31667 16.3792 6.99 16.6125 6.57C16.8459 6.14067 16.9625 5.65067 16.9625 5.1C16.9625 4.54933 16.8459 4.064 16.6125 3.644C16.3792 3.21467 16.0619 2.88333 15.6605 2.65C15.2592 2.41667 14.8112 2.3 14.3165 2.3C13.8219 2.3 13.3739 2.41667 12.9725 2.65C12.5712 2.88333 12.2539 3.21467 12.0205 3.644C11.7872 4.064 11.6705 4.54933 11.6705 5.1C11.6705 5.65067 11.7872 6.14067 12.0205 6.57C12.2539 6.99 12.5712 7.31667 12.9725 7.55C13.3739 7.78333 13.8219 7.9 14.3165 7.9ZM27.7804 4.89H30.2304V8.95C29.6704 9.35133 29.0264 9.65933 28.2984 9.874C27.5704 10.0887 26.8424 10.196 26.1144 10.196C25.0877 10.196 24.1637 9.98133 23.3424 9.552C22.521 9.11333 21.877 8.50667 21.4104 7.732C20.9437 6.95733 20.7104 6.08 20.7104 5.1C20.7104 4.12 20.9437 3.24267 21.4104 2.468C21.877 1.69333 22.5257 1.09133 23.3564 0.661999C24.187 0.223333 25.125 0.00399935 26.1704 0.00399935C27.085 0.00399935 27.9064 0.157999 28.6344 0.465999C29.3624 0.774 29.969 1.21733 30.4544 1.796L28.6904 3.392C28.0277 2.664 27.2344 2.3 26.3104 2.3C25.4704 2.3 24.7937 2.55667 24.2804 3.07C23.767 3.574 23.5104 4.25067 23.5104 5.1C23.5104 5.64133 23.627 6.12667 23.8604 6.556C24.0937 6.976 24.4204 7.30733 24.8404 7.55C25.2604 7.78333 25.741 7.9 26.2824 7.9C26.8144 7.9 27.3137 7.79267 27.7804 7.578V4.89ZM31.9878 0.199999H34.7598V10H31.9878V0.199999ZM46.056 0.199999V10H43.774L39.448 4.778V10H36.732V0.199999H39.014L43.34 5.422V0.199999H46.056Z" fill="black"/>
</svg>
