<svg width="234" height="35" viewBox="0 0 234 35" fill="none" xmlns="http://www.w3.org/2000/svg">
<path d="M13.392 0.352H15.516L2.772 32.104H0.648L13.392 0.352Z" fill="#BD1111"/>
<path d="M46.6948 17.92C46.6948 18.4 46.6588 18.856 46.5868 19.288H32.0068C32.0788 21.616 32.7868 23.392 34.1308 24.616C35.4988 25.816 37.1548 26.416 39.0988 26.416C41.3788 26.416 43.3948 25.624 45.1468 24.04H45.4708V26.524C43.5748 27.844 41.4268 28.504 39.0268 28.504C36.4348 28.504 34.2388 27.676 32.4388 26.02C30.6628 24.34 29.7748 21.988 29.7748 18.964C29.7748 15.964 30.6508 13.624 32.4028 11.944C34.1548 10.264 36.2908 9.424 38.8108 9.424C41.1628 9.424 43.0588 10.168 44.4988 11.656C45.9388 13.144 46.6708 15.232 46.6948 17.92ZM38.7388 11.44C36.9868 11.44 35.5108 11.956 34.3108 12.988C33.1348 14.02 32.4028 15.484 32.1148 17.38H44.4628C44.3668 15.46 43.8148 13.996 42.8068 12.988C41.7988 11.956 40.4428 11.44 38.7388 11.44Z" fill="#878787"/>
<path d="M78.7812 17.92C78.7812 18.4 78.7452 18.856 78.6732 19.288H64.0932C64.1652 21.616 64.8732 23.392 66.2172 24.616C67.5852 25.816 69.2412 26.416 71.1852 26.416C73.4652 26.416 75.4812 25.624 77.2332 24.04H77.5572V26.524C75.6612 27.844 73.5132 28.504 71.1132 28.504C68.5212 28.504 66.3252 27.676 64.5252 26.02C62.7492 24.34 61.8612 21.988 61.8612 18.964C61.8612 15.964 62.7372 13.624 64.4892 11.944C66.2412 10.264 68.3772 9.424 70.8972 9.424C73.2492 9.424 75.1452 10.168 76.5852 11.656C78.0252 13.144 78.7572 15.232 78.7812 17.92ZM70.8252 11.44C69.0732 11.44 67.5972 11.956 66.3972 12.988C65.2212 14.02 64.4892 15.484 64.2012 17.38H76.5492C76.4532 15.46 75.9012 13.996 74.8932 12.988C73.8852 11.956 72.5292 11.44 70.8252 11.44Z" fill="#707070"/>
<path d="M93.7676 26.812V24.328H94.0916C95.6036 25.696 97.4876 26.38 99.7436 26.38C102.576 26.38 103.992 25.504 103.992 23.752C103.992 22.504 103.212 21.496 101.652 20.728L97.6196 18.82C95.2676 17.668 94.0916 16 94.0916 13.816C94.0916 12.28 94.6676 11.164 95.8196 10.468C96.9476 9.772 98.3156 9.424 99.9236 9.424C101.94 9.424 103.692 9.964 105.18 11.044V13.24H104.928C103.344 12.112 101.7 11.548 99.9956 11.548C98.8436 11.548 97.9556 11.752 97.3316 12.16C96.7076 12.568 96.3956 13.144 96.3956 13.888C96.3956 15.184 97.2596 16.216 98.9876 16.984L102.768 18.82C105.12 19.972 106.296 21.592 106.296 23.68C106.296 25.36 105.672 26.572 104.424 27.316C103.152 28.108 101.592 28.504 99.7436 28.504C97.3436 28.504 95.3516 27.94 93.7676 26.812Z" fill="#5C5C5C"/>
<path d="M134.603 9.928H137.051L126.359 34.984H123.875L128.087 25.12L120.527 9.928H123.047L129.275 22.708L134.603 9.928Z" fill="#404040"/>
<path d="M166.956 0.927999H169.224V28H167.244V24.364C166.524 25.708 165.528 26.74 164.256 27.46C162.984 28.156 161.604 28.504 160.116 28.504C157.74 28.504 155.7 27.652 153.996 25.948C152.316 24.244 151.476 21.916 151.476 18.964C151.476 16.012 152.316 13.684 153.996 11.98C155.7 10.276 157.74 9.424 160.116 9.424C161.508 9.424 162.804 9.748 164.004 10.396C165.204 11.02 166.188 11.92 166.956 13.096V0.927999ZM155.724 24.436C157.02 25.732 158.592 26.38 160.44 26.38C162.288 26.38 163.86 25.732 165.156 24.436C166.452 23.116 167.1 21.292 167.1 18.964C167.1 16.636 166.452 14.824 165.156 13.528C163.86 12.208 162.288 11.548 160.44 11.548C158.592 11.548 157.02 12.208 155.724 13.528C154.428 14.824 153.78 16.636 153.78 18.964C153.78 21.292 154.428 23.116 155.724 24.436ZM202.557 17.92C202.557 18.4 202.521 18.856 202.449 19.288H187.869C187.941 21.616 188.649 23.392 189.993 24.616C191.361 25.816 193.017 26.416 194.961 26.416C197.241 26.416 199.257 25.624 201.009 24.04H201.333V26.524C199.437 27.844 197.289 28.504 194.889 28.504C192.297 28.504 190.101 27.676 188.301 26.02C186.525 24.34 185.637 21.988 185.637 18.964C185.637 15.964 186.513 13.624 188.265 11.944C190.017 10.264 192.153 9.424 194.673 9.424C197.025 9.424 198.921 10.168 200.361 11.656C201.801 13.144 202.533 15.232 202.557 17.92ZM194.601 11.44C192.849 11.44 191.373 11.956 190.173 12.988C188.997 14.02 188.265 15.484 187.977 17.38H200.325C200.229 15.46 199.677 13.996 198.669 12.988C197.661 11.956 196.305 11.44 194.601 11.44ZM230.729 9.928H233.213L225.509 28H224.105L216.437 9.928H218.921L224.825 24.4L230.729 9.928Z" fill="black"/>
</svg>
