<svg width="182" height="27" viewBox="0 0 182 27" fill="none" xmlns="http://www.w3.org/2000/svg">
<path d="M13.696 0.0439994L2.824 25.676H0.664L11.536 0.0439994H13.696Z" fill="#BD1111"/>
<path d="M35.1076 22.004H35.3236C35.2756 22.388 35.1676 23.036 34.9996 23.948C34.8556 24.836 34.7596 25.436 34.7116 25.748H34.6756L34.6396 26H19.0156V25.604L19.3036 25.568C19.7836 25.544 20.1676 25.352 20.4556 24.992C20.7676 24.608 20.9236 24.152 20.9236 23.624V3.86C20.9236 3.5 20.8516 3.176 20.7076 2.888C20.5636 2.6 20.3716 2.372 20.1316 2.204C19.8916 2.036 19.6156 1.94 19.3036 1.916L19.0156 1.88V1.484H34.4596V5.48H34.2076L33.9556 4.94C33.5956 4.1 33.0076 3.404 32.1916 2.852C31.3996 2.3 30.5716 2.024 29.7076 2.024H23.1556V2.06H22.0036C22.0756 2.06 22.1596 2.084 22.2556 2.132C22.3756 2.156 22.5436 2.264 22.7596 2.456C22.9756 2.648 23.1076 2.9 23.1556 3.212V12.644H28.5196C28.8556 12.644 29.1916 12.608 29.5276 12.536C29.8876 12.44 30.1996 12.32 30.4636 12.176C30.7516 12.032 31.0036 11.864 31.2196 11.672C31.4596 11.456 31.6276 11.24 31.7236 11.024L31.8676 10.736H32.1556V15.416L31.7956 15.38L31.6516 15.092C31.4116 14.54 30.9916 14.096 30.3916 13.76C29.7916 13.4 29.1436 13.22 28.4476 13.22H23.0836V13.256H21.9316C21.9556 13.256 21.9916 13.268 22.0396 13.292C22.0876 13.292 22.1716 13.316 22.2916 13.364C22.4116 13.412 22.5196 13.472 22.6156 13.544C22.7116 13.616 22.8076 13.724 22.9036 13.868C22.9996 14.012 23.0596 14.18 23.0836 14.372V25.424H29.9236C30.4996 25.424 31.0876 25.304 31.6876 25.064C32.2876 24.824 32.8516 24.488 33.3796 24.056C33.9076 23.6 34.3516 23.096 34.7116 22.544L35.1076 22.004Z" fill="#878787"/>
<path d="M56.7287 22.004H56.9447C56.8967 22.388 56.7887 23.036 56.6207 23.948C56.4767 24.836 56.3807 25.436 56.3327 25.748H56.2967L56.2607 26H40.6367V25.604L40.9247 25.568C41.4047 25.544 41.7887 25.352 42.0767 24.992C42.3887 24.608 42.5447 24.152 42.5447 23.624V3.86C42.5447 3.5 42.4727 3.176 42.3287 2.888C42.1847 2.6 41.9927 2.372 41.7527 2.204C41.5127 2.036 41.2367 1.94 40.9247 1.916L40.6367 1.88V1.484H56.0807V5.48H55.8287L55.5767 4.94C55.2167 4.1 54.6287 3.404 53.8127 2.852C53.0207 2.3 52.1927 2.024 51.3287 2.024H44.7767V2.06H43.6247C43.6967 2.06 43.7807 2.084 43.8767 2.132C43.9967 2.156 44.1647 2.264 44.3807 2.456C44.5967 2.648 44.7287 2.9 44.7767 3.212V12.644H50.1407C50.4767 12.644 50.8127 12.608 51.1487 12.536C51.5087 12.44 51.8207 12.32 52.0847 12.176C52.3727 12.032 52.6247 11.864 52.8407 11.672C53.0807 11.456 53.2487 11.24 53.3447 11.024L53.4887 10.736H53.7767V15.416L53.4167 15.38L53.2727 15.092C53.0327 14.54 52.6127 14.096 52.0127 13.76C51.4127 13.4 50.7647 13.22 50.0687 13.22H44.7047V13.256H43.5527C43.5767 13.256 43.6127 13.268 43.6607 13.292C43.7087 13.292 43.7927 13.316 43.9127 13.364C44.0327 13.412 44.1407 13.472 44.2367 13.544C44.3327 13.616 44.4287 13.724 44.5247 13.868C44.6207 14.012 44.6807 14.18 44.7047 14.372V25.424H51.5447C52.1207 25.424 52.7087 25.304 53.3087 25.064C53.9087 24.824 54.4727 24.488 55.0007 24.056C55.5287 23.6 55.9727 23.096 56.3327 22.544L56.7287 22.004Z" fill="#707070"/>
<path d="M71.2578 12.788C73.3218 13.388 75.0138 14.324 76.3338 15.596C77.6778 16.868 78.3498 18.212 78.3498 19.628C78.3498 21.5 77.6538 23.048 76.2618 24.272C74.8698 25.496 73.1178 26.108 71.0058 26.108C69.3978 26.108 67.7658 25.94 66.1098 25.604C64.4778 25.244 63.1938 24.788 62.2578 24.236V20.348H62.5818C62.6298 20.42 62.7018 20.576 62.7978 20.816C62.8938 21.056 62.9658 21.224 63.0138 21.32C63.4218 22.232 64.0338 23.048 64.8498 23.768C65.6898 24.464 66.5538 24.92 67.4418 25.136C68.8098 25.376 69.9978 25.496 71.0058 25.496C72.6858 25.496 74.0658 25.028 75.1458 24.092C76.2498 23.156 76.8018 21.956 76.8018 20.492C76.8018 19.34 76.1178 18.2 74.7498 17.072C73.3818 15.944 71.6418 15.08 69.5298 14.48C67.5378 13.928 65.8818 13.052 64.5618 11.852C63.2658 10.628 62.6178 9.356 62.6178 8.036C62.6178 6.068 63.3018 4.436 64.6698 3.14C66.0618 1.844 67.8138 1.196 69.9258 1.196C71.0538 1.196 72.2898 1.376 73.6338 1.736C74.9778 2.072 76.1058 2.516 77.0178 3.068V6.956L76.8018 6.992L75.7218 4.688C75.5058 4.184 75.1698 3.728 74.7138 3.32C74.2818 2.888 73.8138 2.576 73.3098 2.384C72.0378 2 70.8978 1.808 69.8898 1.808C68.2338 1.808 66.8658 2.312 65.7858 3.32C64.7058 4.328 64.1658 5.624 64.1658 7.208C64.1658 8.264 64.8258 9.32 66.1458 10.376C67.4898 11.408 69.1938 12.212 71.2578 12.788Z" fill="#5C5C5C"/>
<path d="M99.9399 1.34H104.836V1.736C103.732 1.88 102.844 2.456 102.172 3.464L95.2959 15.2V23.516C95.2959 24.044 95.4399 24.5 95.7279 24.884C96.0399 25.244 96.4239 25.436 96.8799 25.46L97.1679 25.496V25.892H91.0479V25.496L91.3359 25.46C91.8159 25.436 92.1999 25.244 92.4879 24.884C92.7999 24.5 92.9559 24.044 92.9559 23.516L92.9919 16.172L86.1159 3.752C85.4919 2.576 84.6759 1.916 83.6679 1.772V1.376H89.8239V1.736L89.5359 1.772C89.0559 1.796 88.7559 2 88.6359 2.384C88.5159 2.744 88.5999 3.188 88.8879 3.716L94.9359 14.876L101.056 4.328H101.02C101.428 3.632 101.572 3.044 101.452 2.564C101.332 2.06 100.96 1.796 100.336 1.772L99.9399 1.736V1.34Z" fill="#404040"/>
<path d="M119.14 1.34C122.884 1.34 125.956 2.504 128.356 4.832C130.78 7.136 131.992 10.064 131.992 13.616C131.992 17.168 130.924 20.108 128.788 22.436C126.676 24.74 123.988 25.892 120.724 25.892H110.176V25.496L110.464 25.46C110.944 25.436 111.328 25.244 111.616 24.884C111.928 24.5 112.084 24.044 112.084 23.516V3.752C112.084 3.224 111.928 2.78 111.616 2.42C111.328 2.036 110.944 1.832 110.464 1.808L110.176 1.772V1.376L119.14 1.34ZM120.724 25.244C123.34 25.244 125.5 24.152 127.204 21.968C128.908 19.76 129.76 16.964 129.76 13.58C129.76 10.196 128.764 7.412 126.772 5.228C124.78 3.02 122.236 1.916 119.14 1.916H113.164C113.26 1.916 113.368 1.94 113.488 1.988C113.608 2.012 113.776 2.132 113.992 2.348C114.208 2.564 114.328 2.852 114.352 3.212V25.28L120.724 25.244ZM153.654 22.004H153.87C153.822 22.388 153.714 23.036 153.546 23.948C153.402 24.836 153.306 25.436 153.258 25.748H153.222L153.186 26H137.562V25.604L137.85 25.568C138.33 25.544 138.714 25.352 139.002 24.992C139.314 24.608 139.47 24.152 139.47 23.624V3.86C139.47 3.5 139.398 3.176 139.254 2.888C139.11 2.6 138.918 2.372 138.678 2.204C138.438 2.036 138.162 1.94 137.85 1.916L137.562 1.88V1.484H153.006V5.48H152.754L152.502 4.94C152.142 4.1 151.554 3.404 150.738 2.852C149.946 2.3 149.118 2.024 148.254 2.024H141.702V2.06H140.55C140.622 2.06 140.706 2.084 140.802 2.132C140.922 2.156 141.09 2.264 141.306 2.456C141.522 2.648 141.654 2.9 141.702 3.212V12.644H147.066C147.402 12.644 147.738 12.608 148.074 12.536C148.434 12.44 148.746 12.32 149.01 12.176C149.298 12.032 149.55 11.864 149.766 11.672C150.006 11.456 150.174 11.24 150.27 11.024L150.414 10.736H150.702V15.416L150.342 15.38L150.198 15.092C149.958 14.54 149.538 14.096 148.938 13.76C148.338 13.4 147.69 13.22 146.994 13.22H141.63V13.256H140.478C140.502 13.256 140.538 13.268 140.586 13.292C140.634 13.292 140.718 13.316 140.838 13.364C140.958 13.412 141.066 13.472 141.162 13.544C141.258 13.616 141.354 13.724 141.45 13.868C141.546 14.012 141.606 14.18 141.63 14.372V25.424H148.47C149.046 25.424 149.634 25.304 150.234 25.064C150.834 24.824 151.398 24.488 151.926 24.056C152.454 23.6 152.898 23.096 153.258 22.544L153.654 22.004ZM175.816 1.304H181.324V1.7L181.036 1.736C180.556 1.76 180.1 1.964 179.668 2.348C179.26 2.708 178.948 3.164 178.732 3.716L171.172 26.432H170.596L161.488 4.076L161.308 3.5C160.852 2.492 160.144 1.916 159.184 1.772V1.376H165.34L165.412 1.736H165.268L161.632 1.772C162.592 1.916 163.3 2.492 163.756 3.5L163.864 3.86L163.936 4.076H163.972L171.604 23.264L177.832 4.436C178.072 3.668 178.036 3.032 177.724 2.528C177.436 2.024 176.944 1.76 176.248 1.736L175.816 1.7V1.304Z" fill="black"/>
</svg>
