<svg width="142" height="120" viewBox="0 0 142 120" fill="none" xmlns="http://www.w3.org/2000/svg">
<path fill-rule="evenodd" clip-rule="evenodd" d="M0.0115543 120C13.53 110.31 35.2058 120.717 43.7213 103.812C44.9023 101.425 45.5757 98.8184 45.699 96.1575C45.8223 93.4966 45.3928 90.839 44.4377 88.3526C43.6561 86.396 42.3968 84.6666 40.775 83.3228C40.0196 82.7179 39.2024 82.1947 38.337 81.7618C27.2103 76.2348 15.6098 83.9703 9.45138 93.3246C3.7898 101.916 1.3634 112.646 0 120H0.0115543ZM62.5085 50.2069C69.7379 55.8199 75.6533 62.9473 79.8399 71.0893L137.831 14.2466C141.493 10.7778 143.608 7.85236 140.488 2.53347C139.255 1.11627 137.536 0.212819 135.67 0.00122045C133.732 -0.0322406 131.844 0.623295 130.344 1.85127L62.5085 50.2069ZM43.0396 75.6451C46.2979 77.4026 50.7694 81.7156 51.8324 86.4216L76.0732 74.0032C71.7057 65.2848 66.125 57.8152 58.4761 52.5195C50.5037 63.2382 52.1213 65.4351 43.0396 75.6451V75.6451Z" fill="#E6E6E6"/>
</svg>
