<svg width="350" height="350" viewBox="0 0 350 350" fill="none" xmlns="http://www.w3.org/2000/svg">
<g filter="url(#filter0_b_478_36)">
<rect width="350" height="350" fill="white"/>
</g>
<path d="M140.079 161.82C139.94 161.172 139.87 159.922 139.87 158.071C139.87 156.22 140.219 154.253 140.919 152.17H141.548C141.502 152.679 141.478 153.188 141.478 153.697C141.478 156.52 142.341 158.881 144.066 160.778C145.791 162.63 148.075 163.555 150.92 163.555C153.857 163.555 156.258 162.676 158.123 160.917C160.035 159.158 160.99 156.96 160.99 154.322C160.99 151.638 160.081 149.463 158.263 147.797L144.835 135.44C142.317 133.126 141.059 130.326 141.059 127.04C141.059 123.754 142.154 120.954 144.345 118.64C146.583 116.279 149.591 115.099 153.367 115.099C155.139 115.099 157.144 115.331 159.382 115.793H162.109V124.332H161.48C161.48 122.157 160.711 120.422 159.172 119.126C157.68 117.83 155.745 117.182 153.367 117.182C150.989 117.182 148.985 117.969 147.353 119.542C145.768 121.116 144.975 123.083 144.975 125.443C144.975 127.803 145.907 129.84 147.772 131.552L161.55 144.187C162.198 144.778 162.756 145.431 163.224 146.144L164.245 137.478H164.945L184.457 179.339L203.55 137.478H204.179L209.564 181.977C209.797 183.828 210.73 185.124 212.362 185.865C213.061 186.189 213.83 186.351 214.67 186.351H215.789V187.045H200.612V186.42H201.661C202.454 186.42 203.13 186.119 203.69 185.517C204.249 184.87 204.482 184.175 204.389 183.435L201.242 148.516L186.555 180.936C185.25 183.759 184.457 186.119 184.177 188.017H183.478L165.574 149.488L162.567 183.435C162.474 184.175 162.707 184.87 163.266 185.517C163.826 186.119 164.478 186.42 165.224 186.42H166.343V187.045H152.776V186.351H153.895C155.2 186.351 156.319 185.957 157.252 185.17C158.231 184.384 158.814 183.319 159 181.977L161.326 162.248C158.966 164.508 155.847 165.638 151.969 165.638C149.917 165.638 147.726 165.314 145.395 164.666C143.11 164.064 141.338 163.115 140.079 161.82Z" fill="black"/>
<path fill-rule="evenodd" clip-rule="evenodd" d="M175.704 94C143.027 94 116.537 120.295 116.537 152.731C116.537 185.168 143.027 211.462 175.704 211.462C208.381 211.462 234.871 185.168 234.871 152.731C234.871 120.295 208.381 94 175.704 94ZM117.119 152.731C117.119 120.614 143.349 94.5785 175.704 94.5785C208.059 94.5785 234.288 120.614 234.288 152.731C234.288 184.848 208.059 210.884 175.704 210.884C143.349 210.884 117.119 184.848 117.119 152.731Z" fill="black"/>
<path d="M118.942 224.23C121.217 224.23 122.765 225.131 123.586 226.932L122.803 227.525C122.442 226.661 121.932 226.038 121.273 225.655C120.627 225.273 119.825 225.081 118.868 225.081C117.761 225.081 116.916 225.328 116.331 225.822C115.747 226.303 115.455 226.895 115.455 227.599C115.455 228.167 115.635 228.636 115.996 229.006C116.369 229.376 117.059 229.672 118.066 229.894L120.471 230.413C121.665 230.672 122.51 231.049 123.008 231.542C123.505 232.023 123.754 232.647 123.754 233.412C123.754 234.078 123.561 234.671 123.176 235.189C122.79 235.695 122.249 236.096 121.553 236.392C120.869 236.676 120.067 236.818 119.147 236.818C117.829 236.818 116.723 236.559 115.828 236.04C114.945 235.51 114.336 234.782 114 233.856L114.821 233.227C115.082 234.103 115.591 234.782 116.35 235.263C117.121 235.732 118.066 235.966 119.185 235.966C120.229 235.966 121.087 235.757 121.758 235.337C122.442 234.905 122.784 234.282 122.784 233.467C122.784 232.961 122.598 232.53 122.225 232.171C121.852 231.814 121.205 231.536 120.285 231.338L117.749 230.783C116.567 230.524 115.722 230.141 115.212 229.635C114.715 229.117 114.466 228.475 114.466 227.71C114.466 227.081 114.647 226.507 115.007 225.988C115.368 225.458 115.877 225.032 116.536 224.711C117.208 224.39 118.01 224.23 118.942 224.23Z" fill="black"/>
<path fill-rule="evenodd" clip-rule="evenodd" d="M125.008 236.633L129.932 224.415H131.032L135.956 236.633H134.967L133.419 232.801H127.526L125.997 236.633H125.008ZM130.025 226.581L127.88 231.949H133.084L130.939 226.618L130.491 225.322H130.473L130.025 226.581Z" fill="black"/>
<path d="M139.182 224.415V236.633H138.249V224.415H139.182Z" fill="black"/>
<path d="M152.513 224.415V236.633H151.357L144.83 227.043L143.916 225.47H143.897L143.953 226.951V236.633H143.058V224.415H144.233L150.741 233.986L151.674 235.578L151.637 234.097V224.415H152.513Z" fill="black"/>
<path d="M164.782 224.415V225.266H160.287V236.633H159.355V225.266H154.86V224.415H164.782Z" fill="black"/>
<path d="M183.922 224.415V236.633H183.027V227.525L183.139 225.303H183.12L178.625 236.633H177.768L173.273 225.303H173.254L173.366 227.525V236.633H172.471V224.415H173.87L177.581 233.671L178.197 235.541H178.215L178.812 233.689L182.523 224.415H183.922Z" fill="black"/>
<path fill-rule="evenodd" clip-rule="evenodd" d="M186.221 236.633L191.144 224.415H192.245L197.168 236.633H196.18L194.632 232.801H188.739L187.209 236.633H186.221ZM191.238 226.581L189.093 231.949H194.296L192.152 226.618L191.704 225.322H191.685L191.238 226.581Z" fill="black"/>
<path fill-rule="evenodd" clip-rule="evenodd" d="M204.031 224.415C205.25 224.415 206.226 224.723 206.959 225.34C207.693 225.958 208.06 226.803 208.06 227.877C208.06 228.778 207.793 229.518 207.258 230.098C206.736 230.666 206.021 231.03 205.113 231.19L208.712 236.633H207.612L204.05 231.283H204.013L203.92 231.338H200.395V236.633H199.462V224.415H204.031ZM204.013 230.468C205.007 230.468 205.766 230.246 206.288 229.802C206.823 229.358 207.09 228.716 207.09 227.877C207.09 227.037 206.823 226.396 206.288 225.951C205.766 225.495 205.007 225.266 204.013 225.266H200.395V230.468H204.013Z" fill="black"/>
<path d="M219.383 224.415V225.266H214.889V236.633H213.956V225.266H209.462V224.415H219.383Z" fill="black"/>
<path d="M222.669 224.415V236.633H221.736V224.415H222.669Z" fill="black"/>
<path d="M236 224.415V236.633H234.844L228.316 227.043L227.402 225.47H227.384L227.44 226.951V236.633H226.545V224.415H227.72L234.228 233.986L235.161 235.578L235.123 234.097V224.415H236Z" fill="black"/>
<path fill-rule="evenodd" clip-rule="evenodd" d="M161.426 245.698C162.387 245.698 163.147 245.938 163.706 246.42C164.275 246.892 164.559 247.544 164.559 248.377C164.559 249.22 164.275 249.881 163.706 250.363C163.147 250.835 162.387 251.071 161.426 251.071H159.062V254.861H158.363V245.698H161.426ZM161.342 250.418C162.154 250.418 162.769 250.242 163.189 249.891C163.608 249.539 163.818 249.034 163.818 248.377C163.818 247.729 163.608 247.229 163.189 246.878C162.769 246.517 162.154 246.336 161.342 246.336H159.062V250.418H161.342Z" fill="black"/>
<path fill-rule="evenodd" clip-rule="evenodd" d="M164.796 254.861L168.489 245.698H169.314L173.007 254.861H172.265L171.104 251.987H166.684L165.537 254.861H164.796ZM168.559 247.322L166.95 251.348H170.853L169.244 247.35L168.908 246.378H168.894L168.559 247.322Z" fill="black"/>
<path fill-rule="evenodd" clip-rule="evenodd" d="M178.154 245.698C179.068 245.698 179.8 245.929 180.35 246.392C180.9 246.855 181.175 247.489 181.175 248.294C181.175 248.97 180.975 249.525 180.574 249.96C180.182 250.386 179.646 250.659 178.965 250.779L181.665 254.861H180.84L178.168 250.849H178.14L178.07 250.89H175.426V254.861H174.727V245.698H178.154ZM178.14 250.238C178.886 250.238 179.455 250.071 179.846 249.738C180.247 249.405 180.448 248.923 180.448 248.294C180.448 247.664 180.247 247.183 179.846 246.85C179.455 246.507 178.886 246.336 178.14 246.336H175.426V250.238H178.14Z" fill="black"/>
<path d="M184.373 245.698V254.861H183.674V245.698H184.373Z" fill="black"/>
<path d="M190.134 245.559C191.84 245.559 193.001 246.234 193.616 247.586L193.029 248.03C192.759 247.382 192.376 246.915 191.882 246.628C191.397 246.341 190.796 246.197 190.078 246.197C189.248 246.197 188.614 246.382 188.175 246.753C187.737 247.114 187.518 247.558 187.518 248.086C187.518 248.511 187.653 248.863 187.924 249.141C188.203 249.419 188.721 249.641 189.476 249.807L191.281 250.196C192.176 250.39 192.81 250.673 193.183 251.043C193.556 251.404 193.742 251.871 193.742 252.445C193.742 252.945 193.598 253.389 193.309 253.778C193.02 254.158 192.614 254.459 192.092 254.681C191.579 254.894 190.977 255 190.287 255C189.299 255 188.469 254.806 187.798 254.417C187.136 254.019 186.679 253.473 186.427 252.779L187.042 252.306C187.238 252.964 187.621 253.473 188.189 253.834C188.767 254.185 189.476 254.361 190.315 254.361C191.099 254.361 191.742 254.204 192.246 253.889C192.759 253.565 193.015 253.098 193.015 252.487C193.015 252.107 192.875 251.783 192.595 251.515C192.316 251.247 191.831 251.038 191.141 250.89L189.238 250.474C188.353 250.279 187.718 249.992 187.336 249.613C186.963 249.224 186.777 248.743 186.777 248.169C186.777 247.697 186.912 247.266 187.182 246.878C187.453 246.48 187.835 246.16 188.329 245.92C188.833 245.679 189.434 245.559 190.134 245.559Z" fill="black"/>
<defs>
<filter id="filter0_b_478_36" x="-15" y="-15" width="380" height="380" filterUnits="userSpaceOnUse" color-interpolation-filters="sRGB">
<feFlood flood-opacity="0" result="BackgroundImageFix"/>
<feGaussianBlur in="BackgroundImage" stdDeviation="7.5"/>
<feComposite in2="SourceAlpha" operator="in" result="effect1_backgroundBlur_478_36"/>
<feBlend mode="normal" in="SourceGraphic" in2="effect1_backgroundBlur_478_36" result="shape"/>
</filter>
</defs>
</svg>
