<svg width="350" height="350" viewBox="0 0 350 350" fill="none" xmlns="http://www.w3.org/2000/svg">
<g filter="url(#filter0_b_478_18)">
<path d="M350 0H0V350H350V0Z" fill="#F3F3F3"/>
</g>
<path d="M64.7847 179.746C64.6241 179.7 64.475 179.62 64.3373 179.505C64.1996 179.413 64.1078 179.299 64.062 179.161C63.9931 179.023 63.9816 178.886 64.0275 178.748C64.0505 178.61 64.1652 178.495 64.3717 178.403C65.3813 178.059 66.345 177.692 67.2629 177.302C68.1807 176.912 69.0297 176.442 69.8098 175.891C70.6129 175.363 71.3357 174.721 71.9782 173.964C72.6436 173.206 73.2173 172.3 73.6991 171.244L86.2275 144.501H85.78C85.7341 144.501 85.4817 144.605 85.0228 144.811C84.5639 145.018 84.0247 145.259 83.4051 145.534C82.8085 145.809 82.189 146.096 81.5465 146.394C80.9041 146.693 80.3878 146.945 79.9977 147.152C79.447 147.427 78.8045 147.817 78.0703 148.322C77.3589 148.804 76.6132 149.366 75.8331 150.008C75.0759 150.651 74.3301 151.351 73.5959 152.108C72.8616 152.842 72.1962 153.599 71.5996 154.379C71.0259 155.137 70.5556 155.894 70.1884 156.651C69.8443 157.408 69.6722 158.108 69.6722 158.751C69.6722 159.003 69.718 159.221 69.8098 159.405C69.9246 159.588 70.0508 159.772 70.1884 159.955C70.3261 160.116 70.4408 160.299 70.5326 160.506C70.6474 160.69 70.7047 160.896 70.7047 161.126C70.2228 161.126 69.8098 161.045 69.4656 160.885C69.1215 160.701 68.8347 160.472 68.6052 160.196C68.3987 159.898 68.2381 159.565 68.1233 159.198C68.0316 158.831 67.9857 158.452 67.9857 158.062C67.9857 157.466 68.0889 156.904 68.2954 156.376C68.5019 155.825 68.7658 155.309 69.0871 154.827C69.4312 154.322 69.8098 153.852 70.2228 153.416C70.6359 152.957 71.0604 152.509 71.4963 152.073C71.8635 151.706 72.3568 151.236 72.9763 150.662C73.5959 150.066 74.2154 149.481 74.8349 148.907C75.4545 148.333 76.0051 147.84 76.487 147.427C76.9689 146.991 77.2442 146.75 77.3131 146.704L88.0172 140.922C88.522 140.624 88.958 140.199 89.3251 139.648C89.7152 139.098 90.0938 138.558 90.4609 138.031C90.851 137.48 91.2869 137.01 91.7688 136.62C92.2507 136.207 92.8587 136 93.593 136C93.7995 136 93.9831 136.046 94.1437 136.138C94.3043 136.207 94.4879 136.31 94.6944 136.447C94.7173 136.539 94.7288 136.734 94.7288 137.033C94.7517 137.308 94.7632 137.492 94.7632 137.583C94.7632 137.882 94.7632 138.122 94.7632 138.306C94.7632 138.467 94.7288 138.616 94.66 138.753C94.6141 138.868 94.5223 138.983 94.3846 139.098C94.2699 139.212 94.0749 139.373 93.7995 139.58C93.593 139.74 93.2259 140.015 92.6981 140.406C92.1933 140.796 91.6426 141.255 91.046 141.782C90.4494 142.287 89.8758 142.826 89.3251 143.4C88.7974 143.951 88.4302 144.467 88.2237 144.949L80.4107 160.54C80.3878 160.655 80.3189 160.885 80.2042 161.229C80.1124 161.55 80.0436 161.768 79.9977 161.883C79.8141 162.25 79.5732 162.743 79.2749 163.363C78.9996 163.959 78.6898 164.613 78.3456 165.325C78.0244 166.013 77.6802 166.736 77.3131 167.493C76.9689 168.227 76.6362 168.916 76.3149 169.558C76.0166 170.201 75.7527 170.751 75.5233 171.21C75.2938 171.692 75.1332 172.002 75.0414 172.14C74.6514 172.897 74.0892 173.746 73.3549 174.686C72.6436 175.627 71.829 176.499 70.9112 177.302C69.9934 178.105 69.0067 178.748 67.9512 179.23C66.8957 179.712 65.8402 179.883 64.7847 179.746ZM88.4646 165.772C88.4646 165.68 88.4646 165.497 88.4646 165.221C88.4876 164.923 88.4991 164.728 88.4991 164.636C89.2333 162.961 90.1741 161.412 91.3214 159.99C92.4687 158.567 93.7651 157.305 95.2107 156.204C95.2565 156.204 95.3254 156.192 95.4172 156.169C95.5319 156.123 95.6122 156.1 95.6581 156.1C96.2776 156.1 96.7824 156.238 97.1725 156.513C97.5855 156.766 97.9068 157.11 98.1362 157.546C98.3886 157.959 98.5607 158.429 98.6525 158.957C98.7443 159.462 98.7902 159.955 98.7902 160.437C98.7902 161.332 98.5837 162.273 98.1706 163.259C97.7576 164.223 97.1955 165.118 96.4842 165.944C95.7958 166.747 95.0041 167.413 94.1093 167.94C93.2144 168.445 92.2851 168.698 91.3214 168.698C90.3577 168.698 89.6349 168.445 89.153 167.94C88.6941 167.413 88.4646 166.69 88.4646 165.772ZM91.1493 165.359C91.1493 165.611 91.2525 165.783 91.4591 165.875C91.6656 165.967 91.8721 166.013 92.0786 166.013C92.6522 166.013 93.2029 165.864 93.7307 165.565C94.2814 165.244 94.7632 164.854 95.1763 164.395C95.6122 163.913 95.9564 163.386 96.2088 162.812C96.4612 162.238 96.5874 161.688 96.5874 161.16C96.5874 160.908 96.5644 160.632 96.5186 160.334C96.4956 160.013 96.4268 159.737 96.312 159.508C96.1973 159.255 96.0137 159.06 95.7613 158.923C95.5319 158.785 95.1992 158.762 94.7632 158.854C94.442 158.923 94.0749 159.221 93.6618 159.749C93.2488 160.276 92.8472 160.896 92.4572 161.607C92.09 162.296 91.7803 162.996 91.5279 163.707C91.2755 164.395 91.1493 164.946 91.1493 165.359ZM111.835 168.698C111.261 168.789 110.733 168.698 110.252 168.422C109.793 168.124 109.426 167.745 109.15 167.286C108.875 166.805 108.714 166.288 108.668 165.738C108.622 165.164 108.737 164.648 109.013 164.189C110.022 162.881 110.711 161.848 111.078 161.091C111.445 160.311 111.571 159.772 111.456 159.473C111.364 159.152 111.078 159.026 110.596 159.095C110.137 159.141 109.575 159.347 108.909 159.714C108.244 160.059 107.521 160.517 106.741 161.091C105.984 161.665 105.272 162.296 104.607 162.984C103.941 163.672 103.356 164.395 102.851 165.152C102.37 165.887 102.06 166.609 101.922 167.321C101.693 167.459 101.498 167.573 101.337 167.665C101.177 167.734 100.993 167.768 100.786 167.768C100.442 167.768 100.236 167.654 100.167 167.424C100.098 167.195 100.064 166.954 100.064 166.701C100.064 166.128 100.236 165.543 100.58 164.946C100.947 164.326 101.36 163.753 101.819 163.225C102.301 162.674 102.76 162.181 103.196 161.745C103.632 161.286 103.941 160.919 104.125 160.644C104.699 159.703 105.272 158.693 105.846 157.615C106.42 156.513 106.993 155.401 107.567 154.276C108.141 153.129 108.725 152.005 109.322 150.903C109.942 149.779 110.584 148.712 111.25 147.702C111.364 147.519 111.456 147.393 111.525 147.324C111.617 147.255 111.743 147.22 111.904 147.22C112.087 147.22 112.225 147.255 112.317 147.324C112.409 147.393 112.5 147.519 112.592 147.702C112.592 147.794 112.569 147.943 112.523 148.15C112.5 148.356 112.466 148.586 112.42 148.838C112.397 149.068 112.351 149.286 112.282 149.492C112.236 149.699 112.202 149.836 112.179 149.905C112.041 150.18 111.812 150.662 111.491 151.351C111.169 152.039 110.814 152.773 110.423 153.553C110.056 154.334 109.701 155.102 109.357 155.859C109.013 156.594 108.76 157.144 108.6 157.512C108.944 157.282 109.253 157.11 109.529 156.995C109.804 156.858 110.068 156.766 110.32 156.72C110.596 156.651 110.871 156.617 111.146 156.617C111.445 156.594 111.766 156.582 112.11 156.582C112.936 156.789 113.475 157.099 113.728 157.512C114.003 157.925 114.083 158.406 113.969 158.957C113.877 159.485 113.659 160.07 113.315 160.712C112.971 161.355 112.603 162.009 112.213 162.674C111.846 163.317 111.513 163.948 111.215 164.567C110.917 165.164 110.779 165.715 110.802 166.219C110.802 166.426 110.848 166.575 110.94 166.667C111.032 166.759 111.146 166.827 111.284 166.873C111.422 166.919 111.571 166.942 111.732 166.942C111.892 166.942 112.041 166.942 112.179 166.942C112.661 166.942 113.12 166.873 113.556 166.736C114.015 166.575 114.462 166.403 114.898 166.219C115.334 166.036 115.77 165.875 116.206 165.738C116.665 165.577 117.135 165.497 117.617 165.497C117.617 165.933 117.399 166.346 116.963 166.736C116.527 167.126 115.999 167.47 115.38 167.768C114.783 168.043 114.152 168.273 113.487 168.457C112.822 168.617 112.271 168.698 111.835 168.698ZM116.791 167.114C116.791 166.908 116.791 166.747 116.791 166.632C116.791 166.518 116.802 166.414 116.825 166.323C116.871 166.208 116.929 166.093 116.998 165.979C117.066 165.864 117.158 165.715 117.273 165.531C117.457 165.21 117.801 164.648 118.305 163.845C118.81 163.041 119.35 162.192 119.923 161.298C120.497 160.403 121.036 159.554 121.541 158.751C122.068 157.948 122.436 157.385 122.642 157.064C122.665 157.041 122.722 157.03 122.814 157.03C122.929 157.03 123.009 157.03 123.055 157.03C123.101 157.03 123.181 157.03 123.296 157.03C123.411 157.03 123.48 157.041 123.502 157.064C123.526 157.087 123.572 157.144 123.64 157.236C123.732 157.328 123.824 157.431 123.916 157.546C124.03 157.638 124.122 157.73 124.191 157.821C124.283 157.913 124.352 157.959 124.398 157.959C124.604 157.959 124.822 157.89 125.051 157.752C125.281 157.615 125.51 157.466 125.74 157.305C125.992 157.121 126.245 156.961 126.497 156.823C126.749 156.686 127.013 156.617 127.289 156.617C127.587 156.617 127.862 156.686 128.115 156.823C128.367 156.961 128.585 157.133 128.769 157.339C128.952 157.546 129.09 157.775 129.182 158.028C129.297 158.28 129.354 158.533 129.354 158.785C129.354 159.313 129.273 159.818 129.113 160.299C128.975 160.781 128.814 161.263 128.631 161.745C128.447 162.204 128.275 162.674 128.115 163.156C127.977 163.615 127.908 164.097 127.908 164.602C127.908 165.107 127.966 165.474 128.08 165.703C128.195 165.91 128.516 166.013 129.044 166.013C129.664 166.013 130.249 165.921 130.799 165.738C131.373 165.554 131.958 165.462 132.555 165.462C132.555 166.013 132.383 166.472 132.038 166.839C131.717 167.206 131.304 167.504 130.799 167.734C130.318 167.94 129.79 168.09 129.216 168.181C128.665 168.25 128.161 168.285 127.702 168.285C126.83 168.285 126.187 168.043 125.774 167.562C125.384 167.057 125.189 166.392 125.189 165.565C125.189 165.015 125.281 164.498 125.464 164.017C125.671 163.535 125.889 163.064 126.118 162.605C126.371 162.147 126.6 161.688 126.807 161.229C127.013 160.77 127.117 160.276 127.117 159.749C127.117 159.611 127.094 159.428 127.048 159.198C127.002 158.969 126.853 158.854 126.6 158.854C125.843 158.854 125.155 159.095 124.535 159.577C123.939 160.059 123.388 160.667 122.883 161.401C122.401 162.135 121.954 162.927 121.541 163.776C121.151 164.625 120.772 165.416 120.405 166.151C120.061 166.885 119.728 167.493 119.407 167.975C119.086 168.457 118.753 168.698 118.409 168.698C117.927 168.698 117.537 168.549 117.239 168.25C116.94 167.952 116.791 167.573 116.791 167.114ZM132.107 167.114C132.107 166.908 132.107 166.747 132.107 166.632C132.107 166.518 132.119 166.414 132.142 166.323C132.188 166.208 132.245 166.093 132.314 165.979C132.383 165.864 132.474 165.715 132.589 165.531C132.773 165.21 133.117 164.648 133.622 163.845C134.127 163.041 134.666 162.192 135.239 161.298C135.813 160.403 136.352 159.554 136.857 158.751C137.385 157.948 137.752 157.385 137.958 157.064C137.981 157.041 138.039 157.03 138.13 157.03C138.245 157.03 138.325 157.03 138.371 157.03C138.417 157.03 138.498 157.03 138.612 157.03C138.727 157.03 138.796 157.041 138.819 157.064C138.842 157.087 138.888 157.144 138.956 157.236C139.048 157.328 139.14 157.431 139.232 157.546C139.347 157.638 139.439 157.73 139.507 157.821C139.599 157.913 139.668 157.959 139.714 157.959C139.92 157.959 140.138 157.89 140.368 157.752C140.597 157.615 140.827 157.466 141.056 157.305C141.308 157.121 141.561 156.961 141.813 156.823C142.066 156.686 142.33 156.617 142.605 156.617C142.903 156.617 143.178 156.686 143.431 156.823C143.683 156.961 143.901 157.133 144.085 157.339C144.268 157.546 144.406 157.775 144.498 158.028C144.612 158.28 144.67 158.533 144.67 158.785C144.67 159.313 144.59 159.818 144.429 160.299C144.291 160.781 144.131 161.263 143.947 161.745C143.764 162.204 143.591 162.674 143.431 163.156C143.293 163.615 143.224 164.097 143.224 164.602C143.224 165.107 143.282 165.474 143.397 165.703C143.511 165.91 143.832 166.013 144.36 166.013C144.98 166.013 145.565 165.921 146.116 165.738C146.689 165.554 147.274 165.462 147.871 165.462C147.871 166.013 147.699 166.472 147.355 166.839C147.033 167.206 146.62 167.504 146.116 167.734C145.634 167.94 145.106 168.09 144.532 168.181C143.982 168.25 143.477 168.285 143.018 168.285C142.146 168.285 141.504 168.043 141.091 167.562C140.7 167.057 140.505 166.392 140.505 165.565C140.505 165.015 140.597 164.498 140.781 164.017C140.987 163.535 141.205 163.064 141.435 162.605C141.687 162.147 141.917 161.688 142.123 161.229C142.33 160.77 142.433 160.276 142.433 159.749C142.433 159.611 142.41 159.428 142.364 159.198C142.318 158.969 142.169 158.854 141.917 158.854C141.159 158.854 140.471 159.095 139.852 159.577C139.255 160.059 138.704 160.667 138.199 161.401C137.717 162.135 137.27 162.927 136.857 163.776C136.467 164.625 136.088 165.416 135.721 166.151C135.377 166.885 135.044 167.493 134.723 167.975C134.402 168.457 134.069 168.698 133.725 168.698C133.243 168.698 132.853 168.549 132.555 168.25C132.256 167.952 132.107 167.573 132.107 167.114ZM144.704 179.057C145.439 177.864 146.288 176.797 147.251 175.857C148.215 174.939 149.202 174.067 150.211 173.241C151.244 172.415 152.265 171.612 153.275 170.831C154.284 170.051 155.213 169.214 156.063 168.319C156.934 167.424 157.68 166.437 158.3 165.359C158.919 164.258 159.344 162.984 159.573 161.539C159.573 161.493 159.562 161.424 159.539 161.332C159.539 161.217 159.539 161.137 159.539 161.091C159.011 161.711 158.368 162.41 157.611 163.191C156.877 163.971 156.074 164.705 155.202 165.393C154.353 166.082 153.458 166.655 152.518 167.114C151.577 167.573 150.659 167.803 149.764 167.803C149.535 167.803 149.236 167.791 148.869 167.768C148.525 167.723 148.181 167.642 147.837 167.527C147.492 167.413 147.194 167.252 146.942 167.045C146.689 166.839 146.563 166.564 146.563 166.219C146.563 165.921 146.643 165.462 146.804 164.843C146.965 164.223 147.182 163.535 147.458 162.778C147.733 162.02 148.043 161.252 148.387 160.472C148.731 159.691 149.098 158.98 149.489 158.338C149.879 157.695 150.257 157.167 150.624 156.754C151.014 156.341 151.37 156.135 151.691 156.135C152.013 156.135 152.288 156.204 152.518 156.341C152.747 156.479 152.862 156.708 152.862 157.03C152.862 157.603 152.655 158.177 152.242 158.751C151.829 159.324 151.382 159.944 150.9 160.609C150.418 161.252 149.97 161.952 149.557 162.709C149.144 163.466 148.938 164.326 148.938 165.29C150.452 165.29 151.817 164.98 153.034 164.361C154.25 163.718 155.351 162.927 156.338 161.986C157.324 161.045 158.196 160.024 158.954 158.923C159.711 157.821 160.376 156.8 160.95 155.859C161.546 154.919 162.051 154.139 162.464 153.519C162.9 152.877 163.267 152.555 163.566 152.555C164.002 152.555 164.254 152.693 164.323 152.968C164.415 153.221 164.461 153.542 164.461 153.932C164.254 154.643 163.967 155.481 163.6 156.445C163.233 157.385 162.854 158.383 162.464 159.439C162.097 160.472 161.753 161.504 161.432 162.537C161.133 163.569 160.938 164.51 160.847 165.359C160.847 165.382 160.847 165.416 160.847 165.462C160.87 165.508 160.881 165.543 160.881 165.565C161.294 165.428 161.684 165.187 162.051 164.843C162.418 164.498 162.774 164.154 163.118 163.81C163.486 163.443 163.853 163.122 164.22 162.846C164.587 162.548 164.965 162.399 165.355 162.399C165.378 162.399 165.459 162.56 165.597 162.881C165.757 163.202 165.757 163.592 165.597 164.051C165.39 164.212 165.011 164.487 164.461 164.877C163.933 165.267 163.371 165.68 162.774 166.116C162.177 166.529 161.615 166.942 161.087 167.355C160.56 167.745 160.193 168.043 159.986 168.25C159.665 168.571 159.332 169.03 158.988 169.627C158.644 170.223 158.3 170.889 157.955 171.623C157.611 172.38 157.267 173.172 156.923 173.998C156.602 174.824 156.281 175.627 155.959 176.407C155.638 177.21 155.317 177.945 154.996 178.61C154.697 179.299 154.422 179.861 154.17 180.297C154.055 180.48 153.814 180.836 153.447 181.364C153.102 181.914 152.712 182.5 152.276 183.119C151.863 183.738 151.45 184.323 151.037 184.874C150.647 185.448 150.349 185.849 150.143 186.079C150.051 186.194 149.798 186.458 149.385 186.871C148.972 187.306 148.502 187.777 147.974 188.282C147.469 188.809 146.965 189.326 146.46 189.83C145.932 190.335 145.53 190.714 145.255 190.966C144.98 191.127 144.612 191.322 144.154 191.552C143.695 191.804 143.224 192.01 142.743 192.171C142.238 192.332 141.756 192.435 141.297 192.481C140.815 192.527 140.425 192.423 140.127 192.171C139.828 191.941 139.656 191.54 139.61 190.966C139.542 190.416 139.668 189.624 139.989 188.591C140.287 187.582 140.815 186.297 141.572 184.736C142.33 183.176 143.373 181.283 144.704 179.057ZM155.512 171.657C155.466 171.657 155.386 171.669 155.271 171.692C155.179 171.738 155.11 171.772 155.064 171.795C155.018 171.841 154.915 171.921 154.754 172.036C154.594 172.151 154.41 172.277 154.204 172.415C154.02 172.553 153.837 172.69 153.653 172.828C153.493 172.966 153.378 173.069 153.309 173.138C152.667 173.597 151.932 174.239 151.106 175.065C150.28 175.914 149.42 176.843 148.525 177.853C147.653 178.886 146.792 179.964 145.943 181.088C145.095 182.236 144.337 183.326 143.672 184.358C142.984 185.413 142.433 186.377 142.02 187.249C141.607 188.121 141.389 188.821 141.366 189.349C141.343 189.876 141.561 190.186 142.02 190.278C142.479 190.37 143.259 190.152 144.36 189.624C144.59 189.417 144.922 189.108 145.358 188.695C145.771 188.305 146.185 187.892 146.598 187.456C147.033 187.042 147.424 186.653 147.768 186.285C148.112 185.941 148.318 185.723 148.387 185.632C148.502 185.471 148.685 185.219 148.938 184.874C149.19 184.53 149.466 184.14 149.764 183.704C150.062 183.268 150.372 182.809 150.693 182.327C151.014 181.845 151.313 181.375 151.588 180.916C151.886 180.48 152.139 180.09 152.345 179.746C152.575 179.402 152.735 179.138 152.827 178.954C153.034 178.587 153.286 178.059 153.584 177.371C153.906 176.706 154.204 176.006 154.479 175.271C154.754 174.56 154.996 173.872 155.202 173.206C155.409 172.541 155.512 172.025 155.512 171.657ZM190.584 168.698C190.171 168.606 189.712 168.56 189.207 168.56C188.703 168.537 188.186 168.502 187.659 168.457C187.131 168.411 186.615 168.342 186.11 168.25C185.628 168.135 185.203 167.963 184.836 167.734C184.492 167.481 184.228 167.149 184.045 166.736C183.861 166.323 183.815 165.783 183.907 165.118C183.884 165.049 183.827 164.877 183.735 164.602C183.643 164.326 183.54 164.04 183.425 163.741C183.333 163.443 183.242 163.168 183.15 162.915C183.058 162.663 183.012 162.502 183.012 162.433C182.989 162.273 183.023 162.112 183.115 161.952C183.207 161.791 183.322 161.653 183.46 161.539C183.597 161.424 183.746 161.332 183.907 161.263C184.068 161.171 184.217 161.114 184.354 161.091C184.377 161.16 184.412 161.321 184.458 161.573C184.527 161.802 184.607 162.055 184.699 162.33C184.813 162.583 184.94 162.823 185.077 163.053C185.215 163.259 185.353 163.363 185.49 163.363C185.582 163.363 185.674 163.317 185.766 163.225C185.857 163.133 185.984 162.927 186.144 162.605C186.328 162.284 186.569 161.825 186.867 161.229C187.165 160.632 187.567 159.841 188.072 158.854C188.576 157.867 189.207 156.64 189.965 155.171C190.745 153.703 191.697 151.947 192.821 149.905C193.028 149.561 193.395 149.125 193.923 148.597C194.474 148.046 195.105 147.484 195.816 146.911C196.55 146.314 197.33 145.717 198.156 145.121C199.005 144.524 199.831 143.985 200.634 143.503C201.46 143.021 202.229 142.631 202.94 142.333C203.652 142.035 204.237 141.886 204.696 141.886C204.879 141.886 205.086 141.897 205.315 141.92C205.568 141.92 205.728 142.058 205.797 142.333C205.797 142.379 205.797 142.482 205.797 142.643C205.797 142.78 205.797 142.941 205.797 143.125C205.82 143.285 205.831 143.446 205.831 143.606C205.831 143.744 205.831 143.836 205.831 143.882C205.831 144.731 205.694 145.499 205.418 146.188C205.143 146.853 204.776 147.473 204.317 148.046C203.858 148.597 203.319 149.136 202.699 149.664C202.103 150.169 201.484 150.697 200.841 151.247C200.841 151.27 200.829 151.305 200.807 151.351C200.807 151.397 200.807 151.442 200.807 151.488C200.807 151.511 200.944 151.695 201.22 152.039C201.518 152.36 201.828 152.785 202.149 153.313C202.493 153.817 202.803 154.402 203.078 155.068C203.376 155.71 203.526 156.376 203.526 157.064C203.526 158.51 203.101 159.932 202.252 161.332C201.426 162.709 200.37 163.948 199.085 165.049C197.824 166.151 196.435 167.034 194.921 167.699C193.407 168.365 191.961 168.698 190.584 168.698ZM187.418 165.531C187.418 165.852 187.544 166.093 187.796 166.254C188.049 166.392 188.335 166.483 188.657 166.529C188.978 166.552 189.299 166.552 189.62 166.529C189.965 166.506 190.206 166.495 190.343 166.495C191.789 166.495 193.097 166.288 194.267 165.875C195.437 165.439 196.47 164.831 197.365 164.051C198.259 163.248 199.028 162.296 199.671 161.194C200.336 160.093 200.887 158.865 201.323 157.512C201.323 157.466 201.323 157.362 201.323 157.202C201.346 157.018 201.357 156.904 201.357 156.858C201.357 155.963 201.22 155.274 200.944 154.793C200.692 154.288 200.324 153.921 199.843 153.691C199.384 153.439 198.822 153.278 198.156 153.209C197.491 153.14 196.757 153.083 195.953 153.037C195.839 153.014 195.667 152.899 195.437 152.693C195.231 152.464 195.116 152.291 195.093 152.177C195.047 152.062 195.081 151.89 195.196 151.66C195.311 151.431 195.414 151.293 195.506 151.247C196.424 151.224 197.365 151.029 198.328 150.662C199.292 150.272 200.164 149.756 200.944 149.113C201.747 148.471 202.401 147.714 202.906 146.842C203.411 145.97 203.663 145.029 203.663 144.02C202.814 144.02 201.908 144.318 200.944 144.914C200.003 145.488 199.085 146.199 198.191 147.048C197.319 147.874 196.527 148.758 195.816 149.699C195.105 150.639 194.554 151.465 194.164 152.177C194.003 152.498 193.739 152.991 193.372 153.657C193.028 154.322 192.627 155.079 192.168 155.928C191.731 156.777 191.273 157.672 190.791 158.613C190.309 159.554 189.85 160.449 189.414 161.298C188.978 162.147 188.588 162.915 188.244 163.604C187.9 164.292 187.647 164.797 187.487 165.118C187.464 165.164 187.441 165.233 187.418 165.325C187.418 165.416 187.418 165.485 187.418 165.531ZM214.884 166.013C214.884 165.325 215.021 164.694 215.297 164.12C215.595 163.523 215.916 162.961 216.261 162.433C216.605 161.906 216.914 161.378 217.19 160.85C217.488 160.322 217.637 159.76 217.637 159.164C217.637 159.026 217.626 158.865 217.603 158.682C217.603 158.475 217.58 158.28 217.534 158.097C217.511 157.913 217.442 157.764 217.327 157.649C217.236 157.512 217.109 157.443 216.949 157.443C216.926 157.443 216.88 157.454 216.811 157.477C216.765 157.477 216.742 157.489 216.742 157.512C216.421 157.948 216.031 158.441 215.572 158.992C215.136 159.519 214.666 160.047 214.161 160.575C213.656 161.103 213.163 161.607 212.681 162.089C212.199 162.571 211.763 162.973 211.373 163.294C211.098 163.546 210.719 163.89 210.237 164.326C209.778 164.762 209.308 165.198 208.826 165.634C208.367 166.047 207.954 166.414 207.587 166.736C207.243 167.057 207.048 167.218 207.002 167.218L205.418 165.875C205.625 165.875 205.831 165.829 206.038 165.738C206.222 165.646 206.405 165.543 206.589 165.428C207.966 164.51 209.205 163.454 210.306 162.261C211.43 161.068 212.532 159.783 213.61 158.406C213.656 158.338 213.771 158.143 213.954 157.821C214.161 157.477 214.379 157.099 214.608 156.686C214.838 156.25 215.067 155.825 215.297 155.412C215.526 154.976 215.698 154.632 215.813 154.379C215.951 154.081 216.031 153.84 216.054 153.657C216.1 153.473 216.134 153.335 216.157 153.244C216.203 153.129 216.272 153.049 216.364 153.003C216.455 152.957 216.65 152.934 216.949 152.934C216.995 152.934 217.098 152.945 217.258 152.968C217.442 152.991 217.557 153.014 217.603 153.037C217.901 153.657 218.165 154.207 218.394 154.689C218.624 155.171 218.819 155.63 218.979 156.066C219.14 156.479 219.255 156.904 219.323 157.339C219.415 157.775 219.461 158.257 219.461 158.785C219.163 159.542 218.83 160.322 218.463 161.126C218.096 161.906 217.786 162.651 217.534 163.363C217.282 164.074 217.121 164.716 217.052 165.29C217.006 165.864 217.132 166.323 217.431 166.667C217.752 166.988 218.28 167.16 219.014 167.183C219.771 167.206 220.838 167.011 222.215 166.598C222.582 166.782 222.616 167.011 222.318 167.286C222.02 167.539 221.561 167.78 220.941 168.009C220.345 168.239 219.679 168.434 218.945 168.594C218.234 168.732 217.637 168.766 217.155 168.698C216.719 168.698 216.352 168.629 216.054 168.491C215.778 168.331 215.549 168.124 215.365 167.872C215.205 167.619 215.079 167.332 214.987 167.011C214.918 166.69 214.884 166.357 214.884 166.013ZM220.907 165.772C220.907 165.68 220.907 165.497 220.907 165.221C220.93 164.923 220.941 164.728 220.941 164.636C221.676 162.961 222.616 161.412 223.764 159.99C224.911 158.567 226.207 157.305 227.653 156.204C227.699 156.204 227.767 156.192 227.859 156.169C227.974 156.123 228.055 156.1 228.1 156.1C228.72 156.1 229.225 156.238 229.615 156.513C230.028 156.766 230.349 157.11 230.579 157.546C230.831 157.959 231.003 158.429 231.095 158.957C231.187 159.462 231.232 159.955 231.232 160.437C231.232 161.332 231.026 162.273 230.613 163.259C230.2 164.223 229.638 165.118 228.927 165.944C228.238 166.747 227.446 167.413 226.552 167.94C225.656 168.445 224.727 168.698 223.764 168.698C222.8 168.698 222.077 168.445 221.595 167.94C221.136 167.413 220.907 166.69 220.907 165.772ZM223.591 165.359C223.591 165.611 223.695 165.783 223.901 165.875C224.108 165.967 224.314 166.013 224.521 166.013C225.094 166.013 225.645 165.864 226.173 165.565C226.724 165.244 227.205 164.854 227.618 164.395C228.055 163.913 228.399 163.386 228.651 162.812C228.903 162.238 229.03 161.688 229.03 161.16C229.03 160.908 229.007 160.632 228.961 160.334C228.938 160.013 228.869 159.737 228.754 159.508C228.639 159.255 228.456 159.06 228.204 158.923C227.974 158.785 227.642 158.762 227.205 158.854C226.884 158.923 226.517 159.221 226.104 159.749C225.691 160.276 225.289 160.896 224.899 161.607C224.532 162.296 224.222 162.996 223.97 163.707C223.718 164.395 223.591 164.946 223.591 165.359ZM232.54 166.426C232.632 165.485 232.885 164.625 233.298 163.845C233.733 163.041 234.238 162.284 234.812 161.573C235.409 160.839 236.017 160.15 236.636 159.508C237.279 158.842 237.852 158.177 238.357 157.512C238.747 157.512 238.999 157.603 239.114 157.787C239.252 157.948 239.321 158.154 239.321 158.406C239.137 158.613 238.85 158.992 238.46 159.542C238.07 160.07 237.669 160.644 237.256 161.263C236.866 161.883 236.51 162.468 236.189 163.019C235.89 163.569 235.718 163.959 235.673 164.189C235.489 164.877 235.489 165.313 235.673 165.497C235.879 165.657 236.2 165.657 236.636 165.497C237.095 165.313 237.634 165.003 238.254 164.567C238.873 164.108 239.504 163.604 240.147 163.053C240.812 162.502 241.455 161.929 242.074 161.332C242.694 160.735 243.233 160.208 243.692 159.749H245.206C245.206 160.139 245.149 160.517 245.034 160.885C244.919 161.229 244.793 161.573 244.655 161.917C244.518 162.261 244.392 162.605 244.277 162.95C244.162 163.294 244.105 163.65 244.105 164.017C244.105 164.544 244.266 164.866 244.587 164.98C244.931 165.095 245.321 165.152 245.757 165.152C246.353 165.152 246.973 165.038 247.616 164.808C248.281 164.556 248.889 164.223 249.44 163.81C249.991 163.374 250.438 162.881 250.782 162.33C251.149 161.757 251.333 161.137 251.333 160.472C251.333 159.875 251.241 159.336 251.057 158.854C250.897 158.349 250.817 157.798 250.817 157.202C250.817 156.49 251.207 156.135 251.987 156.135C252.331 156.135 252.629 156.284 252.882 156.582C253.134 156.881 253.341 157.236 253.501 157.649C253.685 158.062 253.811 158.487 253.88 158.923C253.971 159.359 254.017 159.714 254.017 159.99C254.017 161.183 253.731 162.238 253.157 163.156C252.583 164.074 251.849 164.843 250.954 165.462C250.059 166.082 249.061 166.552 247.96 166.873C246.881 167.195 245.826 167.355 244.793 167.355C243.921 167.355 243.233 167.045 242.728 166.426C242.223 165.783 241.96 165.038 241.937 164.189C241.271 164.395 240.663 164.751 240.112 165.256C239.562 165.738 239.011 166.242 238.46 166.77C237.909 167.275 237.336 167.723 236.739 168.112C236.143 168.502 235.489 168.698 234.777 168.698C234.594 168.698 234.364 168.617 234.089 168.457C233.837 168.296 233.584 168.101 233.332 167.872C233.103 167.642 232.907 167.401 232.747 167.149C232.586 166.873 232.517 166.632 232.54 166.426ZM255.738 167.114C255.738 166.908 255.738 166.747 255.738 166.632C255.738 166.518 255.75 166.414 255.773 166.323C255.819 166.208 255.876 166.093 255.945 165.979C256.014 165.864 256.106 165.715 256.22 165.531C256.404 165.21 256.748 164.648 257.253 163.845C257.758 163.041 258.297 162.192 258.87 161.298C259.444 160.403 259.983 159.554 260.488 158.751C261.016 157.948 261.383 157.385 261.589 157.064C261.612 157.041 261.67 157.03 261.762 157.03C261.876 157.03 261.956 157.03 262.002 157.03C262.048 157.03 262.129 157.03 262.244 157.03C262.358 157.03 262.427 157.041 262.45 157.064C262.473 157.087 262.519 157.144 262.588 157.236C262.679 157.328 262.771 157.431 262.863 157.546C262.978 157.638 263.07 157.73 263.138 157.821C263.23 157.913 263.299 157.959 263.345 157.959C263.551 157.959 263.769 157.89 263.999 157.752C264.228 157.615 264.458 157.466 264.687 157.305C264.939 157.121 265.192 156.961 265.444 156.823C265.697 156.686 265.961 156.617 266.236 156.617C266.534 156.617 266.81 156.686 267.062 156.823C267.314 156.961 267.532 157.133 267.716 157.339C267.9 157.546 268.037 157.775 268.129 158.028C268.244 158.28 268.301 158.533 268.301 158.785C268.301 159.313 268.221 159.818 268.06 160.299C267.922 160.781 267.762 161.263 267.578 161.745C267.395 162.204 267.223 162.674 267.062 163.156C266.924 163.615 266.855 164.097 266.855 164.602C266.855 165.107 266.913 165.474 267.028 165.703C267.142 165.91 267.463 166.013 267.991 166.013C268.611 166.013 269.196 165.921 269.747 165.738C270.32 165.554 270.905 165.462 271.502 165.462C271.502 166.013 271.33 166.472 270.986 166.839C270.664 167.206 270.251 167.504 269.747 167.734C269.265 167.94 268.737 168.09 268.164 168.181C267.613 168.25 267.108 168.285 266.649 168.285C265.777 168.285 265.135 168.043 264.722 167.562C264.331 167.057 264.137 166.392 264.137 165.565C264.137 165.015 264.228 164.498 264.412 164.017C264.618 163.535 264.836 163.064 265.066 162.605C265.318 162.147 265.548 161.688 265.754 161.229C265.961 160.77 266.064 160.276 266.064 159.749C266.064 159.611 266.041 159.428 265.995 159.198C265.949 158.969 265.8 158.854 265.548 158.854C264.79 158.854 264.102 159.095 263.483 159.577C262.886 160.059 262.335 160.667 261.831 161.401C261.349 162.135 260.901 162.927 260.488 163.776C260.098 164.625 259.72 165.416 259.352 166.151C259.008 166.885 258.675 167.493 258.354 167.975C258.033 168.457 257.7 168.698 257.356 168.698C256.874 168.698 256.484 168.549 256.186 168.25C255.887 167.952 255.738 167.573 255.738 167.114Z" fill="black"/>
<path d="M65.7827 172.174H270.194V173.929H65.7827V172.174Z" fill="black"/>
<path d="M154.328 204.16C154.328 204.143 154.337 204.108 154.354 204.057C154.354 204.005 154.354 203.971 154.354 203.954C154.371 203.902 154.397 203.824 154.432 203.721C154.466 203.635 154.5 203.54 154.535 203.437C154.569 203.334 154.603 203.231 154.638 203.127C154.672 203.042 154.698 202.981 154.715 202.947C154.819 202.706 154.991 202.319 155.232 201.785C155.473 201.269 155.748 200.675 156.058 200.004C156.368 199.35 156.695 198.662 157.039 197.939C157.366 197.216 157.684 196.528 157.994 195.874C158.303 195.203 158.579 194.609 158.82 194.093C159.078 193.559 159.267 193.163 159.388 192.905C159.611 192.544 159.921 192.122 160.317 191.64C160.73 191.158 161.186 190.668 161.685 190.169C162.184 189.67 162.718 189.188 163.286 188.723C163.871 188.241 164.439 187.82 164.989 187.458C165.557 187.08 166.108 186.779 166.641 186.555C167.175 186.314 167.648 186.194 168.061 186.194C168.681 186.194 169.119 186.306 169.378 186.529C169.636 186.753 169.765 187.209 169.765 187.897C169.765 188.637 169.619 189.377 169.326 190.117C169.051 190.84 168.672 191.528 168.19 192.182C167.709 192.836 167.141 193.43 166.487 193.964C165.85 194.497 165.17 194.936 164.447 195.28C163.742 195.624 163.01 195.865 162.253 196.003C161.496 196.123 160.765 196.098 160.059 195.925L159.723 196.261L156.368 204.625C156.316 204.78 156.17 204.874 155.929 204.909C155.688 204.96 155.49 204.986 155.335 204.986C155.111 204.986 154.888 204.909 154.664 204.754C154.44 204.616 154.328 204.418 154.328 204.16ZM166.409 191.589C167.218 190.728 167.743 190.048 167.984 189.55C168.225 189.033 168.277 188.672 168.139 188.465C168.001 188.259 167.726 188.181 167.313 188.233C166.9 188.284 166.435 188.431 165.919 188.672C165.402 188.913 164.878 189.231 164.344 189.627C163.828 190.023 163.397 190.453 163.053 190.917C162.898 191.09 162.709 191.322 162.485 191.615C162.262 191.89 162.038 192.174 161.814 192.466C161.608 192.742 161.427 192.991 161.272 193.215C161.117 193.439 161.04 193.568 161.04 193.602V194.144C162.227 194.144 163.243 193.972 164.086 193.628C164.929 193.267 165.704 192.587 166.409 191.589ZM179.574 196.958C179.144 197.027 178.748 196.958 178.387 196.752C178.043 196.528 177.767 196.244 177.561 195.9C177.354 195.538 177.234 195.151 177.199 194.738C177.165 194.308 177.251 193.921 177.457 193.576C178.215 192.596 178.731 191.821 179.006 191.253C179.282 190.668 179.376 190.264 179.29 190.04C179.221 189.799 179.006 189.704 178.645 189.756C178.301 189.79 177.879 189.945 177.38 190.221C176.881 190.479 176.339 190.823 175.754 191.253C175.186 191.683 174.652 192.157 174.153 192.673C173.654 193.189 173.216 193.731 172.837 194.299C172.475 194.85 172.243 195.392 172.14 195.925C171.968 196.029 171.822 196.115 171.701 196.184C171.581 196.235 171.443 196.261 171.288 196.261C171.03 196.261 170.875 196.175 170.823 196.003C170.772 195.831 170.746 195.65 170.746 195.461C170.746 195.03 170.875 194.592 171.133 194.144C171.408 193.68 171.718 193.249 172.062 192.854C172.424 192.441 172.768 192.071 173.095 191.743C173.422 191.399 173.654 191.124 173.792 190.917C174.222 190.212 174.652 189.455 175.083 188.646C175.513 187.82 175.943 186.985 176.373 186.142C176.803 185.282 177.242 184.438 177.69 183.612C178.155 182.769 178.636 181.969 179.135 181.212C179.221 181.074 179.29 180.979 179.342 180.927C179.411 180.876 179.505 180.85 179.626 180.85C179.764 180.85 179.867 180.876 179.935 180.927C180.004 180.979 180.073 181.074 180.142 181.212C180.142 181.28 180.125 181.392 180.09 181.547C180.073 181.702 180.047 181.874 180.013 182.063C179.996 182.236 179.962 182.399 179.91 182.554C179.875 182.709 179.85 182.812 179.832 182.864C179.729 183.07 179.557 183.432 179.316 183.948C179.075 184.464 178.808 185.015 178.516 185.6C178.24 186.185 177.974 186.762 177.715 187.329C177.457 187.88 177.268 188.293 177.148 188.569C177.406 188.396 177.638 188.267 177.845 188.181C178.051 188.078 178.249 188.009 178.438 187.975C178.645 187.923 178.851 187.897 179.058 187.897C179.282 187.88 179.522 187.871 179.781 187.871C180.4 188.026 180.805 188.259 180.994 188.569C181.201 188.878 181.261 189.24 181.175 189.653C181.106 190.048 180.942 190.487 180.684 190.969C180.426 191.451 180.151 191.941 179.858 192.441C179.583 192.922 179.333 193.396 179.109 193.86C178.886 194.308 178.783 194.721 178.8 195.099C178.8 195.254 178.834 195.366 178.903 195.435C178.972 195.504 179.058 195.555 179.161 195.59C179.264 195.624 179.376 195.641 179.497 195.641C179.617 195.641 179.729 195.641 179.832 195.641C180.194 195.641 180.538 195.59 180.865 195.486C181.209 195.366 181.545 195.237 181.872 195.099C182.198 194.962 182.526 194.841 182.853 194.738C183.197 194.617 183.549 194.557 183.911 194.557C183.911 194.884 183.747 195.194 183.421 195.486C183.094 195.779 182.698 196.037 182.233 196.261C181.785 196.467 181.312 196.64 180.813 196.777C180.314 196.898 179.901 196.958 179.574 196.958ZM183.111 194.764C183.111 194.695 183.111 194.557 183.111 194.351C183.128 194.127 183.136 193.981 183.136 193.912C183.687 192.656 184.393 191.494 185.253 190.427C186.114 189.36 187.086 188.414 188.17 187.588C188.205 187.588 188.256 187.579 188.325 187.562C188.411 187.527 188.471 187.51 188.506 187.51C188.971 187.51 189.349 187.613 189.642 187.82C189.952 188.009 190.192 188.267 190.365 188.594C190.554 188.904 190.683 189.257 190.751 189.653C190.821 190.031 190.855 190.401 190.855 190.763C190.855 191.434 190.7 192.139 190.39 192.879C190.08 193.602 189.659 194.273 189.125 194.893C188.609 195.495 188.015 195.994 187.344 196.39C186.673 196.769 185.976 196.958 185.253 196.958C184.53 196.958 183.988 196.769 183.627 196.39C183.283 195.994 183.111 195.452 183.111 194.764ZM185.124 194.454C185.124 194.643 185.202 194.772 185.357 194.841C185.511 194.91 185.666 194.944 185.821 194.944C186.251 194.944 186.664 194.833 187.06 194.609C187.473 194.368 187.835 194.076 188.144 193.731C188.471 193.37 188.729 192.974 188.919 192.544C189.108 192.114 189.203 191.701 189.203 191.305C189.203 191.115 189.186 190.909 189.151 190.685C189.134 190.444 189.082 190.238 188.996 190.066C188.91 189.876 188.773 189.73 188.583 189.627C188.411 189.523 188.162 189.506 187.835 189.575C187.594 189.627 187.318 189.851 187.009 190.246C186.699 190.642 186.398 191.107 186.105 191.64C185.83 192.157 185.597 192.682 185.408 193.215C185.219 193.731 185.124 194.144 185.124 194.454ZM191.655 194.428C191.655 193.929 191.75 193.43 191.939 192.931C192.128 192.432 192.352 191.941 192.61 191.46C192.868 190.96 193.126 190.47 193.385 189.988C193.66 189.506 193.867 189.033 194.004 188.569C193.677 188.758 193.393 188.87 193.152 188.904C192.929 188.921 192.653 188.93 192.326 188.93C192.292 188.93 192.18 188.93 191.991 188.93C191.819 188.913 191.707 188.904 191.655 188.904C191.758 188.526 191.948 188.19 192.223 187.897C192.498 187.588 192.808 187.329 193.152 187.123C193.514 186.899 193.884 186.719 194.262 186.581C194.658 186.426 195.011 186.306 195.321 186.219C195.837 185.41 196.258 184.602 196.586 183.793C196.913 182.967 197.239 182.167 197.567 181.392C197.911 180.601 198.306 179.852 198.754 179.147C199.219 178.424 199.838 177.761 200.613 177.159L200.741 178.139L197.515 185.703C197.704 185.651 197.937 185.6 198.212 185.548C198.487 185.497 198.763 185.445 199.038 185.393C199.33 185.342 199.606 185.299 199.864 185.264C200.139 185.213 200.371 185.161 200.561 185.109C200.578 185.109 200.63 185.109 200.716 185.109C200.802 185.092 200.871 185.084 200.922 185.084C201.163 185.084 201.361 185.127 201.516 185.213C201.671 185.299 201.8 185.488 201.903 185.781C200.733 186.125 199.675 186.486 198.728 186.865C197.782 187.243 196.956 187.743 196.25 188.362C195.562 188.964 194.994 189.739 194.546 190.685C194.116 191.615 193.815 192.81 193.643 194.273C193.643 194.583 193.66 194.867 193.694 195.125C193.729 195.383 193.944 195.538 194.34 195.59C194.736 195.59 195.106 195.512 195.45 195.358C195.794 195.203 196.13 195.039 196.456 194.867C196.783 194.678 197.111 194.506 197.437 194.351C197.782 194.196 198.152 194.118 198.547 194.118C198.547 194.531 198.367 194.91 198.005 195.254C197.644 195.598 197.205 195.9 196.689 196.158C196.19 196.416 195.674 196.614 195.14 196.752C194.606 196.889 194.168 196.958 193.823 196.958C193.479 196.958 193.169 196.889 192.894 196.752C192.619 196.614 192.386 196.433 192.197 196.209C192.025 195.968 191.887 195.693 191.784 195.383C191.698 195.074 191.655 194.755 191.655 194.428ZM198.78 194.764C198.78 194.695 198.78 194.557 198.78 194.351C198.797 194.127 198.806 193.981 198.806 193.912C199.356 192.656 200.062 191.494 200.922 190.427C201.783 189.36 202.755 188.414 203.839 187.588C203.873 187.588 203.925 187.579 203.994 187.562C204.08 187.527 204.14 187.51 204.175 187.51C204.639 187.51 205.018 187.613 205.311 187.82C205.62 188.009 205.861 188.267 206.033 188.594C206.223 188.904 206.352 189.257 206.421 189.653C206.489 190.031 206.524 190.401 206.524 190.763C206.524 191.434 206.369 192.139 206.059 192.879C205.749 193.602 205.328 194.273 204.794 194.893C204.278 195.495 203.684 195.994 203.013 196.39C202.342 196.769 201.645 196.958 200.922 196.958C200.2 196.958 199.657 196.769 199.296 196.39C198.952 195.994 198.78 195.452 198.78 194.764ZM200.793 194.454C200.793 194.643 200.871 194.772 201.026 194.841C201.181 194.91 201.335 194.944 201.49 194.944C201.92 194.944 202.333 194.833 202.729 194.609C203.142 194.368 203.504 194.076 203.813 193.731C204.14 193.37 204.398 192.974 204.588 192.544C204.777 192.114 204.872 191.701 204.872 191.305C204.872 191.115 204.854 190.909 204.82 190.685C204.803 190.444 204.751 190.238 204.665 190.066C204.579 189.876 204.441 189.73 204.252 189.627C204.08 189.523 203.831 189.506 203.504 189.575C203.263 189.627 202.987 189.851 202.678 190.246C202.368 190.642 202.067 191.107 201.774 191.64C201.499 192.157 201.266 192.682 201.077 193.215C200.888 193.731 200.793 194.144 200.793 194.454ZM202.626 210.639C202.626 209.658 202.798 208.781 203.142 208.006C203.469 207.232 203.908 206.509 204.459 205.838C205.009 205.184 205.638 204.573 206.343 204.005C207.049 203.455 207.772 202.912 208.511 202.379C209.252 201.863 209.974 201.338 210.68 200.804C211.385 200.271 212.013 199.703 212.564 199.1C213.115 198.498 213.554 197.844 213.881 197.138C214.225 196.433 214.397 195.65 214.397 194.79C214.397 194.755 214.397 194.678 214.397 194.557C214.397 194.42 214.388 194.334 214.371 194.299C214.251 194.402 214.018 194.557 213.674 194.764C213.33 194.953 212.96 195.16 212.564 195.383C212.186 195.59 211.816 195.779 211.454 195.951C211.093 196.123 210.835 196.235 210.68 196.287C210.663 196.287 210.594 196.296 210.473 196.312C210.37 196.33 210.241 196.347 210.086 196.364C209.948 196.381 209.811 196.399 209.673 196.416C209.535 196.416 209.424 196.416 209.337 196.416C208.563 196.278 208.047 196.011 207.789 195.616C207.53 195.203 207.462 194.721 207.582 194.17C207.703 193.62 207.97 193.034 208.383 192.415C208.813 191.778 209.32 191.176 209.905 190.608C210.508 190.023 211.153 189.506 211.842 189.059C212.547 188.594 213.227 188.267 213.881 188.078C214.552 187.871 215.163 187.828 215.713 187.949C216.281 188.052 216.72 188.388 217.03 188.956C217.133 189.678 217.133 190.358 217.03 190.995C216.927 191.615 216.789 192.226 216.617 192.828C216.445 193.43 216.273 194.041 216.101 194.66C215.929 195.263 215.825 195.925 215.791 196.648H216.023C216.126 196.545 216.299 196.364 216.539 196.106C216.798 195.848 217.064 195.581 217.34 195.306C217.632 195.013 217.908 194.747 218.166 194.506C218.424 194.248 218.605 194.067 218.708 193.964C218.759 193.912 218.863 193.843 219.018 193.757C219.19 193.671 219.31 193.628 219.379 193.628V193.705V193.757C219.379 193.774 219.388 193.783 219.405 193.783C219.405 194.402 219.224 194.97 218.863 195.486C218.519 196.003 218.097 196.485 217.598 196.932C217.099 197.38 216.583 197.793 216.049 198.171C215.516 198.567 215.068 198.945 214.707 199.307C214.414 199.909 214.096 200.658 213.752 201.553C213.407 202.465 213.029 203.429 212.616 204.444C212.203 205.476 211.738 206.518 211.222 207.568C210.723 208.634 210.155 209.615 209.518 210.51C208.899 211.405 208.21 212.171 207.453 212.808C206.696 213.461 205.853 213.883 204.923 214.073C204.476 214.073 204.106 213.961 203.813 213.737C203.504 213.513 203.263 213.229 203.091 212.885C202.919 212.558 202.798 212.188 202.729 211.775C202.66 211.379 202.626 211.001 202.626 210.639ZM203.994 212.033C204.132 212.36 204.295 212.558 204.485 212.627C204.674 212.696 204.889 212.73 205.13 212.73C205.577 212.73 206.068 212.498 206.601 212.033C207.135 211.569 207.668 210.966 208.202 210.226C208.753 209.503 209.277 208.695 209.777 207.8C210.275 206.905 210.714 206.036 211.093 205.193C211.489 204.349 211.798 203.575 212.022 202.869C212.263 202.181 212.384 201.665 212.384 201.32C212.384 201.286 212.375 201.226 212.358 201.14C212.358 201.071 212.358 201.019 212.358 200.985C212.306 201.019 212.186 201.071 211.996 201.14C211.824 201.226 211.721 201.286 211.687 201.32C210.964 201.854 210.146 202.439 209.234 203.076C208.34 203.73 207.505 204.444 206.73 205.218C205.939 205.993 205.276 206.827 204.743 207.722C204.209 208.634 203.942 209.615 203.942 210.665C203.942 210.717 203.942 210.812 203.942 210.949C203.942 211.087 203.951 211.225 203.968 211.362C203.968 211.5 203.977 211.629 203.994 211.749C203.994 211.887 203.994 211.982 203.994 212.033ZM215.378 189.265C215.103 189.265 214.741 189.36 214.294 189.55C213.847 189.721 213.365 189.963 212.848 190.272C212.349 190.582 211.842 190.935 211.325 191.33C210.809 191.726 210.336 192.139 209.905 192.57C209.492 193 209.157 193.43 208.899 193.86C208.641 194.291 208.511 194.686 208.511 195.048C208.873 195.048 209.312 194.979 209.828 194.841C210.344 194.686 210.878 194.489 211.429 194.248C211.996 193.989 212.556 193.697 213.106 193.37C213.657 193.026 214.148 192.664 214.578 192.286C215.025 191.907 215.387 191.52 215.662 191.124C215.937 190.728 216.075 190.341 216.075 189.963C216.075 189.498 215.843 189.265 215.378 189.265ZM224.8 194.944C224.8 194.428 224.903 193.955 225.11 193.525C225.334 193.077 225.575 192.656 225.833 192.26C226.091 191.864 226.323 191.468 226.529 191.072C226.753 190.677 226.865 190.255 226.865 189.808C226.865 189.704 226.857 189.584 226.839 189.446C226.839 189.291 226.822 189.145 226.788 189.007C226.771 188.87 226.719 188.758 226.633 188.672C226.564 188.569 226.469 188.517 226.349 188.517C226.332 188.517 226.297 188.526 226.246 188.542C226.211 188.542 226.194 188.551 226.194 188.569C225.953 188.895 225.66 189.265 225.316 189.678C224.989 190.074 224.637 190.47 224.258 190.866C223.879 191.262 223.509 191.64 223.148 192.002C222.787 192.363 222.459 192.664 222.167 192.905C221.96 193.095 221.677 193.353 221.315 193.68C220.971 194.006 220.618 194.334 220.257 194.66C219.913 194.97 219.603 195.246 219.327 195.486C219.069 195.728 218.923 195.848 218.889 195.848L217.701 194.841C217.856 194.841 218.011 194.807 218.166 194.738C218.304 194.669 218.441 194.592 218.579 194.506C219.612 193.817 220.541 193.026 221.367 192.131C222.21 191.236 223.036 190.272 223.845 189.24C223.879 189.188 223.965 189.042 224.103 188.801C224.258 188.542 224.421 188.259 224.594 187.949C224.766 187.622 224.938 187.303 225.11 186.994C225.282 186.667 225.411 186.409 225.497 186.219C225.6 185.996 225.66 185.815 225.678 185.677C225.712 185.54 225.738 185.437 225.755 185.368C225.79 185.282 225.841 185.221 225.91 185.187C225.979 185.152 226.125 185.135 226.349 185.135C226.383 185.135 226.461 185.144 226.581 185.161C226.719 185.178 226.805 185.195 226.839 185.213C227.063 185.677 227.261 186.09 227.433 186.452C227.605 186.813 227.752 187.157 227.872 187.484C227.992 187.794 228.078 188.113 228.13 188.439C228.199 188.766 228.233 189.128 228.233 189.523C228.01 190.091 227.76 190.677 227.485 191.279C227.209 191.864 226.977 192.423 226.788 192.957C226.598 193.49 226.478 193.972 226.426 194.402C226.392 194.833 226.486 195.177 226.71 195.435C226.951 195.676 227.347 195.805 227.898 195.822C228.466 195.839 229.266 195.693 230.298 195.383C230.574 195.521 230.599 195.693 230.376 195.9C230.152 196.089 229.808 196.269 229.343 196.442C228.896 196.614 228.397 196.76 227.846 196.88C227.313 196.984 226.865 197.01 226.504 196.958C226.177 196.958 225.901 196.906 225.678 196.803C225.471 196.682 225.299 196.528 225.162 196.338C225.041 196.149 224.946 195.934 224.877 195.693C224.826 195.452 224.8 195.203 224.8 194.944ZM229.317 195.254C229.472 194.273 229.765 193.37 230.195 192.544C230.626 191.718 231.116 191.004 231.667 190.401C232.234 189.782 232.846 189.274 233.499 188.878C234.153 188.482 234.79 188.233 235.41 188.129C236.029 188.009 236.597 188.035 237.113 188.207C237.647 188.379 238.077 188.723 238.404 189.24C238.404 189.635 238.309 190.014 238.12 190.376C237.948 190.737 237.75 191.098 237.526 191.46C237.32 191.821 237.122 192.191 236.932 192.57C236.761 192.948 236.674 193.353 236.674 193.783C236.674 194.23 236.769 194.592 236.959 194.867C237.165 195.125 237.518 195.254 238.017 195.254C238.43 195.254 238.826 195.194 239.204 195.074C239.6 194.953 239.996 194.893 240.392 194.893C240.461 194.893 240.572 194.902 240.727 194.919C240.899 194.919 241.011 194.919 241.063 194.919C240.856 195.211 240.589 195.461 240.263 195.667C239.936 195.874 239.592 196.054 239.23 196.209C238.869 196.347 238.49 196.45 238.094 196.519C237.716 196.588 237.363 196.622 237.036 196.622C236.726 196.622 236.451 196.554 236.21 196.416C235.969 196.278 235.762 196.098 235.59 195.874C235.418 195.65 235.28 195.4 235.177 195.125C235.091 194.833 235.048 194.549 235.048 194.273C234.79 194.566 234.506 194.875 234.196 195.203C233.904 195.512 233.585 195.796 233.241 196.054C232.914 196.312 232.553 196.528 232.157 196.7C231.778 196.872 231.383 196.958 230.97 196.958C230.522 196.958 230.135 196.794 229.808 196.467C229.481 196.123 229.317 195.719 229.317 195.254ZM231.021 194.454C231.021 194.592 231.021 194.747 231.021 194.919C231.039 195.091 231.15 195.203 231.357 195.254C231.787 195.151 232.278 194.927 232.828 194.583C233.379 194.222 233.895 193.809 234.377 193.344C234.859 192.862 235.263 192.354 235.59 191.821C235.917 191.27 236.081 190.745 236.081 190.246C236.081 190.212 236.072 190.16 236.055 190.091C236.055 190.005 236.055 189.945 236.055 189.911C235.47 189.911 234.876 190.031 234.274 190.272C233.672 190.513 233.129 190.849 232.647 191.279C232.166 191.692 231.77 192.174 231.46 192.724C231.167 193.275 231.021 193.852 231.021 194.454ZM237.113 204.16C237.113 204.143 237.122 204.108 237.139 204.057C237.139 204.005 237.139 203.971 237.139 203.954C237.156 203.902 237.182 203.824 237.217 203.721C237.251 203.635 237.285 203.54 237.32 203.437C237.354 203.334 237.389 203.231 237.423 203.127C237.457 203.042 237.483 202.981 237.5 202.947C237.604 202.706 237.776 202.319 238.017 201.785C238.258 201.269 238.533 200.675 238.843 200.004C239.152 199.35 239.48 198.662 239.824 197.939C240.151 197.216 240.469 196.528 240.779 195.874C241.089 195.203 241.364 194.609 241.605 194.093C241.863 193.559 242.052 193.163 242.173 192.905C242.396 192.544 242.706 192.122 243.102 191.64C243.515 191.158 243.971 190.668 244.47 190.169C244.969 189.67 245.503 189.188 246.071 188.723C246.656 188.241 247.224 187.82 247.775 187.458C248.342 187.08 248.893 186.779 249.427 186.555C249.96 186.314 250.433 186.194 250.846 186.194C251.466 186.194 251.905 186.306 252.163 186.529C252.421 186.753 252.55 187.209 252.55 187.897C252.55 188.637 252.404 189.377 252.111 190.117C251.836 190.84 251.457 191.528 250.975 192.182C250.493 192.836 249.926 193.43 249.272 193.964C248.635 194.497 247.955 194.936 247.232 195.28C246.527 195.624 245.795 195.865 245.038 196.003C244.281 196.123 243.55 196.098 242.844 195.925L242.508 196.261L239.152 204.625C239.101 204.78 238.955 204.874 238.714 204.909C238.473 204.96 238.275 204.986 238.12 204.986C237.896 204.986 237.673 204.909 237.449 204.754C237.225 204.616 237.113 204.418 237.113 204.16ZM249.194 191.589C250.003 190.728 250.528 190.048 250.769 189.55C251.01 189.033 251.061 188.672 250.924 188.465C250.786 188.259 250.511 188.181 250.098 188.233C249.685 188.284 249.22 188.431 248.704 188.672C248.188 188.913 247.663 189.231 247.129 189.627C246.613 190.023 246.183 190.453 245.838 190.917C245.683 191.09 245.494 191.322 245.27 191.615C245.047 191.89 244.823 192.174 244.599 192.466C244.393 192.742 244.212 192.991 244.057 193.215C243.902 193.439 243.825 193.568 243.825 193.602V194.144C245.012 194.144 246.028 193.972 246.871 193.628C247.714 193.267 248.489 192.587 249.194 191.589ZM262.359 196.958C261.929 197.027 261.533 196.958 261.172 196.752C260.827 196.528 260.552 196.244 260.346 195.9C260.139 195.538 260.019 195.151 259.984 194.738C259.95 194.308 260.036 193.921 260.243 193.576C261 192.596 261.516 191.821 261.791 191.253C262.067 190.668 262.161 190.264 262.075 190.04C262.006 189.799 261.791 189.704 261.43 189.756C261.086 189.79 260.664 189.945 260.165 190.221C259.666 190.479 259.124 190.823 258.539 191.253C257.971 191.683 257.437 192.157 256.938 192.673C256.439 193.189 256 193.731 255.622 194.299C255.26 194.85 255.028 195.392 254.925 195.925C254.753 196.029 254.606 196.115 254.486 196.184C254.366 196.235 254.228 196.261 254.073 196.261C253.815 196.261 253.66 196.175 253.608 196.003C253.557 195.831 253.531 195.65 253.531 195.461C253.531 195.03 253.66 194.592 253.918 194.144C254.193 193.68 254.503 193.249 254.847 192.854C255.209 192.441 255.553 192.071 255.88 191.743C256.207 191.399 256.439 191.124 256.577 190.917C257.007 190.212 257.437 189.455 257.868 188.646C258.298 187.82 258.728 186.985 259.158 186.142C259.588 185.282 260.028 184.438 260.475 183.612C260.939 182.769 261.421 181.969 261.92 181.212C262.006 181.074 262.075 180.979 262.127 180.927C262.196 180.876 262.29 180.85 262.411 180.85C262.549 180.85 262.652 180.876 262.721 180.927C262.789 180.979 262.858 181.074 262.927 181.212C262.927 181.28 262.91 181.392 262.875 181.547C262.858 181.702 262.832 181.874 262.798 182.063C262.781 182.236 262.746 182.399 262.695 182.554C262.66 182.709 262.634 182.812 262.617 182.864C262.514 183.07 262.342 183.432 262.101 183.948C261.86 184.464 261.593 185.015 261.301 185.6C261.025 186.185 260.759 186.762 260.501 187.329C260.243 187.88 260.053 188.293 259.933 188.569C260.191 188.396 260.423 188.267 260.63 188.181C260.836 188.078 261.034 188.009 261.223 187.975C261.43 187.923 261.636 187.897 261.843 187.897C262.067 187.88 262.308 187.871 262.566 187.871C263.185 188.026 263.59 188.259 263.779 188.569C263.986 188.878 264.046 189.24 263.96 189.653C263.891 190.048 263.727 190.487 263.469 190.969C263.211 191.451 262.936 191.941 262.643 192.441C262.368 192.922 262.118 193.396 261.895 193.86C261.671 194.308 261.568 194.721 261.585 195.099C261.585 195.254 261.619 195.366 261.688 195.435C261.757 195.504 261.843 195.555 261.946 195.59C262.049 195.624 262.161 195.641 262.282 195.641C262.402 195.641 262.514 195.641 262.617 195.641C262.979 195.641 263.323 195.59 263.65 195.486C263.994 195.366 264.33 195.237 264.657 195.099C264.984 194.962 265.311 194.841 265.638 194.738C265.982 194.617 266.334 194.557 266.696 194.557C266.696 194.884 266.532 195.194 266.206 195.486C265.878 195.779 265.483 196.037 265.018 196.261C264.571 196.467 264.098 196.64 263.598 196.777C263.099 196.898 262.686 196.958 262.359 196.958ZM265.844 195.59C265.551 194.936 265.422 194.299 265.457 193.68C265.491 193.043 265.629 192.449 265.87 191.898C266.128 191.33 266.455 190.823 266.851 190.376C267.264 189.911 267.703 189.515 268.167 189.188C268.632 188.844 269.097 188.586 269.561 188.414C270.043 188.241 270.465 188.173 270.826 188.207C271.188 188.224 271.471 188.353 271.678 188.594C271.884 188.835 271.953 189.205 271.884 189.704C271.884 190.376 271.67 190.96 271.239 191.46C270.826 191.959 270.361 192.406 269.845 192.802C269.346 193.198 268.882 193.559 268.451 193.886C268.038 194.196 267.832 194.489 267.832 194.764C267.832 194.919 267.918 195.039 268.09 195.125C268.279 195.211 268.494 195.28 268.735 195.332C268.976 195.366 269.217 195.392 269.458 195.409C269.699 195.426 269.871 195.443 269.974 195.461C271.592 195.117 272.805 194.91 273.614 194.841C274.423 194.755 274.93 194.764 275.137 194.867C275.343 194.953 275.3 195.099 275.008 195.306C274.733 195.495 274.302 195.702 273.717 195.925C273.132 196.132 272.452 196.321 271.678 196.493C270.904 196.665 270.138 196.769 269.381 196.803C268.623 196.82 267.918 196.743 267.264 196.571C266.627 196.399 266.154 196.072 265.844 195.59ZM270.361 189.704C270.017 189.704 269.69 189.799 269.381 189.988C269.071 190.178 268.787 190.419 268.529 190.711C268.288 190.986 268.081 191.296 267.909 191.64C267.737 191.967 267.608 192.277 267.522 192.57C267.556 192.587 267.582 192.596 267.6 192.596H267.677C267.918 192.596 268.193 192.492 268.503 192.286C268.813 192.079 269.105 191.83 269.381 191.537C269.656 191.227 269.888 190.909 270.078 190.582C270.267 190.255 270.361 189.963 270.361 189.704ZM280.274 194.944C280.274 194.428 280.377 193.955 280.584 193.525C280.807 193.077 281.048 192.656 281.307 192.26C281.565 191.864 281.797 191.468 282.004 191.072C282.227 190.677 282.339 190.255 282.339 189.808C282.339 189.704 282.331 189.584 282.313 189.446C282.313 189.291 282.296 189.145 282.262 189.007C282.244 188.87 282.193 188.758 282.107 188.672C282.038 188.569 281.943 188.517 281.823 188.517C281.806 188.517 281.771 188.526 281.72 188.542C281.685 188.542 281.668 188.551 281.668 188.569C281.427 188.895 281.135 189.265 280.79 189.678C280.463 190.074 280.111 190.47 279.732 190.866C279.353 191.262 278.983 191.64 278.622 192.002C278.261 192.363 277.934 192.664 277.641 192.905C277.435 193.095 277.15 193.353 276.789 193.68C276.445 194.006 276.092 194.334 275.731 194.66C275.387 194.97 275.077 195.246 274.802 195.486C274.543 195.728 274.397 195.848 274.362 195.848L273.175 194.841C273.33 194.841 273.485 194.807 273.64 194.738C273.778 194.669 273.915 194.592 274.053 194.506C275.085 193.817 276.015 193.026 276.841 192.131C277.684 191.236 278.51 190.272 279.319 189.24C279.353 189.188 279.44 189.042 279.577 188.801C279.732 188.542 279.895 188.259 280.068 187.949C280.239 187.622 280.412 187.303 280.584 186.994C280.756 186.667 280.885 186.409 280.971 186.219C281.074 185.996 281.135 185.815 281.152 185.677C281.186 185.54 281.212 185.437 281.229 185.368C281.263 185.282 281.315 185.221 281.384 185.187C281.453 185.152 281.599 185.135 281.823 185.135C281.857 185.135 281.935 185.144 282.055 185.161C282.193 185.178 282.279 185.195 282.313 185.213C282.537 185.677 282.735 186.09 282.907 186.452C283.079 186.813 283.225 187.157 283.346 187.484C283.466 187.794 283.552 188.113 283.604 188.439C283.673 188.766 283.707 189.128 283.707 189.523C283.483 190.091 283.234 190.677 282.959 191.279C282.683 191.864 282.451 192.423 282.262 192.957C282.072 193.49 281.952 193.972 281.9 194.402C281.866 194.833 281.961 195.177 282.184 195.435C282.425 195.676 282.821 195.805 283.372 195.822C283.939 195.839 284.74 195.693 285.773 195.383C286.048 195.521 286.074 195.693 285.85 195.9C285.626 196.089 285.282 196.269 284.817 196.442C284.37 196.614 283.871 196.76 283.32 196.88C282.787 196.984 282.339 197.01 281.978 196.958C281.651 196.958 281.375 196.906 281.152 196.803C280.945 196.682 280.773 196.528 280.635 196.338C280.515 196.149 280.42 195.934 280.351 195.693C280.3 195.452 280.274 195.203 280.274 194.944Z" fill="#646464"/>
<defs>
<filter id="filter0_b_478_18" x="-10" y="-10" width="370" height="370" filterUnits="userSpaceOnUse" color-interpolation-filters="sRGB">
<feFlood flood-opacity="0" result="BackgroundImageFix"/>
<feGaussianBlur in="BackgroundImage" stdDeviation="5"/>
<feComposite in2="SourceAlpha" operator="in" result="effect1_backgroundBlur_478_18"/>
<feBlend mode="normal" in="SourceGraphic" in2="effect1_backgroundBlur_478_18" result="shape"/>
</filter>
</defs>
</svg>
