<svg width="851" height="541" viewBox="0 0 851 541" fill="none" xmlns="http://www.w3.org/2000/svg">
<path d="M765.04 47.8313L756.49 45.7413L756.49 68.5413L765.04 66.4513C770.993 64.9313 777.453 63.4113 784.42 61.8913C791.387 60.3713 797.973 58.8513 804.18 57.3313L804.18 56.5713C797.973 55.3046 791.387 53.9113 784.42 52.3913C777.453 50.8713 770.993 49.3513 765.04 47.8313ZM705 0.331271L828.5 37.9513L828.5 77.4713L705 115.091L705 80.5113L731.22 74.4313L731.22 39.8513L705 33.7713L705 0.331271ZM705 118.318L828.5 118.318L828.5 154.798C828.5 167.338 826.41 178.358 822.23 187.858C818.177 197.485 811.653 204.958 802.66 210.278C793.667 215.598 781.887 218.258 767.32 218.258C752.753 218.258 740.847 215.598 731.6 210.278C722.48 204.958 715.767 197.675 711.46 188.428C707.153 179.182 705 168.605 705 156.698L705 118.318ZM731.22 150.998L731.22 152.898C731.22 158.852 732.233 164.235 734.26 169.048C736.287 173.862 739.897 177.662 745.09 180.448C750.283 183.362 757.693 184.818 767.32 184.818C776.947 184.818 784.23 183.362 789.17 180.448C794.237 177.662 797.657 173.862 799.43 169.048C801.33 164.235 802.28 158.852 802.28 152.898L802.28 150.998L731.22 150.998ZM705 250.717L828.5 214.237L828.5 248.817L774.54 261.737C767.953 263.51 761.43 265.03 754.97 266.297C748.637 267.69 742.113 269.21 735.4 270.857L735.4 271.617C742.113 273.39 748.637 274.91 754.97 276.177C761.43 277.57 767.953 279.09 774.54 280.737L828.5 293.277L828.5 326.717L705 290.237L705 250.717ZM705 329.998L828.5 329.998L828.5 409.798L801.14 409.798L801.14 362.678L781.76 362.678L781.76 402.958L754.4 402.958L754.4 362.678L732.36 362.678L732.36 411.698L705 411.698L705 329.998ZM705 427.024L828.5 427.024L828.5 460.464L773.4 487.824L745.66 499.604L745.66 500.364C752.373 499.604 759.973 498.717 768.46 497.704C777.073 496.69 785.18 496.184 792.78 496.184L828.5 496.184L828.5 527.344L705 527.344L705 493.904L760.29 466.544L787.84 454.764L787.84 454.004C780.873 454.764 773.147 455.65 764.66 456.664C756.3 457.677 748.32 458.184 740.72 458.184L705 458.184L705 427.024ZM549 68.0455L645.14 68.0455L645.14 35.3655L672.5 35.3655L672.5 133.405L645.14 133.405L645.14 100.725L549 100.725L549 68.0455ZM609.04 167.494L600.49 165.404L600.49 188.204L609.04 186.114C614.993 184.594 621.453 183.074 628.42 181.554C635.387 180.034 641.973 178.514 648.18 176.994L648.18 176.234C641.973 174.967 635.387 173.574 628.42 172.054C621.453 170.534 614.993 169.014 609.04 167.494ZM549 119.994L672.5 157.614L672.5 197.134L549 234.754L549 200.174L575.22 194.094L575.22 159.514L549 153.434L549 119.994ZM546.72 293.126C546.72 281.599 549 271.086 553.56 261.586C558.247 252.212 565.277 244.739 574.65 239.166C584.023 233.592 595.74 230.806 609.8 230.806C620.187 230.806 629.37 232.452 637.35 235.746C645.457 239.039 652.297 243.536 657.87 249.236C663.443 254.936 667.623 261.459 670.41 268.806C673.323 276.279 674.78 284.132 674.78 292.366C674.78 301.486 673.133 309.402 669.84 316.116C666.673 322.829 662.873 328.339 658.44 332.646L637.54 315.546C640.2 312.506 642.353 309.276 644 305.856C645.773 302.562 646.66 298.446 646.66 293.506C646.66 285.146 643.493 278.179 637.16 272.606C630.953 267.032 622.213 264.246 610.94 264.246C599.413 264.246 590.483 266.842 584.15 272.036C577.943 277.356 574.84 285.526 574.84 296.546C574.84 298.319 575.03 300.029 575.41 301.676C575.79 303.449 576.36 304.906 577.12 306.046L594.22 306.046L594.22 287.806L620.82 287.806L620.82 334.926L561.92 334.926C557.74 330.619 554.13 324.729 551.09 317.256C548.177 309.909 546.72 301.866 546.72 293.126ZM549 350.408L672.5 350.408L672.5 430.208L645.14 430.208L645.14 383.088L625.76 383.088L625.76 423.368L598.4 423.368L598.4 383.088L576.36 383.088L576.36 432.108L549 432.108L549 350.408ZM546.72 486.574C546.72 478.847 548.177 470.804 551.09 462.444C554.003 454.084 558.437 446.547 564.39 439.834L586.81 458.454C583.263 462.887 580.35 467.637 578.07 472.704C575.917 477.897 574.84 482.774 574.84 487.334C574.84 492.274 575.6 495.821 577.12 497.974C578.64 500.254 580.793 501.394 583.58 501.394C586.493 501.394 588.71 499.874 590.23 496.834C591.75 493.921 593.523 489.867 595.55 484.674L602.01 469.284C604.67 462.697 608.85 456.871 614.55 451.804C620.25 446.864 627.533 444.394 636.4 444.394C643.493 444.394 649.89 446.357 655.59 450.284C661.417 454.211 666.04 459.594 669.46 466.434C673.007 473.401 674.78 481.381 674.78 490.374C674.78 497.467 673.387 504.624 670.6 511.844C667.94 519.191 663.823 525.714 658.25 531.414L637.73 515.074C640.643 510.894 642.86 506.841 644.38 502.914C645.9 499.114 646.66 494.934 646.66 490.374C646.66 486.447 645.963 483.281 644.57 480.874C643.177 478.594 641.087 477.454 638.3 477.454C635.387 477.454 633.107 479.101 631.46 482.394C629.94 485.687 628.103 490.121 625.95 495.694L620.06 510.704C617.02 518.431 612.777 524.384 607.33 528.564C601.883 532.744 594.853 534.834 586.24 534.834C579.273 534.834 572.75 532.934 566.67 529.134C560.717 525.461 555.903 520.014 552.23 512.794C548.557 505.574 546.72 496.834 546.72 486.574Z" fill="black"/>
<path d="M14.3196 203.998V80.4978H94.1197V107.858H46.9997V127.238H87.2797V154.598H46.9997V176.638H96.0197V203.998H14.3196ZM106.026 167.138V144.338H153.906V167.138H106.026ZM67.8996 368.278C60.0463 368.278 52.5097 367.011 45.2897 364.478C38.1963 361.818 31.9263 357.891 26.4796 352.698C21.1596 347.378 16.9163 340.791 13.7496 332.938C10.583 324.958 8.99965 315.711 8.99965 305.198C8.99965 294.811 10.6463 285.628 13.9396 277.648C17.233 269.541 21.603 262.764 27.0497 257.318C32.623 251.744 38.9563 247.501 46.0496 244.588C53.2696 241.674 60.8063 240.218 68.6597 240.218C76.893 240.218 84.2397 241.864 90.6997 245.158C97.1597 248.324 102.606 252.124 107.04 256.558L89.9397 277.458C86.8997 274.798 83.733 272.644 80.4397 270.998C77.273 269.224 73.5997 268.338 69.4197 268.338C65.7463 268.338 62.263 269.161 58.9697 270.808C55.803 272.454 52.953 274.798 50.4197 277.838C48.013 280.878 46.0497 284.614 44.5296 289.048C43.1363 293.481 42.4397 298.484 42.4397 304.058C42.4397 315.711 44.8463 324.641 49.6597 330.848C54.5997 337.054 61.0597 340.158 69.0397 340.158C73.853 340.158 78.0963 339.144 81.7697 337.118C85.5697 334.964 88.7997 332.431 91.4597 329.518L108.56 350.038C103.24 356.118 97.0963 360.678 90.1297 363.718C83.2897 366.758 75.8797 368.278 67.8996 368.278ZM161.55 368.278C152.937 368.278 145.084 366.821 137.99 363.908C131.024 360.994 125.007 356.814 119.94 351.368C115 345.794 111.137 339.018 108.35 331.038C105.564 322.931 104.17 313.811 104.17 303.678C104.17 293.544 105.564 284.551 108.35 276.698C111.137 268.718 115 262.068 119.94 256.748C125.007 251.301 131.024 247.184 137.99 244.398C145.084 241.611 152.937 240.218 161.55 240.218C170.037 240.218 177.827 241.611 184.92 244.398C192.014 247.184 198.03 251.301 202.97 256.748C208.037 262.194 211.964 268.844 214.75 276.698C217.537 284.551 218.93 293.544 218.93 303.678C218.93 313.811 217.537 322.931 214.75 331.038C211.964 339.018 208.037 345.794 202.97 351.368C198.03 356.814 192.014 360.994 184.92 363.908C177.827 366.821 170.037 368.278 161.55 368.278ZM161.55 340.158C169.024 340.158 174.85 336.928 179.03 330.468C183.337 323.881 185.49 314.951 185.49 303.678C185.49 292.404 183.337 283.728 179.03 277.648C174.85 271.441 169.024 268.338 161.55 268.338C154.077 268.338 148.187 271.441 143.88 277.648C139.7 283.728 137.61 292.404 137.61 303.678C137.61 314.951 139.7 323.881 143.88 330.468C148.187 336.928 154.077 340.158 161.55 340.158ZM232.493 365.998V242.498H267.453L286.073 293.038C287.213 296.458 288.29 300.004 289.303 303.678C290.316 307.351 291.393 311.024 292.533 314.698H293.293C294.433 311.024 295.51 307.351 296.523 303.678C297.536 300.004 298.613 296.458 299.753 293.038L317.613 242.498H352.573V365.998H322.933V329.518C322.933 326.351 323.06 322.868 323.313 319.068C323.693 315.268 324.073 311.404 324.453 307.478C324.833 303.424 325.276 299.498 325.783 295.698C326.29 291.898 326.733 288.478 327.113 285.438H326.353L316.093 315.078L300.893 355.928H283.413L268.213 315.078L258.333 285.438H257.573C257.953 288.478 258.396 291.898 258.903 295.698C259.41 299.498 259.853 303.424 260.233 307.478C260.613 311.404 260.93 315.268 261.183 319.068C261.563 322.868 261.753 326.351 261.753 329.518V365.998H232.493ZM371.453 365.998V242.498H406.413L425.033 293.038C426.173 296.458 427.25 300.004 428.263 303.678C429.276 307.351 430.353 311.024 431.493 314.698H432.253C433.393 311.024 434.47 307.351 435.483 303.678C436.496 300.004 437.573 296.458 438.713 293.038L456.573 242.498H491.533V365.998H461.893V329.518C461.893 326.351 462.02 322.868 462.273 319.068C462.653 315.268 463.033 311.404 463.413 307.478C463.793 303.424 464.236 299.498 464.743 295.698C465.25 291.898 465.693 288.478 466.073 285.438H465.313L455.053 315.078L439.853 355.928H422.373L407.173 315.078L397.293 285.438H396.533C396.913 288.478 397.356 291.898 397.863 295.698C398.37 299.498 398.813 303.424 399.193 307.478C399.573 311.404 399.89 315.268 400.143 319.068C400.523 322.868 400.713 326.351 400.713 329.518V365.998H371.453ZM14.3196 527.998V404.498H94.1197V431.858H46.9997V451.238H87.2797V478.598H46.9997V500.638H96.0197V527.998H14.3196ZM111.346 527.998V404.498H158.086C164.672 404.498 170.942 405.131 176.896 406.398C182.976 407.664 188.232 409.818 192.666 412.858C197.226 415.898 200.836 420.014 203.496 425.208C206.156 430.274 207.486 436.671 207.486 444.398C207.486 453.264 205.649 460.611 201.976 466.438C198.429 472.264 193.616 476.824 187.536 480.118L214.326 527.998H177.846L156.566 486.578H144.026V527.998H111.346ZM144.026 460.738H155.806C168.979 460.738 175.566 455.291 175.566 444.398C175.566 439.078 173.856 435.404 170.436 433.378C167.142 431.351 162.266 430.338 155.806 430.338H144.026V460.738ZM276.054 530.278C268.2 530.278 260.664 529.011 253.444 526.478C246.35 523.818 240.08 519.891 234.634 514.698C229.314 509.378 225.07 502.791 221.904 494.938C218.737 486.958 217.154 477.711 217.154 467.198C217.154 456.811 218.8 447.628 222.094 439.648C225.387 431.541 229.757 424.764 235.204 419.318C240.777 413.744 247.11 409.501 254.204 406.588C261.424 403.674 268.96 402.218 276.814 402.218C285.047 402.218 292.394 403.864 298.854 407.158C305.314 410.324 310.76 414.124 315.194 418.558L298.094 439.458C295.054 436.798 291.887 434.644 288.594 432.998C285.427 431.224 281.754 430.338 277.574 430.338C273.9 430.338 270.417 431.161 267.124 432.808C263.957 434.454 261.107 436.798 258.574 439.838C256.167 442.878 254.204 446.614 252.684 451.048C251.29 455.481 250.594 460.484 250.594 466.058C250.594 477.711 253 486.641 257.814 492.848C262.754 499.054 269.214 502.158 277.194 502.158C282.007 502.158 286.25 501.144 289.924 499.118C293.724 496.964 296.954 494.431 299.614 491.518L316.714 512.038C311.394 518.118 305.25 522.678 298.284 525.718C291.444 528.758 284.034 530.278 276.054 530.278ZM325.252 527.998V404.498H405.052V431.858H357.932V451.238H398.212V478.598H357.932V500.638H406.952V527.998H325.252Z" fill="black"/>
</svg>
