<svg width="424" height="110" viewBox="0 0 424 110" fill="none" xmlns="http://www.w3.org/2000/svg">
<path d="M132.869 54.367C132.869 46.7434 137.024 42.5875 141.896 42.5875C146.188 42.5875 147.233 43.1214 151.202 45.149C151.738 45.4229 152.328 45.7245 152.987 46.0556C158.518 48.8356 159.922 49.5234 162.702 49.5234C165.482 49.5234 166.857 47.4313 166.857 43.2754H171.701C172.388 51.587 167.545 55.0549 162.673 55.0549C157.802 55.0549 156.426 54.367 151.583 51.587C146.74 48.807 145.335 48.1191 142.555 48.1191C139.776 48.1191 138.4 50.2113 137.712 55.0549L132.869 54.367Z" fill="#232323"/>
<path d="M155.079 57.1469V86.9537H149.52V55.0546L155.079 57.1469Z" fill="#232323"/>
<path fill-rule="evenodd" clip-rule="evenodd" d="M110 61.9908C110 85.6931 129.287 104.982 152.987 104.982C176.687 104.982 195.974 85.6931 195.974 61.9908C195.974 38.2885 176.687 19 152.987 19C129.287 19 110 38.2885 110 61.9908ZM112.78 61.9908C112.78 39.8075 130.806 21.7801 152.987 21.7801C175.168 21.7801 193.194 39.8075 193.194 61.9908C193.194 84.1741 175.168 102.202 152.987 102.202C130.806 102.202 112.78 84.1741 112.78 61.9908Z" fill="#232323"/>
<path d="M236.585 43.3948V46.2741H226.892V76.9876H223.725V46.2741H213.984V43.3948H236.585ZM242.425 46.994C241.977 46.5461 241.753 45.9862 241.753 45.3143C241.753 44.6425 241.977 44.0826 242.425 43.6347C242.905 43.1868 243.48 42.9629 244.152 42.9629C244.824 42.9629 245.384 43.1868 245.832 43.6347C246.28 44.0826 246.503 44.6425 246.503 45.3143C246.503 45.9862 246.28 46.5461 245.832 46.994C245.384 47.4419 244.824 47.6658 244.152 47.6658C243.48 47.6658 242.905 47.4419 242.425 46.994ZM242.617 52.8967H245.64V76.9876H242.617V52.8967ZM253.769 40.8993H256.793V76.9876H253.769V40.8993ZM284.021 40.8993H287.044V76.9876H284.405V72.1406C283.445 73.9322 282.117 75.3079 280.422 76.2677C278.726 77.1955 276.887 77.6594 274.903 77.6594C271.736 77.6594 269.017 76.5237 266.746 74.2522C264.507 71.9806 263.387 68.8773 263.387 64.9421C263.387 61.007 264.507 57.9037 266.746 55.6321C269.017 53.3606 271.736 52.2249 274.903 52.2249C276.759 52.2249 278.486 52.6568 280.086 53.5206C281.685 54.3524 282.997 55.5522 284.021 57.1198V40.8993ZM269.049 72.2366C270.777 73.9642 272.872 74.828 275.335 74.828C277.799 74.828 279.894 73.9642 281.621 72.2366C283.349 70.477 284.213 68.0455 284.213 64.9421C284.213 61.8388 283.349 59.4233 281.621 57.6957C279.894 55.9361 277.799 55.0563 275.335 55.0563C272.872 55.0563 270.777 55.9361 269.049 57.6957C267.322 59.4233 266.458 61.8388 266.458 64.9421C266.458 68.0455 267.322 70.477 269.049 72.2366ZM303.594 52.2249C306.473 52.2249 308.76 52.9927 310.457 54.5284C312.152 56.064 313 58.3676 313 61.4389V76.9876H310.361V74.3481C308.569 76.5557 305.897 77.6594 302.346 77.6594C299.531 77.6594 297.292 76.9396 295.628 75.4999C293.965 74.0282 293.133 72.1726 293.133 69.9331C293.133 67.6936 293.981 65.8699 295.676 64.4623C297.404 63.0226 299.675 62.3027 302.49 62.3027C305.753 62.3027 308.249 63.2145 309.977 65.0381V61.7748C309.977 59.5673 309.368 57.9037 308.153 56.7839C306.969 55.6321 305.354 55.0563 303.306 55.0563C300.747 55.0563 298.332 55.8081 296.06 57.3118H295.676V54.1445C298.204 52.8647 300.843 52.2249 303.594 52.2249ZM298.028 73.4363C299.275 74.3641 300.987 74.828 303.162 74.828C305.338 74.828 307.049 74.3641 308.297 73.4363C309.544 72.5085 310.169 71.3248 310.169 69.8851C310.169 68.4454 309.544 67.2776 308.297 66.3818C307.049 65.454 305.338 64.9901 303.162 64.9901C301.019 64.9901 299.307 65.454 298.028 66.3818C296.78 67.3096 296.156 68.4774 296.156 69.8851C296.156 71.3248 296.78 72.5085 298.028 73.4363Z" fill="#232323"/>
</svg>
