<svg width="725" height="736" viewBox="0 0 725 736" fill="none" xmlns="http://www.w3.org/2000/svg">
<path d="M21.7666 734.913C8.80957 734.645 4.75357 734.249 4.20257 733.196C3.85157 732.526 3.42337 729.907 2.38117 722.059C1.96987 718.962 1.25357 714.545 0.789371 712.243C-0.313929 706.774 -0.28303 705.397 1.02337 701.817C2.90487 696.662 5.57417 684.344 5.62827 680.567C5.64307 679.541 5.11757 676.755 4.40637 674.088C2.79007 668.027 2.52207 664.934 3.24027 660.631C3.54627 658.798 4.19497 653.021 4.68187 647.794C5.16867 642.568 5.83557 635.519 6.16387 632.132L6.76087 625.973L12.8636 615.239C16.2201 609.335 19.3026 603.633 19.7136 602.568C20.28 601.1 20.4554 599.889 20.4381 597.567C20.3942 591.68 18.8889 586.77 14.2345 577.329C9.95957 568.658 8.72647 565.084 8.48247 560.654C8.10177 553.746 10.2602 549.88 17.6292 544.267C19.5153 542.83 21.3959 541.198 21.8082 540.641C22.2909 539.988 23.0933 539.492 24.0621 539.248C25.2042 538.96 25.922 538.444 27.0432 537.105C28.0562 535.896 28.7832 535.342 29.3581 535.342C30.3183 535.342 31.0028 534.251 31.6458 531.698C32.1216 529.808 31.845 528.875 29.9925 526.122C28.4401 523.816 27.5181 521.192 27.2325 518.27C26.867 514.529 25.8466 511.148 23.2055 504.928C19.8342 496.987 18.7762 493.07 17.8742 485.187C17.1982 479.28 17.2614 474.853 18.0443 473.27C19.6003 470.123 25.8309 464.597 27.8225 464.597C29.2393 464.597 30.4271 461.611 30.0392 459.025C29.851 457.77 29.4736 457.117 28.2477 455.925C27.3935 455.095 26.6946 454.113 26.6946 453.742C26.6946 452.779 27.5893 452.161 28.6118 452.418C30.6346 452.925 30.5012 449.046 28.4052 446.409C27.4939 445.262 27.3801 444.865 27.471 443.15C27.5618 441.437 27.6882 441.143 28.4991 440.756C29.8727 440.1 30.3306 438.622 30.1377 435.466C30.0039 433.275 29.749 432.324 28.8318 430.591C28.0634 429.139 27.63 427.752 27.5011 426.33C27.3329 424.475 27.4252 424.024 28.2678 422.587C29.172 421.044 29.2437 420.592 29.5475 414.529C30.1554 402.398 30.5256 399.704 32.3673 394.001C33.8488 389.414 35.6036 386.203 40.6838 378.785C46.4262 370.4 47.2028 369.565 49.2538 369.572C53.3021 369.585 57.867 371.417 60.6588 374.149C64.0246 377.441 66.1536 377.541 69.224 374.55C72.1065 371.743 73.6031 368.696 72.4496 367.983C72.256 367.863 72.0977 367.535 72.0977 367.254C72.0977 366.855 72.4048 366.792 73.4867 366.965C75.2317 367.244 77.7445 366.12 83.0085 362.706C89.5036 358.494 95.9735 355.515 105.073 352.548C111.23 350.54 114.986 349.604 125.064 347.566C136.354 345.282 140.731 343.791 140.731 342.229C140.731 342.032 140.398 341.569 139.99 341.2C137.302 338.769 135.381 328.199 136.48 321.887C137.445 316.344 140.625 308.341 142.966 305.561C143.675 304.719 144.341 303.61 144.445 303.098C144.966 300.54 145.422 299.455 146.539 298.119C147.966 296.409 148.594 294.41 148.281 292.57C148.158 291.846 147.359 290.031 146.506 288.535C144.873 285.671 144.676 284.96 145.395 284.509C145.637 284.357 148.092 284.279 150.85 284.335C153.946 284.398 155.866 284.306 155.866 284.094C155.866 283.512 153.829 282 152.716 281.756C152.123 281.625 151.11 281.723 150.404 281.978C148.316 282.733 147.928 282.212 148.041 278.801C148.092 277.23 148.044 275.944 147.934 275.944C147.824 275.944 147.151 276.34 146.438 276.824C145.092 277.74 143.899 277.976 143.899 277.329C143.899 277.122 144.329 276.389 144.855 275.699C145.644 274.666 145.814 274.077 145.823 272.35C145.834 270.482 145.727 270.161 144.847 269.403C142.05 266.995 136.053 269.737 134.009 274.358C132.252 278.331 132.959 280.5 136.471 281.907C137.708 282.402 138.955 283.164 139.241 283.6C139.738 284.355 139.703 284.416 138.498 284.92C137.572 285.307 135.87 285.448 132.12 285.448C126.387 285.448 126.74 285.661 127.397 282.598C127.871 280.388 127.462 278.703 126.097 277.24C125.279 276.362 125.008 276.275 123.77 276.484C122.392 276.717 122.372 276.705 122.488 275.717C122.605 274.714 122.602 274.713 120.564 274.713C118.091 274.713 117.82 274.433 115.752 269.745C113.658 265.002 113.645 264.765 115.304 261.959C116.078 260.649 117.2 258.604 117.798 257.414C118.835 255.348 120.296 253.771 121.173 253.771C121.398 253.771 122.763 253.037 124.206 252.14C127.848 249.876 129.442 249.218 131.122 249.285C132.223 249.328 133.02 249.058 134.451 248.155C138.25 245.759 139.356 245.266 141.675 244.938C146.28 244.285 148.084 242.539 152.003 234.941L154.545 230.013L150.097 234.651C147.651 237.202 145.096 239.631 144.42 240.049C143.401 240.679 141.822 240.953 135.186 241.653C130.783 242.118 126.12 242.738 124.824 243.031C121.311 243.825 120.996 243.779 121.25 242.508C121.433 241.594 121.359 241.452 120.698 241.452C118.655 241.452 117.412 238.075 118.217 234.716C118.797 232.299 121.38 229.534 124.666 227.811C127.044 226.565 127.178 226.43 127.127 225.333C127.02 223.013 123.518 219.552 118.33 216.64C114.643 214.57 113.523 213.65 112.519 211.864C111.901 210.764 111.537 210.479 110.75 210.479C110.015 210.479 109.759 210.308 109.759 209.818C109.759 208.471 108.666 206.645 104.99 201.848C102.917 199.142 100.842 196.085 100.379 195.054C99.9156 194.023 98.7715 192.043 97.8362 190.654C95.3125 186.907 94.8911 185.92 94.615 183.104C94.461 181.533 94.1421 180.298 93.7901 179.909C92.8517 178.872 93.1082 177.894 94.6689 176.558C96.4551 175.029 100.714 172.808 103.775 171.808C109.005 170.101 121.162 167.862 129.82 167.012C134.185 166.584 135.378 165.722 133.704 164.207C130.931 161.697 104.334 165.426 96.5001 169.423C93.4677 170.97 92.5319 172.35 91.8072 176.346C91.1411 180.02 90.1683 180.846 89.2399 178.525C87.5282 174.247 88.188 172.1 92.0876 169.259C93.5796 168.171 95.164 167.093 95.6085 166.862C97.2071 166.031 103.333 163.937 107.646 162.747C123.53 158.366 126.629 158.398 150.762 163.197C156.331 164.304 160.066 164.854 162.729 164.959C168.392 165.184 168.904 164.389 164.51 162.193C160.989 160.433 160.09 159.608 160.09 158.14C160.09 155.791 163.105 153.066 166.249 152.573C167.411 152.391 168.341 152.628 171.574 153.932C176.373 155.867 177.248 156.313 178.478 157.455C179.329 158.245 179.4 158.469 179.073 159.338C178.553 160.719 176.467 162.773 174.838 163.508C174.082 163.848 173.464 164.245 173.464 164.389C173.464 164.533 174.85 164.84 176.544 165.071C179.872 165.525 183.455 166.343 184.455 166.879C185.498 167.437 185.181 168.193 183.797 168.452C183.091 168.585 179.251 168.622 175.262 168.535C167.933 168.375 166.777 168.427 166.777 168.918C166.777 169.21 169.752 170.139 172.584 170.73C173.552 170.932 178.858 172.581 184.375 174.395C198.453 179.023 204.688 180.311 215.876 180.901C225.416 181.405 248.724 180.369 271.31 178.437C285.515 177.222 292.107 176.251 309.674 172.784C337.364 167.319 355.646 162.892 375.667 156.801C379.733 155.564 387.731 153.208 393.441 151.565C408.573 147.211 416.875 144.156 418.998 142.161C419.415 141.77 420.686 141.207 421.821 140.912C427.614 139.405 434.141 135.114 441.732 127.825C445.201 124.494 447.446 121.703 447.774 120.313C448.072 119.051 448.969 118.832 451.033 119.519C454.286 120.601 460.493 124.684 460.168 125.529C460.066 125.796 460.133 126.412 460.318 126.898C460.593 127.621 460.511 127.91 459.868 128.495C459.436 128.888 458.816 129.456 458.489 129.758C458.163 130.06 456.5 132.862 454.794 135.984C453.087 139.107 450.931 142.672 450.002 143.908C449.073 145.143 448.385 146.225 448.474 146.314C448.79 146.631 450.762 145.36 452.696 143.592C456.226 140.366 460.666 134.181 460.666 132.49C460.666 131.671 461.271 131.287 462.56 131.287C466.539 131.287 463.373 138.5 451.71 156.008L450.365 158.028L451.993 159.933C455.436 163.963 459.348 166.484 462.158 166.484C465.371 166.484 465.632 164.665 463.195 159.278C461.453 155.428 461.587 155.047 464.587 155.319C467.133 155.55 470.103 157.103 473.261 159.856C474.561 160.99 476.132 162.243 476.753 162.642C477.373 163.041 477.983 163.688 478.107 164.079C478.231 164.471 478.954 165.678 479.713 166.761C481.099 168.74 482.134 171.465 482.138 173.147C482.139 173.645 482.762 175.868 483.522 178.089C484.617 181.286 485.135 182.315 486.011 183.03L487.117 183.932L486.429 185.743C484.875 189.835 478.903 197.007 474.667 199.872L473.006 200.996L474.051 198.786C476.141 194.368 475.048 193.894 470.282 197.154C468.788 198.176 467.354 198.479 467.354 197.772C467.354 197.559 467.93 196.287 468.634 194.947C469.339 193.606 469.812 192.407 469.687 192.282C469.385 191.98 462.958 196.343 460.657 198.412C459.659 199.309 458.704 200.407 458.535 200.851C458.071 202.072 455.717 201.756 454.345 200.287C453.124 198.981 450.77 197.886 448.515 197.577L446.86 197.35L447.096 198.751C447.44 200.787 446.898 201.109 444.269 200.43C439.015 199.073 429.252 194.946 423.914 191.825C418.933 188.914 418.567 188.982 420.938 192.383C422.609 194.781 425.235 197.856 428.962 201.777C431.913 204.882 431.916 205.362 428.981 205.754C426.688 206.061 425.731 205.543 424.473 203.315C423.871 202.248 423.161 201.245 422.895 201.088C422.628 200.93 421.181 199.173 419.677 197.184C418.174 195.195 416.656 193.413 416.303 193.225C415.252 192.662 414.585 192.83 414.364 193.711C414.061 194.92 414.902 196.585 417.324 199.569C418.502 201.02 419.419 202.367 419.361 202.56C419.118 203.375 417.479 203.094 416.124 202.004C415.36 201.389 414.202 200.659 413.55 200.382C411.341 199.441 410.613 200.611 412.447 202.154C413.731 203.235 413.756 203.577 412.623 204.562C412.139 204.983 411.743 205.637 411.743 206.017C411.743 206.909 413.003 209.424 414.074 210.67C414.651 211.342 414.911 212.079 414.911 213.039C414.911 214.26 414.824 214.41 414.207 214.249C413.373 214.031 413.35 214.292 413.996 216.639C415.558 222.309 419.933 231.648 422.902 235.65C425.704 239.425 429.997 243.622 430.922 243.489C431.365 243.426 431.912 242.796 432.384 241.804C433.141 240.214 435.141 232.056 436.223 226.142C437.123 221.227 438.144 219.279 439.819 219.279C440.422 219.279 441.523 220.094 443.443 221.963C446.549 224.985 447.499 225.221 447.165 222.886C446.654 219.319 446.56 217.519 446.883 217.519C447.571 217.519 450.727 220.301 451.99 222.021C456.03 227.525 457.091 235.522 454.826 243.388C453.899 246.609 452.949 247.852 450.449 249.113C447.373 250.665 444.881 251.091 438.845 251.098C432.913 251.104 431.102 250.622 431.102 249.038C431.102 248.106 430.658 247.571 428.541 245.949C427.853 245.422 426.026 243.363 424.482 241.374C422.938 239.384 421.283 237.394 420.806 236.95L419.937 236.143L419.537 237.126C419.317 237.667 418.744 239.901 418.263 242.091C417.329 246.345 417.266 246.521 416.269 247.632C414.804 249.267 412.175 259.313 411.833 264.584C411.649 267.427 411.661 267.484 412.531 267.815C413.583 268.215 414.108 269.538 414.418 272.565C414.621 274.545 414.493 275.184 413.029 279.481C411.117 285.096 410.233 289.547 409.468 297.415C407.928 313.247 407.266 317.422 405.384 323.181C404.035 327.311 401.671 332.311 399.378 335.885C395.588 341.793 394.837 345.001 395.486 352.51C395.92 357.527 396.192 358.091 398.343 358.435C399.085 358.554 400.047 358.938 400.481 359.29C401.158 359.837 401.235 360.134 401.025 361.377C400.223 366.121 393.073 375.946 389.031 377.858C387.663 378.506 386.806 379.29 385.379 381.203C383.628 383.551 381.41 386.274 379.701 388.174C378.752 389.23 378.123 388.749 378.648 387.369C379.105 386.168 378.881 385.765 377.899 386.022C377.202 386.204 377.159 386.122 377.372 385.021C377.5 384.361 378.869 381.208 380.416 378.014C383.874 370.87 384.213 369.549 383.599 365.606C383.246 363.333 383.233 362.024 383.541 359.731C383.903 357.046 384.297 356.053 387.942 348.656C392.573 339.259 393.838 336.221 394.035 334.019L394.177 332.436L393.65 333.579C393.107 334.758 392.155 335.098 391.823 334.232C391.719 333.962 392.222 332.339 392.941 330.625C393.659 328.911 394.976 325.291 395.868 322.581C397.497 317.629 398.253 316.554 398.72 318.529C399.077 320.045 399.402 318.785 399.782 314.404C400.033 311.513 400.034 309.215 399.786 307.061C399.438 304.042 398.139 297.069 397.876 296.805C397.727 296.656 395.288 302.398 394.981 303.622C394.867 304.08 394.573 304.454 394.329 304.454C393.822 304.454 393.453 302.627 393.439 300.054C393.425 297.347 392.992 297.025 391.833 298.86C390.463 301.031 388.713 304.966 387.256 309.152C385.843 313.212 384.812 315.133 382.693 317.652C380.688 320.036 380.142 321.211 379.347 324.854C378.461 328.913 378.163 329.642 377.105 330.335C375.903 331.123 374.449 330.75 372.916 329.26C370.01 326.438 370.243 323.555 373.855 317.673C374.561 316.523 375.139 315.375 375.139 315.121C375.139 314.352 374.478 314.601 373.442 315.761C370.842 318.67 367.62 315.193 369.501 311.507L370.259 310.021L368.827 308.699C368.04 307.972 367.398 307.155 367.4 306.884C367.403 306.612 367.719 305.386 368.104 304.159C369.3 300.344 368.982 299.504 366.591 300.164C365.03 300.596 364.416 300.229 364.713 299.043C365.001 297.897 367.613 294.71 368.878 293.961C369.782 293.426 369.877 293.437 370.661 294.173C371.708 295.157 372.731 295.163 373.588 294.19C374.789 292.827 380.583 289.248 380.7 289.797C380.758 290.07 380.481 291.566 380.084 293.121C379.225 296.487 379.166 297.766 379.87 297.766C380.555 297.766 381.41 296.487 381.869 294.775C382.329 293.061 382.766 292.487 383.613 292.487C383.967 292.487 384.756 291.866 385.366 291.107C385.976 290.347 386.935 289.536 387.496 289.303C389.778 288.358 392.79 283.287 393.439 279.299C393.636 278.09 394.069 276.928 394.49 276.48C395.091 275.84 395.269 274.928 395.597 270.816C396.161 263.743 395.862 256.711 394.916 254.799C394.054 253.057 394.242 252.478 396.493 249.941C397.522 248.782 398.197 248.351 399.254 248.18C401.264 247.853 401.645 246.852 401.817 241.452C401.916 238.362 401.79 236.177 401.395 234.11C400.245 228.096 400.735 226.23 403.372 226.584L404.813 226.777L404.591 225.404C404.269 223.408 402.13 219.293 400.693 217.904C399.685 216.929 399.358 216.784 398.942 217.129C398.366 217.607 397.8 219.837 397.458 222.974C397.19 225.429 396.481 227.374 395.854 227.374C395.613 227.374 394.97 226.947 394.426 226.426C393.233 225.283 392.944 225.511 392.423 228.007C391.877 230.62 391.938 233.856 392.561 235.347C392.851 236.042 393.089 236.799 393.089 237.029C393.089 237.259 392.099 237.729 390.889 238.073C387.465 239.047 387.642 238.961 388.103 239.422C389.184 240.504 388.558 241.381 384.202 244.883C380.74 247.666 379.509 248.91 377.955 251.194C375.37 254.992 373.365 257.313 371.626 258.518L370.19 259.512L369.483 258.753C368.545 257.746 367.766 257.796 366.252 258.962C364.759 260.112 363.876 261.48 363.876 262.643C363.876 264.102 359.305 267.643 358.483 266.821C357.973 266.31 359.203 263.172 360.722 261.111C361.486 260.075 362.377 258.672 362.702 257.994C364.083 255.117 363.529 248.09 361.783 246.344C360.969 245.529 360.44 245.363 358.044 245.166C354.377 244.864 353.59 244.681 353.76 244.166C353.92 243.684 354.491 243.371 358.279 241.683C361.574 240.215 363.436 238.573 364.879 235.866C366.495 232.834 366.394 232.192 364.129 231.12C360.403 229.358 359.4 229.552 360.889 231.747C362.039 233.44 361.996 233.709 360.575 233.709C359.019 233.709 357.205 234.488 355.2 236.018C352.594 238.008 351.408 238.379 348.39 238.151C343.218 237.759 338.641 235.914 337.647 233.819C337.06 232.583 336.422 232.546 336.422 233.747C336.422 234.84 337.415 236.498 339.232 238.44C342.972 242.437 344.245 244.819 343.646 246.705C343.329 247.703 341.926 248.37 339.111 248.86C337.818 249.086 336.407 249.56 335.975 249.915C335.239 250.521 335.223 250.62 335.726 251.539C336.469 252.897 339.267 254.538 341.645 255.01C343.521 255.383 343.644 255.47 343.747 256.511C343.955 258.611 348.742 262.076 352.379 262.758C354.584 263.172 354.942 264.413 353.188 265.563C352.367 266.101 352.141 266.074 349.173 265.079C345.773 263.94 332.97 258.031 330.518 256.469L329.013 255.51L329.902 253.994C330.391 253.159 330.791 252.229 330.791 251.925C330.791 251.621 330.018 250.818 329.073 250.139C324.583 246.913 322.731 247 323.691 250.393C323.916 251.186 324.284 253.984 324.509 256.61L324.92 261.385L323.984 263.363C323.469 264.452 323.044 265.787 323.039 266.332C323.025 268.055 322.429 269.997 321.759 270.504C321.403 270.774 320.61 271 319.997 271.006C319.384 271.012 318.82 271.205 318.743 271.435C318.526 272.086 316.751 270.642 316.498 269.609C316.156 268.207 315.498 266.273 313.445 260.634C310.473 252.473 308.434 247.697 305.626 242.324C304.207 239.61 302.78 236.363 302.454 235.109C301.393 231.03 302.126 228.024 304.511 226.671C305.35 226.194 305.601 226.207 307.116 226.799C309.601 227.77 311.199 227.895 312.256 227.202C312.751 226.878 314.313 226.323 315.726 225.969C319.39 225.052 325.48 222.375 329.419 219.951C331.279 218.807 332.955 217.87 333.145 217.87C333.335 217.87 333.929 218.363 334.465 218.965C335.34 219.947 335.585 220.037 336.833 219.838C338.674 219.543 344.917 217.223 345.935 216.455L346.738 215.85L345.595 214.257C343.265 211.014 345.246 210.446 350.348 212.894C353.461 214.388 354.372 214.633 354.372 213.976C354.372 213.21 353.624 212.239 353.035 212.239C351.631 212.239 346.277 206.962 346.277 205.578C346.277 205.39 347.069 204.191 348.037 202.912C349.005 201.633 349.797 200.437 349.797 200.254C349.797 200.07 349.955 199.92 350.149 199.92C350.342 199.92 350.5 200.741 350.5 201.745C350.5 203.467 350.597 203.662 352.215 205.222C354.781 207.695 362.707 211.818 366.071 212.429C367.831 212.749 368.154 211.96 366.924 210.348C365.202 208.089 365.396 205.901 367.319 205.906C368.631 205.909 369.973 206.868 372.596 209.674L374.828 212.063L374.633 210.608C374.526 209.808 373.742 206.957 372.89 204.273C370.751 197.53 370.778 197.707 371.768 196.777C372.462 196.125 372.735 196.057 373.345 196.383C374.436 196.967 374.245 196.249 373.04 195.234C371.129 193.627 369.195 193.128 365.923 193.398C364.313 193.531 360.676 193.692 357.843 193.755C351.693 193.893 348.35 194.365 345.594 195.485C339.7 197.88 332.887 199.469 326.578 199.919C320.857 200.328 319.88 200.511 319.88 201.174C319.88 201.434 319.172 201.96 318.308 202.343C317.443 202.725 316.017 203.532 315.139 204.137C312.669 205.836 310.719 206.591 308.783 206.6C305.328 206.615 304.273 208.237 304.604 213.028C304.851 216.616 304.486 218.618 303.311 220.112C301.773 222.067 300.406 220.779 298.39 215.478C297.724 213.726 296.978 212.371 296.525 212.088C296.11 211.829 294.631 211.53 293.238 211.422C291.417 211.282 289.696 210.82 287.104 209.775C282.87 208.068 280.156 207.67 272.716 207.666C269.908 207.665 263.652 207.42 258.813 207.123C253.974 206.826 248.293 206.579 246.189 206.574C242.8 206.566 242.287 206.646 241.702 207.275C240.927 208.106 236.181 209.679 233.228 210.083C231.832 210.274 230.94 210.609 230.462 211.122C229.748 211.888 229.295 212.044 226.812 212.38C224.559 212.684 219.111 215.59 217.484 217.355C214.871 220.19 215.665 220.34 220.097 217.847C223.172 216.119 226.956 214.345 228.692 213.82L229.542 213.562L228.837 214.458C227.966 215.566 226.491 216.788 224.773 217.827C221.711 219.677 215.698 227.259 215.698 229.271C215.698 230.265 216.981 229.888 218.863 228.342C221.808 225.923 223.174 224.91 223.493 224.91C223.961 224.91 223.847 225.897 223.244 227.063C222.942 227.647 222.745 228.276 222.806 228.461C222.868 228.646 224.184 227.996 225.731 227.017C230.503 223.997 231.784 223.521 236.2 223.129C238.378 222.936 242.599 222.448 245.582 222.045C252.308 221.136 252.781 221.243 256.282 224.463C260.887 228.698 264.857 230.847 269.843 231.805C274.367 232.674 276.335 232.421 277.648 230.8C278.08 230.266 278.789 230.064 280.713 229.926C283.053 229.759 283.275 229.806 284.125 230.656C284.884 231.415 285.034 231.888 285.034 233.517C285.034 235.858 285.257 235.918 287.731 234.252C290.032 232.702 291.696 230.661 293.194 227.55C295.396 222.979 296.932 224.505 296.54 230.871C296.285 235.011 295.283 238.33 293.685 240.328C291.846 242.627 291.296 245.516 291.098 253.936C290.913 261.789 291.3 265.247 292.485 266.319C293.927 267.624 293.939 268.083 292.565 269.603C290.967 271.372 290.725 273.017 291.506 276.796C291.818 278.301 291.984 279.676 291.876 279.85C291.62 280.265 290.239 280.256 289.123 279.832C287.959 279.389 285.725 277.35 284.557 275.665C284.043 274.924 283.214 272.908 282.715 271.186C281.698 267.677 279.965 263.625 279.481 263.625C279.307 263.625 278.575 264.262 277.854 265.041C277.134 265.819 276.424 266.382 276.276 266.291C276.129 266.199 275.436 264.968 274.737 263.555C272.716 259.472 270.189 256.938 268.135 256.938C267.652 256.938 265.498 258.785 261.981 262.218C259.005 265.121 256.319 267.497 256.011 267.497C255.514 267.497 255.519 267.392 256.062 266.529C258.234 263.078 266.439 254.384 267.236 254.69C268.181 255.053 269.408 254.532 269.839 253.586C270.381 252.398 270.38 252.394 269.46 252.046C268.356 251.63 264.579 252.201 261.544 253.243C254.359 255.71 252.97 255.002 257.053 250.955C260.338 247.699 260.16 246.941 255.697 245.189C253.013 244.135 252.63 244.232 251.795 246.175C250.738 248.637 247.328 250.911 243.487 251.716C241.722 252.087 241.252 252.036 238.214 251.148C233.746 249.841 232.663 249.593 232.433 249.823C231.747 250.509 233.118 255.353 234.346 256.581C234.875 257.11 235.85 257.222 241.081 257.355C245.419 257.465 247.497 257.657 248.228 258.016C250.751 259.256 249.494 260.057 241.848 262.081C232.259 264.619 231.753 264.926 231.955 268.071C232.05 269.547 232.216 269.864 233.261 270.566C235.132 271.823 237.014 272.204 241.478 272.227C245.507 272.248 245.614 272.269 245.614 273.028C245.614 274.744 242.079 277.705 237.964 279.437C234.071 281.074 233.999 281.082 233.999 279.894C233.999 278.647 233.424 278.112 230.531 276.664C228.968 275.882 227.346 274.589 225.151 272.375C221.016 268.204 220.273 267.029 219.703 263.751C219.139 260.504 218.099 258.248 216.71 257.26C215.088 256.105 214.543 256.558 214.827 258.827C215.037 260.51 214.974 260.8 214.258 261.468C213.815 261.88 213.33 262.218 213.179 262.218C212.709 262.218 212.168 263.546 211.783 265.648C211.345 268.04 210.973 268.508 207.954 270.467C204.735 272.556 204.646 272.704 204.928 275.464L205.166 277.788L203.92 277.554C202.82 277.348 202.627 277.424 202.269 278.209C201.995 278.811 201.97 279.467 202.193 280.248C202.65 281.848 203.791 281.962 205.12 280.54C206.308 279.268 209.255 277.838 211.386 277.5C212.811 277.273 212.881 277.304 212.881 278.145C212.881 278.735 212.332 279.563 211.227 280.636L209.574 282.244L210.546 282.614C211.082 282.817 212.071 282.984 212.744 282.984C214.586 282.984 215.502 284.115 216.037 287.05C216.882 291.69 217.968 293.191 220.479 293.191C221.052 293.191 221.475 293.478 221.732 294.043C222.188 295.044 222.92 295.267 227.014 295.656C228.689 295.815 230.431 296.188 230.885 296.486C231.34 296.783 234.478 297.67 237.859 298.458C241.24 299.245 244.132 300.015 244.286 300.169C244.44 300.323 243.724 301.422 242.694 302.611C239.228 306.613 235.331 314.966 235.266 318.532C235.234 320.317 235.297 320.477 236.071 320.587C236.533 320.652 237.352 320.379 237.892 319.98L238.873 319.255L239.124 321.599C239.409 324.258 239.109 329.621 238.602 330.956C238.237 331.914 237.25 332.404 236.366 332.065C236.065 331.949 235.396 331.244 234.879 330.499C232.923 327.677 231.778 328.437 231.585 332.685C231.479 335.035 231.327 335.658 230.749 336.126C230.153 336.609 230.083 336.935 230.299 338.213C230.612 340.067 235.671 350.378 237.339 352.563C238.873 354.572 239.732 356.897 240.498 361.117C241.267 365.349 241.455 365.695 242.98 365.695C244.018 365.695 244.223 365.835 244.4 366.663C244.834 368.69 245.716 370.679 247.436 373.505C250.882 379.168 251.597 380.424 251.597 380.807C251.597 381.043 251.012 381.158 250.102 381.1C248.678 381.01 248.6 381.056 248.487 382.055C248.358 383.187 248.827 385.15 249.727 387.248L250.292 388.562L255.127 388.48L259.961 388.397L261.499 389.504C262.344 390.113 263.078 390.826 263.129 391.088C263.237 391.643 261.361 392.797 260.35 392.797C259.495 392.797 257.861 391.975 257.248 391.236C256.471 390.3 256.067 390.599 256.286 391.948C256.557 393.617 257.094 394.204 258.351 394.204C259.851 394.204 260.659 394.756 260.924 395.961C261.228 397.345 261.542 397.297 262.278 395.754C263.051 394.132 263.354 394.369 265.573 398.342C267.542 401.869 270.14 404.864 272.092 405.86C274.459 407.068 274.586 406.526 272.503 404.106C270.865 402.203 268.844 398.963 268.844 398.24C268.844 398.124 269.754 398.735 270.867 399.599C272.568 400.918 274.485 401.946 274.471 401.531C274.469 401.47 274.252 400.707 273.989 399.836C273.032 396.663 274.993 392.796 277.56 392.796C279.382 392.796 280.81 394.389 280.81 396.421C280.81 397.282 280.573 398.661 280.282 399.484C279.359 402.1 279.556 403.083 281.33 404.718C282.197 405.517 282.962 406.171 283.029 406.171C283.097 406.171 282.987 405.366 282.786 404.383C282.468 402.832 282.511 402.425 283.111 401.327C283.491 400.63 283.985 400.001 284.208 399.93C284.435 399.857 284.881 400.619 285.223 401.666C286.196 404.642 287.659 407.69 289.184 409.915C290.822 412.306 292.893 414.618 293.396 414.618C293.588 414.618 293.822 413.311 293.917 411.714C294.105 408.528 295.337 405.248 297.155 403.091C299.036 400.86 300.074 401.765 301.207 406.625C301.604 408.327 302.245 410.34 302.632 411.099C303.056 411.928 303.336 413.173 303.336 414.221C303.336 416.02 303.997 419.722 304.905 423.009C305.592 425.494 307.061 434.239 306.831 434.47C306.732 434.57 305.232 434.42 303.497 434.139C299.385 433.471 297.655 433.491 296.119 434.224C295.078 434.721 294.672 434.753 293.765 434.41C289.967 432.977 284.602 428.341 281.73 424.01C278.052 418.464 272.886 414.678 267.197 413.358C264.451 412.722 264.235 412.619 260.749 410.287C257.46 408.087 255.17 407.064 251.093 405.972C245.424 404.453 241.468 404.909 236.993 407.598C234.07 409.355 232.237 411.072 229.384 414.726C227.995 416.505 224.921 419.862 222.553 422.185C217.886 426.764 217.225 427.732 216.74 430.714C216.564 431.795 216.028 433.248 215.549 433.943C214.356 435.676 212.329 441.12 211.572 444.627C211.136 446.645 210.949 449.024 210.955 452.454C210.964 457.793 211.462 460.275 213.086 463.076C214.068 464.771 214.161 465.59 213.403 465.88C212.084 466.387 209.309 464.248 208.87 462.385C208.581 461.16 207.17 460.414 206.38 461.07C204.873 462.32 200.792 470.821 199.158 476.11C198.393 478.588 197.046 487.022 197.044 489.345C197.043 491.112 197.575 492.093 198.369 491.79C198.939 491.572 198.941 491.614 198.411 492.419C198.093 492.903 197.424 493.332 196.887 493.396C195.606 493.548 195.29 494.371 192.81 504.017C190.773 511.939 188.475 518.219 185.73 523.364C184.699 525.295 184.338 525.677 183.347 525.879C182.586 526.035 181.455 526.834 180.108 528.167C178.668 529.592 178.037 530.027 178.037 529.594C178.037 529.253 178.674 526.898 179.453 524.363C180.231 521.827 180.824 519.709 180.771 519.655C180.717 519.602 179.685 520.799 178.478 522.317C175.745 525.752 171.777 530.176 160.955 541.853C149.682 554.016 147.935 555.958 146.336 558.098C145.515 559.196 144.223 560.345 143.059 561.011C140.584 562.427 139.125 564.115 137.717 567.188C136.33 570.216 135.573 573.532 135.266 577.93C135.003 581.679 134.279 584.984 133.439 586.266C133.131 586.736 132.272 587.431 131.53 587.809C130.669 588.248 130.099 588.827 129.953 589.41C129.686 590.473 130.208 590.939 131.678 590.947C133.098 590.955 133.168 591.669 131.979 594.023C130.736 596.486 130.134 598.717 129.102 604.679C128.683 607.099 127.864 610.267 127.283 611.718C126.286 614.205 126.202 614.798 125.838 621.925C125.625 626.087 125.448 633.531 125.446 638.467C125.442 647.125 125.481 647.65 126.569 653.293C127.189 656.511 128.253 660.919 128.934 663.089C130.339 667.571 130.394 668.163 129.594 670.162C129.156 671.258 129.073 672.187 129.246 674.049C129.537 677.187 132.135 685.106 134.387 689.725C135.913 692.853 136.319 693.404 137.703 694.215C138.866 694.896 139.812 695.95 141.299 698.216C144.214 702.661 144.243 702.69 144.87 701.796L145.381 701.066L146.257 701.883C147.518 703.06 148.351 704.88 148.646 707.101C149.08 710.373 149.612 711.24 151.8 712.242C154.088 713.289 155.54 713.246 156.035 712.116C156.747 710.496 157.928 711.287 160.236 714.932C160.94 716.045 161.636 716.956 161.782 716.956C161.928 716.956 162.913 716.068 163.971 714.983C165.029 713.899 168.35 710.977 171.35 708.49C174.351 706.004 177.33 703.327 177.97 702.543C180.382 699.588 181.007 700.93 180.994 709.036C180.981 717.045 180.426 719.588 178.024 722.66C177.061 723.891 176.289 725.25 176.285 725.72C176.281 726.184 176.7 727.427 177.215 728.48C178.156 730.404 178.457 730.635 181.483 731.757C182.119 731.993 182.794 732.475 182.983 732.827C183.519 733.828 182.411 734.19 177.591 734.592C172.402 735.024 40.2714 735.297 21.7614 734.914L21.7666 734.913ZM134.327 579.773C134.459 578.841 134.132 578.779 133.061 579.529C131.992 580.278 132.078 580.811 133.246 580.677C133.939 580.597 134.246 580.341 134.327 579.773V579.773ZM231.798 256.143C231.599 255.548 229.53 254.373 228.994 254.552C228.339 254.77 230.302 256.58 231.194 256.58C231.634 256.58 231.883 256.4 231.798 256.143V256.143ZM139.864 166.684C140.52 166.205 140.51 166.173 139.589 165.753C138.826 165.405 138.527 165.408 138.093 165.769C137.679 166.112 137.645 166.334 137.949 166.7C138.459 167.314 139.009 167.309 139.864 166.684V166.684ZM200.912 734.814C199.803 734.414 199.661 734.211 199.491 732.786C199.387 731.915 199.02 730.778 198.675 730.259C198.065 729.343 198.068 729.306 198.781 728.924C199.185 728.708 200.678 728.483 202.099 728.423C203.52 728.363 204.866 728.201 205.089 728.063C205.313 727.925 206.023 726.991 206.668 725.987C208.308 723.435 209.723 722.135 213.66 719.567C217.388 717.134 221.921 712.916 222.906 710.964C223.441 709.903 223.156 710.09 220.848 712.315C219.374 713.736 217.968 714.828 217.723 714.743C217.395 714.629 217.308 713.699 217.392 711.193C217.501 707.966 217.471 707.797 216.785 707.797C216.376 707.797 214.803 708.957 213.151 710.476C208.618 714.647 200.369 719.819 199.055 719.315C198.743 719.195 198.3 718.474 198.073 717.713C197.731 716.573 197.758 716.03 198.231 714.615C199.362 711.224 202.106 708.016 224.241 684.2C228.116 680.03 230.971 676.498 230.692 676.219C230.306 675.832 228.568 677.287 223.228 682.466C220.075 685.524 217.161 688.132 216.753 688.261C214.874 688.858 214.404 686.332 215.959 683.993C217.686 681.394 222.135 676.526 225.196 673.884C230.75 669.092 234.955 666.691 239.752 665.572C243.608 664.673 246.382 663.611 251.281 661.157C256.392 658.599 259.257 656.92 262.269 654.721C263.592 653.755 265.38 652.767 266.242 652.526C267.109 652.283 268.12 651.693 268.502 651.208C270.145 649.119 270.994 643.32 270.247 639.294C269.999 637.963 268.157 631.094 266.151 624.028C262.268 610.347 261.448 608.232 257.433 601.539C256.201 599.486 254.635 596.697 253.954 595.342C253.272 593.987 252.376 592.522 251.964 592.087C251.103 591.177 249.834 591.03 249.834 591.839C249.834 592.139 251.09 595.039 252.626 598.284C257.57 608.732 258.911 612.575 263.879 630.539C267.405 643.289 267.363 643.056 266.345 644.226C265.343 645.378 265.119 645.375 264.548 644.199C264.295 643.678 263.297 642.792 262.329 642.23C260.215 641.001 259.074 639.992 258.465 638.81C258.215 638.326 256.643 632.412 254.971 625.669C251.678 612.386 250.355 608.394 248.614 606.495C247.233 604.987 246.187 605.114 244.956 606.938C243.744 608.734 242.165 613.597 241.563 617.384C241.274 619.199 240.811 621.507 240.534 622.513C240.256 623.519 239.77 627.454 239.455 631.258C238.864 638.366 238.537 640.027 237.777 639.781C237.047 639.545 236.048 634.997 236.23 632.738C236.442 630.107 236.028 630.387 234.319 634.034C232.707 637.475 231.345 641.69 230.86 644.736C230.537 646.768 230.359 647.095 228.86 648.415C227.955 649.211 227.022 650.321 226.787 650.881L226.359 651.899L225.279 650.588C223.79 648.782 223.096 649.046 219.579 652.762C215.584 656.982 213.167 660.482 213.302 661.851C213.459 663.452 214.322 663.336 216.511 661.421C218.717 659.49 220.817 658.246 221.208 658.637C221.959 659.388 217.881 664.333 213.692 667.752C212.373 668.829 210.265 670.3 209.007 671.022C205.965 672.767 198.703 680.129 195.461 684.753C192.465 689.026 189.912 691.807 188.169 692.696C187.449 693.064 186.775 693.364 186.671 693.364C186.171 693.364 186.652 692.057 188.621 688.056C191.311 682.589 192.175 679.991 193.332 673.89C193.84 671.213 194.986 666.065 195.879 662.451C197.229 656.985 197.507 655.288 197.535 652.36C197.574 648.199 197.326 647.563 194.169 643.718C192.986 642.277 191.704 640.384 191.321 639.513C190.938 638.642 189.691 635.831 188.55 633.267C183.504 621.921 181.804 616.956 178.518 603.971C177.27 599.037 176.096 594.848 175.909 594.661C175.691 594.443 175.57 596.296 175.57 599.847C175.57 609.691 174.073 606.201 171.524 590.415C168.759 573.281 168.715 568.134 171.172 549.235C171.851 544.008 172.488 539.239 172.587 538.636C172.802 537.329 174.003 536.088 174.536 536.621C175.243 537.328 175.611 545.36 175.387 555.218C175.045 570.317 175.374 573.662 178.353 585.381C179.697 590.665 181.53 598.712 182.426 603.261C184.225 612.388 184.902 614.876 185.586 614.876C186.2 614.876 186.75 613.372 187.032 610.921C187.341 608.237 187.007 606.557 186.12 606.324C185.222 606.09 185.239 605.558 186.174 604.623C186.827 603.97 187.186 603.902 188.967 604.088C190.991 604.299 191.012 604.292 191.121 603.341C191.182 602.813 191.102 600.97 190.944 599.246C190.574 595.219 190.768 594.379 192.037 594.512C194.087 594.727 194.423 593.624 192.818 591.945L191.764 590.842L192.514 589.63L193.263 588.417L192.547 587.128C191.374 585.014 190.529 579.409 191.216 578.298C191.372 578.045 191.919 577.984 192.706 578.131C193.585 578.296 194.039 578.222 194.257 577.878C194.426 577.61 194.57 575.491 194.575 573.168C194.588 568.331 194.851 567.546 196.839 566.431C197.592 566.009 198.354 565.403 198.532 565.085C198.958 564.323 198.261 563.489 197.197 563.489C196.307 563.489 195.28 562.648 195.28 561.92C195.28 561.666 195.654 561.213 196.111 560.914C197.258 560.162 197.41 558.836 197.42 549.446C197.43 540.287 197.037 536.322 195.727 532.34C194.868 529.73 194.798 529.059 194.782 523.188C194.763 516.477 195.139 512.921 196.529 506.646C198.191 499.146 198.993 498.192 201.375 500.879C202.694 502.367 202.735 502.385 202.509 501.394C201.92 498.806 201.728 497.319 201.985 497.319C202.621 497.319 204.37 499.15 205.164 500.645C205.631 501.526 206.128 502.247 206.267 502.247C206.407 502.247 206.566 500.229 206.62 497.764C206.704 493.955 206.804 493.264 207.29 493.171C208.146 493.007 210.635 495.321 213.74 499.168C215.264 501.056 217.323 503.227 218.315 503.993C220.751 505.872 223.911 507.288 225.235 507.094C226.427 506.919 226.58 507.071 226.778 508.631C226.969 510.145 226.446 510.995 224.904 511.675L223.613 512.246L227.294 512.542C229.318 512.704 231.375 513.029 231.865 513.264C233.91 514.244 232.753 515.693 229.42 516.325C227.042 516.776 226.037 517.428 225.411 518.926C225.141 519.574 224.611 520.323 224.234 520.591C223.181 521.337 222.733 522.451 222.733 524.319C222.733 527.87 226.772 533.939 230.613 536.158C233.923 538.071 246.105 542.837 246.976 542.56C247.346 542.443 248.097 542.723 248.806 543.243C250.2 544.265 251.76 545.038 253.109 545.377C253.956 545.589 254.057 545.517 254.057 544.704C254.057 544.019 254.282 543.736 254.959 543.566C257.261 542.988 267.56 544.603 271.989 546.236C276.165 547.776 278.29 548.027 282.629 547.496C284.85 547.224 286.68 546.804 287.24 546.437C287.875 546.021 288.5 545.901 289.215 546.058C290.348 546.307 291.013 545.606 291.013 544.162C291.013 542.687 292.144 542.443 300.868 542.038C310.731 541.58 314.947 540.832 314.947 539.541C314.947 538.895 312.345 536.432 311.043 535.845L309.635 535.21L311.939 533.993C313.206 533.324 314.243 532.567 314.243 532.311C314.243 531.599 312.099 531.115 306.5 530.565C301.157 530.04 297.193 529.455 283.798 527.218C273.075 525.426 262.625 524.069 259.553 524.069C257.342 524.069 257.145 524.016 257.762 523.585C258.144 523.318 259.621 522.772 261.044 522.37C263.79 521.595 265.465 520.716 265.154 520.214C264.79 519.625 259.691 517.722 255.578 516.64C252.565 515.847 250.231 515.483 247.118 515.32C243.784 515.145 242.686 514.962 242.23 514.505C241.681 513.956 241.705 513.859 242.597 513.033L243.551 512.148L241.677 511.255C239.896 510.406 235.403 507.006 235.403 506.507C235.403 506.378 236.856 506.388 238.632 506.53C240.408 506.672 242 506.703 242.169 506.598C242.338 506.494 242.429 506.073 242.371 505.662C242.202 504.458 243.597 504.021 247.722 503.986C253.229 503.94 255.079 503.603 255.883 502.499C256.373 501.827 256.995 501.518 258.208 501.342C259.119 501.211 260.294 500.855 260.819 500.551C261.695 500.045 261.942 500.052 263.786 500.633C266.716 501.556 273.683 504.788 282.447 509.289L290.134 513.237L302.101 513.031C310.418 512.888 314.829 512.67 316.563 512.316C320.956 511.42 322.389 510.514 322.85 508.342C323.088 507.222 325.784 504.359 326.601 504.359C326.824 504.359 327.501 504.655 328.105 505.018C330.252 506.308 333.953 506.236 333.953 504.904C333.953 503.491 320.423 498.539 307.399 495.187C303.711 494.237 297.366 492.416 293.301 491.141C283.412 488.037 281.77 487.812 276.567 488.851C271.825 489.798 268.353 491.304 265.801 493.519C262.997 495.955 262.385 496.11 258.974 495.247C256.746 494.684 255.513 494.568 253.519 494.737C251.001 494.95 250.842 494.913 246.452 493.108C240.761 490.768 239.861 490.137 240.135 488.678C240.522 486.618 238.516 485.547 231.958 484.313C222.896 482.607 214.594 482.088 213.008 483.127C212.145 483.692 208.368 483.893 207.593 483.414C207.427 483.312 207.677 482.842 208.148 482.37C209.378 481.141 209.217 480.777 207.443 480.777C206.583 480.777 205.786 480.625 205.671 480.44C205.324 479.879 205.023 475.635 205.262 474.682C205.385 474.193 205.902 473.298 206.41 472.694C208.985 469.634 213.491 469.196 220.092 471.364C224.833 472.921 226.733 473.216 228.67 472.694C231.091 472.043 231.026 471.013 228.378 468.022C227.507 467.038 226.443 466.234 225.784 466.063C224.915 465.838 224.668 465.584 224.668 464.917C224.668 464.127 224.787 464.066 226.163 464.153C227.81 464.257 227.793 464.284 227.674 461.704L227.598 460.052L229.3 459.944C230.867 459.844 231.012 459.758 231.115 458.863C231.336 456.941 229.273 453.343 224.507 447.34C220.574 442.385 219.448 440.491 219.416 438.769C219.393 437.54 219.506 437.293 220.135 437.204C220.676 437.126 221.438 437.711 222.89 439.315L224.897 441.534L224.641 437.838C224.202 431.49 224.339 429.538 225.345 427.82C225.834 426.986 227.016 425.649 227.973 424.848C229.806 423.313 233.673 420.857 233.9 421.084C233.974 421.158 233.79 422.16 233.492 423.31C232.863 425.738 232.38 432.04 232.72 433.392C233.049 434.702 234.474 434.676 234.99 433.351C236.372 429.795 236.971 426.845 237.149 422.708C237.385 417.221 237.541 417.134 241.178 420.468L243.787 422.86L243.237 423.926C242.934 424.512 241.998 425.838 241.156 426.872C240.315 427.906 239.626 428.906 239.626 429.095C239.626 430.248 242.455 433.741 243.861 434.323C244.577 434.62 244.906 435.003 244.906 435.541C244.906 436.835 244.151 438.648 243.114 439.847C241.827 441.336 241.521 443.521 242.03 447.589C242.563 451.841 243.664 455.111 245.116 456.754C246.496 458.316 246.531 458.147 245.612 454.315C244.766 450.788 244.717 447.52 245.456 443.941C246.9 436.95 249.906 433.475 253.486 434.657C255.747 435.403 255.963 436.642 254.424 440.037C252.574 444.116 251.187 453.519 252.33 454.226C252.542 454.357 253.169 454.128 253.724 453.719C254.278 453.309 254.866 452.973 255.029 452.973C255.193 452.973 255.864 453.527 256.52 454.205C258.179 455.917 258.935 455.799 261.036 453.5C263.511 450.792 264.375 448.376 264.189 444.689C264.067 442.289 263.868 441.542 262.871 439.761C262.225 438.607 261.398 437.092 261.033 436.394L260.369 435.125L261.841 432.292L263.314 429.459L262.35 427.814C261.671 426.656 261.451 425.906 261.608 425.282C261.881 424.193 261.37 423.532 259.721 422.843C258.077 422.156 256.899 421.044 256.283 419.599C255.81 418.487 255.917 417.073 256.475 417.073C256.98 417.073 259.877 419.1 260.806 420.103C265.019 424.654 270.034 430.45 270.47 431.271C271.135 432.52 270.875 433.263 269.773 433.263C268.337 433.263 267.968 434.071 268.44 436.179C268.667 437.188 269.254 438.881 269.745 439.939C270.907 442.445 271.427 446.591 271.157 451.213C270.914 455.379 270.468 457.326 268.931 460.921C267.586 464.066 267.288 465.422 267.751 466.287C268.162 467.056 272.015 469.953 274.563 471.408C278.525 473.672 282.675 474.613 298.91 476.928C304.214 477.685 308.228 477.592 310.245 476.666C310.853 476.387 312.041 476.208 312.885 476.268C314.337 476.373 314.417 476.435 314.392 477.434C314.377 478.015 314.149 479.476 313.884 480.68C313.619 481.885 313.517 482.986 313.659 483.127C314.075 483.543 319.889 483.324 321.2 482.844C321.81 482.62 321.979 482.309 321.92 481.526C321.862 480.761 322.113 480.273 322.915 479.599C325.675 477.276 327.886 468.195 326.395 465.31C325.598 463.77 323.229 461.934 321.003 461.133C319.898 460.735 316.589 459.853 313.649 459.172C308.036 457.873 305.037 456.651 304.36 455.385C304.137 454.969 303.507 452.819 302.961 450.608C302.414 448.397 301.402 445.478 300.713 444.121C300.024 442.764 299.46 441.508 299.46 441.33C299.46 440.631 300.618 441.071 302.318 442.414C303.724 443.526 304.395 443.822 305.509 443.822C307.411 443.822 308.391 443.046 311.09 439.401L313.362 436.334L314.066 440.599L314.77 444.865L316.127 442.378C317.808 439.298 319.23 437.65 320.98 436.757C321.722 436.378 324.658 435.681 327.503 435.206C334.146 434.099 334.411 434.251 331.402 437.452C329.081 439.921 326.926 443.624 327.485 444.183C327.663 444.36 328.832 444.55 330.084 444.604L332.36 444.703L332.588 446.294C332.713 447.169 333.211 449.149 333.695 450.693C334.179 452.237 334.685 454.015 334.82 454.644C335.078 455.851 336.152 456.845 337.198 456.845C337.543 456.845 337.824 456.616 337.824 456.337C337.824 455.636 339.046 454.845 341.152 454.184C344.661 453.083 344.595 453.163 344.457 450.168L344.335 447.518L345.278 447.615C346.205 447.711 346.214 447.692 345.853 446.383C345.652 445.652 345.201 444.329 344.852 443.443C344.2 441.786 344.364 440.837 345.244 441.175C345.927 441.437 347.808 444.272 348.913 446.703C349.922 448.924 351.53 456.457 351.542 459.021C351.555 461.553 351.071 462.389 347.503 465.996C344.104 469.431 343.206 470.858 343.775 471.914C344.234 472.765 345.622 474.004 347.54 475.275C349.603 476.641 350.6 477.951 350.419 479.056C350.286 479.875 350.263 479.866 349.596 478.746C349.139 477.977 348.683 477.626 348.226 477.69C347.614 477.776 347.538 478.087 347.522 480.602L347.503 483.418L346.013 483.526C344.385 483.644 343.456 484.529 343.456 485.96C343.456 486.876 344.028 486.972 345.019 486.222C345.394 485.938 345.925 485.706 346.198 485.706C346.854 485.706 346.618 488.167 345.777 490.105L345.166 491.513L346.99 489.669C347.994 488.655 348.955 487.912 349.127 488.018C350.019 488.57 348.62 492.092 345.584 496.935C344.807 498.174 344.077 499.758 343.962 500.454C343.631 502.455 343.535 502.602 342.395 502.829C341.276 503.053 340.64 503.834 340.64 504.984C340.64 506.406 338.422 509.954 335.533 513.153C333.875 514.989 332.06 517.286 331.499 518.257C330.938 519.228 329.12 521.599 327.459 523.526C325.798 525.454 324.493 527.196 324.559 527.398C324.625 527.6 325.18 527.815 325.792 527.875C327.017 527.996 327.969 529.048 327.969 530.281C327.969 530.707 327.473 532.295 326.866 533.81C326.259 535.325 325.304 538.307 324.743 540.436C322.915 547.383 321.679 550.307 319.071 553.846L317.49 555.993L319.783 558.044C322.272 560.27 323.374 562.185 323.386 564.307C323.39 565.047 323.007 567.344 322.535 569.411C320.854 576.774 320.432 582.238 319.704 606.078C318.39 649.09 318.536 646.303 317.531 647.776C316.248 649.66 317.432 666.864 319.339 674.024C323.016 687.834 323.123 688.118 325.665 690.863C326.491 691.755 327.347 692.831 327.568 693.254C328.056 694.189 328.09 695.375 327.634 695.535C327.449 695.6 327.194 696.309 327.067 697.111C326.85 698.476 326.925 698.656 328.23 699.927C329.35 701.015 329.677 701.632 329.882 703.044C330.203 705.241 331.157 707.451 332.537 709.194C334.908 712.187 340.052 727.44 340.535 732.907L340.748 735.317L281.828 735.13C246.534 735.018 222.012 734.807 220.672 734.602C217.912 734.181 217.497 733.833 218.297 732.613L218.894 731.701L216.677 732.823C215.458 733.441 213.669 734.168 212.701 734.44C210.222 735.136 202.483 735.381 200.91 734.813L200.912 734.814ZM264.618 435.954C264.618 435.233 263.235 433.619 262.618 433.619C262.204 433.619 262.134 433.846 262.32 434.585C262.453 435.116 262.727 435.75 262.929 435.993C263.42 436.585 264.618 436.557 264.618 435.955V435.954ZM451.538 733.094C451.052 730.584 450.445 729.427 449.447 729.11C448.048 728.666 447.868 727.252 448.109 718.594C448.327 710.787 448.999 701.102 449.714 695.482C450.652 688.105 450.488 679.788 449.212 669.965C447.734 658.579 447.497 653.779 447.489 634.945C447.479 611.737 447.942 604.243 450.46 586.902C453.776 564.064 453.802 563.685 453.784 538.683C453.767 516.209 453.628 513.2 452.053 501.375C450.86 492.423 450.361 486.854 450.625 485.449C450.825 484.38 450.951 484.265 451.71 484.456C452.769 484.721 452.803 484.241 452.02 480.033C451.415 476.78 448.783 467.026 448.405 466.636C448.273 466.5 446.372 467.643 444.179 469.176C441.987 470.709 438.741 472.696 436.966 473.591C435.192 474.486 433.623 475.402 433.48 475.626C433.337 475.851 433.218 476.691 433.215 477.494C433.207 479.469 431.58 480.957 429.044 481.306C428.002 481.449 427.033 481.823 426.672 482.223C425.693 483.304 424.428 483.025 420.948 480.959C415.566 477.763 415.224 477.635 410.588 477.091C405.847 476.535 400.634 475.32 397.419 474.022C395.245 473.144 392.702 471.733 388.038 468.818C384.833 466.815 382.676 466.298 381.294 467.203C380.54 467.698 380.416 468.04 380.424 469.619C380.429 470.631 380.797 473.126 381.242 475.164C381.687 477.202 381.989 479.057 381.912 479.286C381.824 479.55 381.386 479.625 380.717 479.491L379.661 479.28L379.912 480.649C380.05 481.402 380.693 483.522 381.341 485.361C383.39 491.176 382.743 490.986 379.549 484.833C378.443 482.704 377.096 480.487 376.555 479.906C375.102 478.345 374.722 477.411 374.411 474.633C374.088 471.755 373.169 469.171 372.467 469.171C371.843 469.171 371.195 471.514 369.889 478.498C368.419 486.361 368.138 488.733 367.877 495.474C367.423 507.235 368.835 514.592 373.532 524.935L374.48 527.024L372.784 525.142C368.727 520.641 368.04 519.173 366.131 510.925C364.233 502.728 363.782 498.015 364.223 490.993C364.743 482.715 365.002 480.434 365.42 480.433C365.634 480.433 366.254 479.727 366.799 478.865C367.681 477.469 367.788 476.979 367.782 474.378C367.779 472.773 367.377 468.028 366.889 463.835C365.905 455.38 365.155 452.503 362.054 445.296C359.964 440.44 358.241 435.879 358.241 435.204C358.241 434.901 358.587 434.747 359.175 434.789C359.933 434.842 360.162 434.66 360.394 433.821C360.754 432.517 360.215 428.501 359.068 423.944C357.766 418.771 357.489 415.238 357.935 409.514C358.147 406.804 358.434 404.462 358.574 404.311C358.714 404.159 359.908 405.943 361.229 408.275C362.549 410.606 363.689 412.454 363.763 412.381C363.836 412.307 363.722 411.474 363.508 410.529C362.974 408.162 362.111 401.086 362.121 399.145L362.129 397.547L363.341 399.483C364.007 400.548 365.373 403.042 366.374 405.027C367.376 407.011 368.407 408.634 368.665 408.634C369.257 408.634 375.833 403.35 381.074 398.663C388.415 392.098 392.676 386.58 398.105 376.605C399.738 373.604 401.604 370.278 402.25 369.214C403.779 366.698 406.417 363.23 406.803 363.23C407.5 363.23 413.106 357.51 416.268 353.573C420.475 348.334 423.366 344.021 424.8 340.842C426.421 337.25 428.704 334.269 431.554 332.023C432.948 330.925 434.16 329.969 434.246 329.9C434.332 329.83 433.224 328.572 431.782 327.104C430.051 325.34 428.522 324.145 427.275 323.582C426.238 323.113 424.167 321.691 422.673 320.421C421.179 319.151 418.39 317.217 416.475 316.122C414.366 314.917 412.785 313.759 412.465 313.187C411.993 312.34 412.021 311.215 412.745 302.276C414.091 285.645 414.612 281.966 416.518 275.634C417.18 273.432 417.726 271.294 417.731 270.883C417.735 270.472 418.044 269.462 418.417 268.64C418.95 267.466 419.284 267.144 419.967 267.144C420.805 267.144 420.835 267.065 420.776 264.956C420.723 263.062 420.804 262.75 421.383 262.632C421.812 262.545 422.467 262.95 423.213 263.764C424.999 265.714 426.143 265.386 425.513 263.104C425.326 262.425 425.296 261.793 425.447 261.7C425.925 261.404 430.824 262.917 433.424 264.163C437.968 266.341 441.085 269.152 444.397 274.059C445.864 276.233 447.68 277.7 448.913 277.706C451.369 277.719 456.121 281.548 460.483 287.03C467.073 295.311 472.647 305.104 477.053 316.142C479.547 322.388 480.93 324.681 484.142 327.894C488.358 332.11 499.356 340.588 502.475 342.025C504.597 343.003 505.913 342.98 509.584 341.904C512.908 340.929 520.286 341.004 525.95 342.07C531.924 343.195 538.094 344.787 541.788 346.158C546.876 348.046 548.424 348.404 555.5 349.333C567.673 350.93 576.102 352.641 578.946 354.092C579.677 354.465 582.121 355.885 584.376 357.247C586.632 358.609 589.138 360.058 589.946 360.467C592.092 361.553 600.985 367.522 604.906 370.507C606.768 371.925 608.454 373.085 608.653 373.084C609.428 373.081 611.279 371.645 614.899 368.238C621.21 362.297 623.153 361.311 628.546 361.307C632.734 361.304 635.716 362.177 639.706 364.575C643.403 366.797 645.975 369.004 649.287 372.795C652.739 376.748 654.141 379.409 657.086 387.596C658.415 391.291 659.828 394.661 660.226 395.085C660.631 395.516 661.79 396.044 662.854 396.282C667.467 397.314 668.767 399.698 670.262 409.866C671.927 421.195 677.768 433.68 681.792 434.51C684.345 435.037 686.288 436.982 690.397 443.127C693.728 448.108 694.884 451.031 697.843 461.957C699.568 468.325 701.176 476.231 701.96 482.195C702.726 488.031 702.474 495.01 701.241 502.081C699.53 511.894 699.655 515.058 702.036 522.138L703.34 526.014L703.558 523.374C703.678 521.923 703.797 518.517 703.824 515.807C703.85 513.097 703.973 509.35 704.097 507.48L704.322 504.081L706.947 505.006C712.187 506.854 714.841 511.409 716.212 520.91C716.834 525.217 716.74 536.308 716.029 542.38C714.136 558.572 711.958 563.365 701.476 574.409C693.861 582.433 693.301 583.388 688.267 596.95C682.701 611.949 677.943 622.013 674.298 626.5C673.119 627.952 671.789 629.942 671.342 630.921C670.895 631.901 669.342 634.039 667.89 635.673C666.439 637.306 664.369 640.018 663.29 641.697C662.211 643.377 661.011 644.922 660.624 645.129C659.362 645.804 658.332 645.565 657.35 644.371L656.411 643.229L654.473 643.888C653.407 644.25 652.292 644.453 651.995 644.339C651.698 644.225 651.053 643.495 650.561 642.716C649.329 640.764 648.298 640.189 645.481 639.879C644.147 639.733 642.881 639.504 642.665 639.371C641.957 638.933 642.256 638.165 643.506 637.211C645.687 635.548 644.831 634.255 641.973 634.897C639.59 635.432 639.457 634.866 640.944 630.525C641.636 628.505 642.076 626.852 641.921 626.852C641.767 626.852 640.864 627.702 639.916 628.74C638.155 630.666 637.351 632.508 637.341 634.636C637.334 636.164 636.59 639.202 635.66 641.498C634.596 644.125 633.783 648.335 633.525 652.545L633.299 656.241L630.307 652.445C626.099 647.105 625.226 645.305 625.275 642.075C625.296 640.671 625.174 639.523 625.004 639.523C624.833 639.523 624.433 640.027 624.114 640.644C623.151 642.507 623.622 645.158 625.832 650.322C626.895 652.803 627.957 655.479 628.193 656.269C628.429 657.058 629.551 658.868 630.685 660.291C632.22 662.217 632.817 663.29 633.023 664.487C633.32 666.216 633.363 677.754 633.189 708.155C633.11 721.922 633.193 727.735 633.485 728.745C634.362 731.777 634.329 732.345 633.216 733.458C632.072 734.602 629.62 735.425 628.324 735.1C627.265 734.834 627.247 733.91 628.195 728.745C628.583 726.638 628.893 723.717 628.885 722.254C628.872 719.67 628.856 719.622 628.335 720.583C628.04 721.127 627.595 723.149 627.345 725.077C627.095 727.005 626.775 728.699 626.633 728.84C626.207 729.266 624.727 727.252 624.298 725.66C623.688 723.4 623.283 720.21 623.275 717.601C623.266 714.699 622.413 710.098 621.675 708.972C621.213 708.266 620.932 708.165 619.948 708.35C619.302 708.471 618.693 708.437 618.596 708.275C618.498 708.112 618.591 707.147 618.801 706.131C619.086 704.755 619.08 704.178 618.777 703.875C618.151 703.249 617.41 704.064 617.154 705.66C616.868 707.451 615.976 707.814 614.91 706.574C614.474 706.067 614.117 705.423 614.117 705.144C614.117 704.066 613.421 704.707 613.045 706.131C610.821 714.561 606.897 721.808 601.838 726.829C597.372 731.263 595.463 732.32 595.463 730.36C595.463 729.067 594.816 729.258 592.473 731.246L590.136 733.229L590.324 732.043C590.428 731.39 590.694 729.138 590.914 727.038C591.135 724.938 591.687 722.014 592.142 720.541C592.596 719.067 592.893 717.786 592.801 717.694C592.454 717.348 588.439 721.874 587.568 723.593C586.671 725.363 585.288 726.457 583.947 726.457C583.595 726.457 582.046 727.09 580.504 727.865C578.963 728.639 577.501 729.273 577.255 729.273C576.432 729.273 576.784 726.907 578.367 721.802C581.22 712.604 583.553 704.498 584.372 700.94C584.817 699.004 585.5 696.219 585.89 694.752C586.712 691.655 587.934 682.911 587.592 682.569C587.16 682.136 586.35 683.681 584.608 688.269C581.859 695.504 572.962 723.491 571.104 730.741C570.521 733.015 570.132 733.908 569.658 734.059C567.322 734.8 557.755 734.967 507.437 735.141L451.968 735.334L451.535 733.095L451.538 733.094ZM682.748 671.255C682.748 671.041 683.144 669.97 683.627 668.876C684.707 666.435 684.764 665.024 683.803 664.51C683.416 664.303 683.1 663.936 683.1 663.694C683.1 662.842 681.018 661.952 679.57 662.183C677.842 662.459 676.412 661.931 676.412 661.016C676.412 660.633 678.347 657.738 680.711 654.584C689.008 643.514 694.067 634.426 698.099 623.35C699.877 618.466 701.098 614.074 703.669 603.311C706.374 591.987 708.381 584.831 711.057 576.962C713.086 570.998 714.159 568.583 715.92 566.014L716.97 564.483L718.685 566.173C720.42 567.881 721.107 569.284 720.996 570.888C720.942 571.683 721.08 571.778 722.43 571.876C724.754 572.044 724.774 572.152 724.509 582.846C723.929 606.247 721.28 622.879 715.763 637.762C713.78 643.112 708.077 654.445 705.988 657.186C702.415 661.874 694.318 667.859 688.281 670.275C685.594 671.35 682.748 671.855 682.748 671.257L682.748 671.255ZM252.138 656.446C251.739 655.801 252.411 654.988 254.339 653.782C256.533 652.41 261.41 650.279 261.699 650.568C262.322 651.191 260.583 652.705 256.089 655.447C253.984 656.732 252.54 657.097 252.138 656.446V656.446ZM360.218 593.594L358.121 591.312L356.6 592.715C355.261 593.949 354.873 594.117 353.367 594.117C351.126 594.117 348.256 592.684 344.986 589.931C342.412 587.764 339.462 584.38 339.746 583.92C339.835 583.776 340.724 583.562 341.722 583.443C346.149 582.919 347.17 580.084 345.394 573.247C344.915 571.406 344.267 569.211 343.952 568.37C342.569 564.664 343.052 563.841 345.7 565.392C348.32 566.928 351.895 572.014 351.895 574.206C351.895 575.416 352.54 575.678 353.4 574.818C354.062 574.157 354.096 573.912 353.769 572.224C353.57 571.198 353.034 568.995 352.579 567.327C351.808 564.503 351.791 564.254 352.334 563.711C352.877 563.168 352.947 563.183 353.344 563.928C354.151 565.443 356.313 566.717 358.554 566.997C359.41 567.104 360.168 567.366 360.238 567.579C360.308 567.792 359.722 568.742 358.935 569.691C357.153 571.839 357.153 572.913 358.934 573.754C359.612 574.074 360.896 574.434 361.789 574.553C363.464 574.777 364.4 575.481 364.62 576.683C364.733 577.301 364.901 577.236 366.195 576.067C367.989 574.446 368.932 574.39 369.692 575.859C370.354 577.139 370.23 579.077 369.334 581.441C369.005 582.309 368.362 584.843 367.905 587.072C366.504 593.901 365.488 595.877 363.379 595.877C362.519 595.877 361.911 595.438 360.218 593.595L360.218 593.594ZM343.536 580.86C342.932 580.617 342.962 578.63 343.569 578.63C344.287 578.63 345.32 579.94 345.085 580.553C344.878 581.093 344.365 581.195 343.536 580.86H343.536ZM191.756 571.482C191.752 570.442 191.886 569.873 192.102 570.007C192.55 570.283 192.55 571.954 192.102 572.646C191.856 573.028 191.759 572.704 191.756 571.482ZM364.736 571.764C363.961 571.285 363.051 570.794 362.712 570.673C362.21 570.493 362.096 570.024 362.096 568.144V565.836L363.064 566.69C363.596 567.159 364.367 567.931 364.776 568.405C365.185 568.879 366.056 569.447 366.712 569.667C368.004 570.1 368.462 571.233 367.711 572.138C367.113 572.859 366.351 572.763 364.736 571.764L364.736 571.764ZM356.624 561.223C355.573 560.172 355.469 558.919 356.433 558.919C357.175 558.919 358.928 560.794 358.928 561.586C358.928 562.382 357.569 562.168 356.624 561.223H356.624ZM352.427 554.643C349.467 551.126 346.323 541.547 345.744 534.282C345.589 532.337 345.221 530.661 344.691 529.491C343.91 527.765 343.477 527.329 339.924 524.689C338.324 523.501 337.809 522.528 338.443 521.894C338.946 521.391 340.056 522.064 342.92 524.611C344.278 525.819 345.704 526.866 346.088 526.938C347.058 527.118 349.209 531.346 350.099 534.823C350.493 536.365 351.294 540.239 351.878 543.433C352.462 546.627 353.258 550.349 353.646 551.703C354.823 555.806 354.355 556.935 352.427 554.644V554.643ZM370.065 536.383C369.512 536.218 368.763 535.814 368.4 535.486C367.371 534.555 365.75 529.706 366.467 529.706C366.549 529.706 367.978 530.419 369.644 531.29C371.309 532.161 373.04 532.874 373.49 532.874C375.083 532.874 379.582 535.72 379.134 536.445C378.895 536.831 371.39 536.781 370.065 536.384V536.383ZM354.382 511.843C353.391 508.101 352.906 501.196 353.634 501.196C354.359 501.196 355.408 506.637 355.408 510.396C355.408 513.359 354.953 514.001 354.382 511.843L354.382 511.843ZM350.852 485.91C350.23 485.161 350.855 483.326 352.639 480.657C353.948 478.698 354.253 478.43 354.82 478.733C355.502 479.098 355.501 479.156 354.785 482.367C354.038 485.713 352.121 487.44 350.852 485.91V485.91ZM291.614 457.529C290.888 457.146 290.294 456.724 290.294 456.59C290.294 456.457 290.695 456.025 291.184 455.631C292.34 454.699 292.646 452.264 292.05 448.726C291.726 446.797 291.088 445.103 289.611 442.243C287.508 438.171 286.501 435.536 286.897 435.14C287.498 434.539 291.259 439.134 293.572 443.294C295.517 446.791 296.651 450.259 296.855 453.33C297.004 455.577 296.923 456.14 296.307 457.113C295.696 458.08 295.379 458.255 294.259 458.242C293.53 458.233 292.34 457.913 291.614 457.529V457.529ZM359.747 456.929C359.521 456.785 358.738 455.561 358.009 454.21C357.279 452.859 355.378 449.752 353.784 447.306C352.19 444.86 350.419 441.928 349.847 440.791C348.865 438.838 348.112 436.436 348.481 436.436C348.573 436.436 349.559 437.901 350.672 439.691C351.785 441.482 353.65 444.201 354.816 445.734C357.129 448.773 361.391 455.877 361.391 456.692C361.391 457.231 360.438 457.368 359.747 456.928V456.929ZM279.716 454.445C278.856 453.897 277.55 452.78 276.816 451.963C274.321 449.188 274.21 447.643 276.282 444.558L277.756 442.363L277.146 440.074C276.205 436.542 274.911 429.936 274.295 425.522C273.658 420.96 273.916 420.038 275.336 421.802C276.929 423.783 278.436 427.503 279.627 432.388C280.287 435.098 281.145 438.178 281.534 439.233C282.369 441.497 284.411 444.403 285.383 444.712C286.124 444.947 286.25 445.632 286.092 448.578C285.933 451.546 284.642 453.823 282.48 454.947C281.291 455.566 281.55 455.613 279.716 454.445V454.445ZM308.244 402.556C307.76 402.304 307.155 401.663 306.9 401.131C306.188 399.645 306.89 398.122 309.491 395.508C312.444 392.541 312.453 392.09 309.565 392.032C307.703 391.995 305.481 393.07 299.425 396.94C293.862 400.494 291.678 401.591 290.168 401.591C288.805 401.591 288.383 400.979 288.869 399.702C289.186 398.868 289.973 398.159 292.62 396.325C293.877 395.454 294.09 395.113 294.248 393.719C294.378 392.559 294.976 391.269 296.409 389.057C298.421 385.951 298.912 384.143 297.949 383.376C297.708 383.184 296.72 382.911 295.756 382.772C293.236 382.406 290.524 381.306 284.135 378.056L278.503 375.192L284.487 375.373C287.778 375.472 292.767 375.624 295.574 375.711L300.677 375.868L296.806 375.047C289.955 373.593 287.14 372.097 286.361 369.495C286.044 368.438 285.66 367.938 284.964 367.676C284.135 367.363 284.032 367.171 284.213 366.269L284.421 365.226L281.638 365.445C280.108 365.566 276.875 366.077 274.456 366.582C271.087 367.284 269.522 367.447 267.776 367.28C265.239 367.038 264.541 366.587 263.476 364.499C262.665 362.91 262.935 362.547 264.953 362.513C267.142 362.476 269.218 361.921 270.354 361.068C271.372 360.304 271.725 360.247 274.632 360.382C280.823 360.668 281.25 360.637 282.414 359.806C284.355 358.421 292.414 357.621 306.484 357.416C316.866 357.265 320.039 356.963 323.363 355.813C325.661 355.018 326.194 355.111 326.194 356.304C326.194 357.377 323.853 361.262 322.147 363.022C319.491 365.762 319.044 365.863 309.476 365.893C299.212 365.925 298.389 365.959 298.389 366.352C298.389 366.679 299.732 367.266 301.204 367.582C301.688 367.687 302.401 368.013 302.788 368.308C304.034 369.258 302.811 369.602 298.595 369.489C295.852 369.416 294.713 369.506 294.612 369.806C294.247 370.897 300.754 371.596 312.503 371.726L321.163 371.823L324.908 368.436C331.973 362.048 335.139 360.059 338.246 360.059C341.036 360.059 341.68 360.657 341.68 363.247C341.68 364.397 341.822 365.339 341.997 365.339C342.171 365.339 343.156 364.705 344.187 363.931C346.421 362.252 348.015 362.023 348.015 363.38C348.015 364.004 347.324 364.844 345.482 366.46C338.759 372.356 336.873 374.661 334.413 379.986C333.229 382.549 332.538 385.049 333.015 385.049C333.139 385.049 334.423 383.952 335.869 382.611C338.902 379.799 339.597 379.477 340.855 380.301C341.607 380.793 341.719 381.071 341.536 381.985C341.028 384.525 336.314 387.81 328.87 390.811C324.55 392.553 320.961 394.886 317.38 398.279C313.183 402.258 310.282 403.615 308.243 402.556L308.244 402.556ZM357.419 401.134C357.285 400.786 357.273 398.885 357.392 396.91C357.754 390.894 356.448 385.4 354.655 385.4C353.835 385.4 353.832 385.35 354.882 389.272C355.714 392.376 355.776 396.797 354.999 397.574C354.463 398.111 354.383 398.092 353.898 397.32C353.611 396.862 353.286 395.22 353.176 393.672C353.067 392.123 352.739 389.12 352.448 386.998C352.157 384.876 351.963 383.096 352.017 383.041C352.072 382.987 353.028 383.18 354.143 383.471C358.758 384.673 364.559 390.444 364.559 393.834C364.559 394.422 364.413 394.904 364.236 394.904C364.059 394.904 363.055 393.954 362.005 392.794C360.955 391.634 359.991 390.789 359.863 390.917C359.736 391.045 359.624 392.192 359.616 393.467C359.599 396.13 357.847 402.246 357.419 401.134L357.419 401.134ZM355.231 360.203C348.982 357.926 344.589 356.53 343.017 356.321C340.123 355.938 339.609 354.098 342.043 352.839C343.391 352.142 349.156 351.598 352.767 351.827C356.907 352.089 358.408 352.562 359.672 354.001C360.705 355.178 360.753 355.364 360.622 357.688C360.413 361.376 359.552 361.777 355.231 360.203H355.231ZM328.57 357.22C327.512 356.596 327.837 355.558 329.33 354.797C332.371 353.245 334.994 353.618 333.73 355.422C332.728 356.853 329.723 357.9 328.57 357.22L328.57 357.22ZM240.104 348.205C239.237 346.238 239.102 343.052 239.758 339.998C240.07 338.546 240.513 335.084 240.742 332.305C241.125 327.655 241.222 327.21 241.967 326.722C242.977 326.06 244.995 326.375 245.966 327.347C247.259 328.639 246.51 334.345 244.283 340.174C243.765 341.529 242.938 344.129 242.444 345.952C241.951 347.775 241.356 349.33 241.122 349.408C240.888 349.486 240.43 348.945 240.104 348.205V348.205ZM302.195 341.421C299.065 340.847 296.416 339.052 291 333.838C288.185 331.128 284.286 327.537 282.334 325.858C275.327 319.828 273.207 316.388 276.046 315.656C276.63 315.505 278.19 314.467 279.512 313.347C285.048 308.661 285.52 308.417 286.798 309.574C287.132 309.876 288.412 310.494 289.642 310.948C290.872 311.403 293.225 312.341 294.87 313.033C296.516 313.726 298.067 314.295 298.318 314.298C298.575 314.301 298.23 313.591 297.526 312.67C296.093 310.793 295.958 310.08 297.036 310.08C298.164 310.08 302.086 312.392 302.488 313.294C302.704 313.776 303.371 314.228 304.222 314.466C305.545 314.838 305.606 314.918 305.627 316.336C305.643 317.439 305.968 318.275 306.9 319.612C308.166 321.428 311.592 324.511 312.345 324.511C313.354 324.511 317.663 318.312 318.84 315.169C319.456 313.522 319.836 313.094 321.901 311.726C324.614 309.928 325.639 308.912 326.181 307.48C326.679 306.166 326.501 306.033 325.165 306.723C324.156 307.245 324.053 307.244 323.849 306.713C323.479 305.748 324.054 298.16 324.596 296.864C325.222 295.367 325.843 295.334 327.133 296.729C328.417 298.118 329.753 298.818 331.121 298.818C332.342 298.818 333.936 300.151 333.942 301.177C333.949 302.611 335.665 305.404 337.655 307.223L339.724 309.114L337.316 313.824C334.525 319.282 332.55 322.189 331.137 322.919C330.307 323.349 330.071 323.357 329.748 322.967C329.225 322.336 329.857 320.603 332.334 315.88C335.08 310.645 334.949 309.356 331.981 312.409C330.016 314.43 327.747 318.272 326.603 321.515C325.855 323.635 325.74 324.538 325.79 327.924C325.833 330.895 325.731 331.934 325.375 332.147C325.115 332.303 324.373 333.432 323.726 334.657C321.785 338.328 319.677 339.683 314.052 340.875C310.996 341.522 304.403 341.826 302.195 341.421V341.421ZM288.682 295.095C288.552 294.403 288.516 291.648 288.601 288.973C288.723 285.171 288.888 283.91 289.358 283.193C290.083 282.085 290.61 282.045 291.828 283.002C293.753 284.517 294.276 289.142 292.897 292.453C292.314 293.853 290.045 296.354 289.359 296.354C289.117 296.354 288.812 295.787 288.682 295.095V295.095ZM325.327 288.41C325.002 285.805 324.395 284.446 322.545 282.174C320.281 279.394 319.982 278.738 320.73 278.191C322.729 276.73 326.547 282.635 326.547 287.187C326.547 290.782 325.726 291.604 325.327 288.41V288.41ZM445.887 268.808C445.419 268.568 444.978 268.201 444.909 267.991C444.734 267.46 446.351 265.909 448.851 264.211C453.805 260.844 455.694 258.429 464.169 244.616C472.232 231.475 474.576 228.164 475.303 228.891C476.045 229.633 475.037 235.773 472.981 243.032C472.213 245.742 471.324 249.383 471.004 251.124C470.298 254.968 469.241 257.145 466.854 259.677C461.41 265.45 449.485 270.643 445.888 268.808L445.887 268.808ZM212.327 171.037C201.923 170.364 197.076 169.815 195.394 169.12C194.719 168.841 193.372 167.472 191.881 165.549C190.55 163.834 188.473 161.263 187.265 159.836C185.684 157.969 184.771 156.47 184.008 154.493C182.355 150.207 180.123 141.559 180.123 139.443C180.123 138.768 181.361 136.843 184.343 132.885C190.575 124.614 198.224 112.981 197.432 112.981C197.237 112.981 195.836 113.45 194.319 114.024C189.182 115.966 186.243 116.597 183.132 116.426C181.11 116.315 179.855 116.042 178.752 115.473C176.565 114.345 173.913 111.763 173.664 110.52C173.523 109.815 173.009 109.202 172.053 108.598C171.281 108.111 170.498 107.43 170.313 107.084C169.94 106.387 169.484 103.262 168.69 95.9693C168.398 93.291 168.057 90.9338 167.932 90.7309C167.78 90.4855 166.409 90.444 163.834 90.607L159.963 90.8519L160.203 89.3514C160.335 88.5261 160.9 87.0512 161.459 86.0738C163.934 81.7442 164.298 80.8688 164.644 78.4289C165.435 72.8538 163.854 61.8699 161.283 55.0839C160.77 53.7288 160.135 51.3984 159.872 49.9051C159.609 48.4118 159.069 46.0982 158.671 44.7637C158.274 43.4292 157.948 42.0193 157.948 41.6306C157.948 40.4888 160.306 36.1066 161.8 34.4726C162.713 33.4734 163.724 31.6488 164.794 29.0657C166.515 24.9103 168.335 21.4713 168.812 21.4713C169.48 21.4713 170.292 22.9234 171.653 26.5537C173.633 31.8334 174.739 36.1329 175.189 40.3017C175.639 44.4784 175.843 45.3411 177.69 50.8607C178.466 53.1837 179.272 55.6386 179.479 56.3161C179.686 56.9936 180.24 58.0628 180.711 58.692C181.857 60.2246 182.586 62.0404 182.586 63.3616C182.586 64.8482 183.403 66.3011 184.526 66.8129C185.041 67.0476 186.597 67.4134 187.984 67.6257C192.573 68.3282 194.201 68.6815 194.201 68.9751C194.201 69.6702 190.26 71.6863 185.475 73.4392C179.542 75.6124 173.568 78.4266 172.588 79.5092C171.616 80.5833 172.282 80.4499 176.536 78.7178C178.605 77.8752 180.773 77.0742 181.354 76.9377C183.351 76.4682 187.002 74.8993 194.553 71.2655C198.715 69.2626 203.783 67.0482 205.816 66.3445C211.694 64.3096 225.933 61.0338 237.141 59.1379C239.561 58.7286 243.88 57.8471 246.739 57.1789C252.524 55.8269 253.906 55.7368 257.146 56.5003C261.024 57.4147 263.838 59.5471 264.545 62.1081C265.256 64.6842 261.915 77.7281 259.48 81.8841C258.986 82.7274 258.739 83.4172 258.931 83.4172C259.123 83.4172 258.975 84.0904 258.601 84.913C258.211 85.7737 257.919 87.1988 257.915 88.269C257.905 90.5209 257.277 91.585 255.258 92.7682C252.153 94.5877 239.232 98.8123 226.261 102.249C219.815 103.956 218 104.657 218.23 105.347C218.307 105.577 219.176 105.882 220.162 106.024C225.813 106.837 241.518 115.481 246.997 120.794C248.256 122.014 250.024 123.436 250.926 123.954C252.442 124.823 252.597 125.044 252.975 126.861C253.49 129.343 252.922 132.482 249.496 146.081C246.032 159.83 244.239 165.119 242.573 166.501C242.211 166.801 240.745 167.094 238.938 167.227C237.272 167.349 235.038 167.771 233.973 168.163C228.239 170.278 224.831 171.353 223.414 171.495C222.543 171.582 217.554 171.377 212.327 171.038L212.327 171.037ZM253.083 169.622C251.55 169.161 250.868 168.062 250.868 166.056C250.868 162.198 252.547 159.913 262.719 149.926C270.436 142.349 274.977 138.6 277.176 137.989C280.001 137.204 283.762 137.714 290.083 139.739C299.775 142.843 313.895 150.183 317.188 153.828C319.075 155.916 318.838 158.375 316.625 159.672C313.378 161.575 307.341 163.303 303.895 163.318C300.221 163.333 292.178 166.115 290.258 168.034C289.07 169.221 287.587 169.222 278.447 168.038C273.63 167.414 270.746 167.201 269.169 167.355C265.973 167.666 261.179 168.496 259.116 169.095C256.625 169.818 254.383 170.014 253.083 169.623L253.083 169.622ZM327.118 157.318C325.507 156.835 324.839 155.975 324.431 153.857C323.59 149.487 323.272 148.545 321.273 144.481C318.309 138.458 313.674 131.261 308.24 124.243C306.107 121.489 304.913 118.16 305.246 115.89C305.532 113.936 307.421 110.243 309.705 107.173C310.714 105.818 314.914 101.371 319.04 97.2918C323.165 93.2122 326.54 89.6953 326.54 89.4766C326.54 89.2578 325.957 88.9693 325.243 88.8355C323.982 88.5989 309.054 88.8377 298.031 89.2708L292.576 89.4851L289.408 85.8974C284.527 80.3688 275.227 66.2754 273.42 61.6684C271.512 56.8048 273.033 55.3346 282.369 53.0195C294.013 50.1321 297.889 49.7195 318.033 49.223C337.189 48.7509 341.24 48.9158 349.067 50.4863C356.993 52.0768 360.711 53.4275 365.919 56.6093C368.875 58.4149 370.637 59.0177 371.953 58.6735C373.751 58.2032 379.865 60.2863 381.118 61.7961C382.16 63.0527 381.386 68.0331 379.563 71.8001L378.456 74.0879V82.1831C378.456 88.3025 378.616 91.3377 379.113 94.6191C379.559 97.5625 379.655 99.075 379.412 99.3178C378.678 100.052 376.337 97.0248 374.13 92.4851C372.919 89.9944 371.585 87.7593 371.067 87.3514C369.978 86.4953 366.739 86.0069 365.158 86.4604C364.399 86.678 363.992 87.0502 363.861 87.648C363.719 88.2938 363.059 88.8254 361.306 89.7062C358.849 90.9416 357.024 91.2098 354.67 90.6814C353.589 90.4387 353.253 90.5315 352.295 91.3378C350.936 92.4807 350.846 93.2702 352.072 93.2702C353.934 93.2702 356.035 94.8706 361.947 100.793C368.268 107.126 371.697 111.163 372.934 113.73C373.953 115.844 374.863 120.903 374.985 125.123C375.04 127.059 375.275 129.474 375.507 130.49C375.839 131.949 375.833 132.761 375.478 134.346C373.694 142.317 367.518 149.217 362.156 149.229C361.137 149.231 359.116 149.854 355.997 151.127C351.003 153.165 348.592 153.808 345.944 153.808C344.676 153.808 343.486 154.187 341.098 155.349C339.357 156.197 337.103 157.068 336.091 157.285C333.966 157.741 328.595 157.76 327.119 157.318L327.118 157.318ZM377.269 143.687C376.467 142.188 379.442 137.244 384.037 132.437C386.159 130.218 387.226 129.387 388.613 128.871C390.225 128.271 390.48 128.03 390.96 126.661C391.706 124.529 392.85 124.35 393.634 126.242C393.941 126.982 395.019 128.617 396.03 129.875C398.698 133.198 399.115 133.939 399.115 135.351C399.115 138.334 395.343 140.348 384.617 143.091C379.216 144.473 377.753 144.591 377.27 143.688L377.269 143.687ZM403.726 134.571C403.416 133.762 404.495 132.911 410.025 129.605C418.992 124.243 430.179 118.455 432.305 118.077C433.468 117.87 434.46 118.325 434.103 118.902C433.978 119.104 433.017 119.519 431.968 119.824C430.833 120.154 428.519 121.424 426.255 122.959C419.672 127.422 405.877 135.155 404.497 135.155C404.196 135.155 403.849 134.892 403.726 134.571L403.726 134.571ZM155.766 35.9969C154.553 34.6066 152.922 30.1771 152.316 26.6268C151.955 24.5131 150.05 19.2199 147.357 12.8468C146.62 11.1046 145.918 9.06137 145.797 8.30627C145.657 7.43397 145.208 6.59987 144.567 6.01847C144.013 5.51526 143.016 4.60597 142.354 3.99777C140.981 2.73817 140.537 1.26937 141.298 0.50807C141.578 0.22863 141.953 0 142.133 0C142.568 0 143.868 1.3153 143.868 1.7551C143.868 2.38237 146.454 3.2068 149.499 3.5503C153.592 4.0119 154.613 4.39993 155.497 5.8298C155.908 6.49502 156.491 7.0393 156.792 7.0393C157.334 7.0393 160.337 9.3609 163.754 12.421L165.514 13.9972L165.442 16.8157C165.337 20.9463 164.49 24.2133 163.17 25.5752C162.575 26.1891 160.958 28.874 159.577 31.5417C158.196 34.2094 156.897 36.4436 156.689 36.5067C156.481 36.5698 156.066 36.3403 155.766 35.9969V35.9969Z" fill="#E4E4E4"/>
</svg>
