<svg width="424" height="110" viewBox="0 0 424 110" fill="none" xmlns="http://www.w3.org/2000/svg">
<path d="M248.626 50.5095H234.737V51.9828C239.082 51.9828 239.78 52.9139 239.78 58.423V68.3547C239.78 73.8632 239.082 74.872 234.737 74.872C231.402 74.4068 229.151 72.6218 226.048 69.208L222.479 65.329C227.289 64.4744 229.849 61.4494 229.849 58.0349C229.849 53.7685 226.203 50.5095 219.375 50.5095H205.72V51.9828C210.064 51.9828 210.762 52.9139 210.762 58.423V68.3547C210.762 73.8632 210.064 74.872 205.72 74.872V76.346H221.159V74.872C216.815 74.872 216.117 73.8632 216.117 68.3547V65.5623H217.435L226.048 76.346H248.626C259.721 76.346 264.531 70.4501 264.531 63.3886C264.531 56.3283 259.721 50.5095 248.626 50.5095ZM216.117 63.1553V52.8374H219.298C222.789 52.8374 224.341 55.2425 224.341 58.0356C224.341 60.7516 222.789 63.156 219.298 63.156H216.117V63.1553ZM248.859 73.941H248.316C245.523 73.941 245.135 73.2432 245.135 69.6739V52.8374C245.135 52.8374 248.549 52.8374 248.859 52.8374C256.928 52.8374 258.401 58.7334 258.401 63.3115C258.401 68.0437 256.927 73.941 248.859 73.941Z" fill="#00749A"/>
<path d="M162.506 66.0275L167.859 50.1985C169.412 45.6211 168.713 44.3026 163.748 44.3026V42.7502H178.334V44.3026C173.446 44.3026 172.283 45.4663 170.343 51.1302L161.497 77.6651H160.489L152.574 53.3798L144.506 77.6651H143.497L134.885 51.1302C133.023 45.4663 131.782 44.3026 127.281 44.3026V42.7502H144.506V44.3026C139.928 44.3026 138.686 45.3885 140.316 50.1985L145.514 66.0275L153.35 42.7502H154.825L162.506 66.0275Z" fill="#00749A"/>
<path d="M188.884 77.3543C180.35 77.3543 173.367 71.0703 173.367 63.3881C173.367 55.785 180.351 49.4996 188.884 49.4996C197.419 49.4996 204.402 55.785 204.402 63.3881C204.402 71.0703 197.419 77.3543 188.884 77.3543ZM188.884 51.9066C181.747 51.9066 179.264 58.3455 179.264 63.3888C179.264 68.5104 181.747 74.8722 188.884 74.8722C196.101 74.8722 198.584 68.5104 198.584 63.3888C198.584 58.3455 196.101 51.9066 188.884 51.9066Z" fill="#00749A"/>
<path d="M283.695 74.7942V76.3459H265.928V74.7942C271.127 74.7942 272.058 73.4757 272.058 65.7158V53.3026C272.058 45.5426 271.127 44.3019 265.928 44.3019V42.7495H281.988C289.979 42.7495 294.403 46.8618 294.403 52.3715C294.403 57.7252 289.979 61.9145 281.988 61.9145H277.565V65.7151C277.565 73.4757 278.496 74.7942 283.695 74.7942ZM281.988 45.5426H277.565V59.0437H281.988C286.333 59.0437 288.35 56.0179 288.35 52.3715C288.35 48.6474 286.333 45.5426 281.988 45.5426Z" fill="#464342"/>
<path d="M347.704 69.0532L347.316 70.4494C346.618 73.0099 345.764 73.941 340.255 73.941H339.169C335.135 73.941 334.436 73.0099 334.436 67.5015V63.9328C340.489 63.9328 340.954 64.4751 340.954 68.5102H342.428V56.949H340.954C340.954 60.9835 340.489 61.5265 334.436 61.5265V52.8374H338.703C344.213 52.8374 345.065 53.7685 345.764 56.329L346.153 57.8023H347.393L346.851 50.5095H324.04V51.9828C328.384 51.9828 329.083 52.9139 329.083 58.423V68.3547C329.083 73.3941 328.49 74.6636 325.064 74.8446C321.808 74.3474 319.573 72.5715 316.515 69.208L312.946 65.329C317.756 64.4744 320.317 61.4494 320.317 58.0349C320.317 53.7685 316.67 50.5095 309.843 50.5095H296.188V51.9828C300.532 51.9828 301.23 52.9139 301.23 58.423V68.3547C301.23 73.8632 300.532 74.872 296.188 74.872V76.346H311.628V74.872C307.284 74.872 306.584 73.8632 306.584 68.3547V65.5623H307.904L316.515 76.346H348.403L348.869 69.0538H347.704V69.0532ZM306.584 63.1553V52.8374H309.764C313.256 52.8374 314.808 55.2425 314.808 58.0356C314.808 60.7516 313.256 63.156 309.764 63.156H306.584V63.1553Z" fill="#464342"/>
<path d="M363.454 77.3542C360.351 77.3542 357.635 75.7253 356.471 74.7159C356.083 75.1046 355.385 76.2683 355.23 77.3542H353.756V66.6482H355.308C355.929 71.7686 359.497 74.7943 364.075 74.7943C366.558 74.7943 368.575 73.3981 368.575 71.0708C368.575 69.0539 366.791 67.5015 363.61 66.0275L359.187 63.9328C356.083 62.4576 353.756 59.897 353.756 56.4839C353.756 52.7597 357.247 49.5792 362.058 49.5792C364.619 49.5792 366.79 50.5102 368.11 51.5961C368.498 51.2858 368.886 50.4318 369.119 49.5001H370.593V58.6563H368.963C368.42 55.0093 366.403 51.9835 362.291 51.9835C360.119 51.9835 358.101 53.2249 358.101 55.1654C358.101 57.1823 359.73 58.2682 363.455 59.9754L367.721 62.0701C371.446 63.8544 372.92 66.7266 372.92 69.0539C372.92 73.941 368.652 77.3542 363.454 77.3542Z" fill="#464342"/>
<path d="M387.349 77.3542C384.245 77.3542 381.529 75.7253 380.366 74.7159C379.978 75.1046 379.281 76.2683 379.126 77.3542H377.651V66.6482H379.203C379.823 71.7686 383.392 74.7943 387.97 74.7943C390.453 74.7943 392.471 73.3981 392.471 71.0708C392.471 69.0539 390.686 67.5015 387.504 66.0275L383.082 63.9328C379.978 62.4576 377.65 59.897 377.65 56.4839C377.65 52.7597 381.142 49.5792 385.953 49.5792C388.513 49.5792 390.685 50.5102 392.005 51.5961C392.392 51.2858 392.78 50.4318 393.012 49.5001H394.487V58.6563H392.858C392.314 55.0093 390.297 51.9835 386.186 51.9835C384.013 51.9835 381.995 53.2249 381.995 55.1654C381.995 57.1823 383.625 58.2682 387.349 59.9754L391.616 62.0701C395.341 63.8544 396.814 66.7266 396.814 69.0539C396.814 73.941 392.547 77.3542 387.349 77.3542Z" fill="#464342"/>
<path d="M49.6904 59.0248C49.6904 72.616 57.5889 84.3615 69.0423 89.9275L52.6632 45.0508C50.758 49.3211 49.6904 54.0469 49.6904 59.0248Z" fill="#464342"/>
<path d="M107.206 57.2921C107.206 53.0485 105.682 50.1097 104.374 47.8223C102.634 44.9939 101.002 42.5987 101.002 39.7703C101.002 36.6139 103.396 33.6758 106.768 33.6758C106.92 33.6758 107.065 33.6947 107.213 33.7032C101.104 28.1065 92.9652 24.6895 84.0259 24.6895C72.0303 24.6895 61.4765 30.8441 55.3369 40.1662C56.1425 40.1904 56.9017 40.2074 57.5466 40.2074C61.1381 40.2074 66.6975 39.7716 66.6975 39.7716C68.5485 39.6625 68.7667 42.3811 66.9177 42.6C66.9177 42.6 65.0576 42.8189 62.9878 42.9273L75.4918 80.1198L83.006 57.5835L77.6563 42.926C75.8073 42.8176 74.0557 42.5987 74.0557 42.5987C72.2054 42.4902 72.4223 39.6612 74.2726 39.7703C74.2726 39.7703 79.9431 40.2061 83.317 40.2061C86.9079 40.2061 92.468 39.7703 92.468 39.7703C94.3203 39.6612 94.5379 42.3798 92.6882 42.5987C92.6882 42.5987 90.8242 42.8176 88.7582 42.926L101.167 79.8369L104.592 68.392C106.076 63.6428 107.206 60.2316 107.206 57.2921Z" fill="#464342"/>
<path d="M84.6283 62.0283L74.3262 91.9646C77.4022 92.8689 80.6553 93.3635 84.026 93.3635C88.0245 93.3635 91.8591 92.6722 95.4284 91.4171C95.3363 91.2701 95.2526 91.1139 95.184 90.9441L84.6283 62.0283Z" fill="#464342"/>
<path d="M114.155 42.5509C114.303 43.6446 114.386 44.8187 114.386 46.0817C114.386 49.566 113.736 53.4829 111.775 58.3805L101.287 88.7049C111.495 82.7521 118.361 71.6927 118.361 59.0254C118.362 53.0556 116.837 47.442 114.155 42.5509Z" fill="#464342"/>
<path d="M84.0261 19C61.9563 19 44 36.955 44 59.0248C44 81.0973 61.9563 99.0516 84.0261 99.0516C106.095 99.0516 124.054 81.0973 124.054 59.0248C124.054 36.955 106.095 19 84.0261 19ZM84.0261 97.217C62.9683 97.217 45.8353 80.0839 45.8353 59.0248C45.8353 37.967 62.9677 20.8353 84.0261 20.8353C105.083 20.8353 122.215 37.967 122.215 59.0248C122.215 80.0839 105.083 97.217 84.0261 97.217Z" fill="#464342"/>
</svg>
